<?xml version="1.0" encoding="utf-8"?>
<svg version="1.1" xmlns:xlink="http://www.w3.org/1999/xlink" width="10px" height="1149px" preserveAspectRatio="xMidYMin meet" viewBox="1947 479  8 1149" xmlns="http://www.w3.org/2000/svg">
  <path d="M 738 510  L 738 484  L 1951 484  L 1951 1623  L 1955 1623  " stroke-width="2" stroke-dasharray="18,8" stroke="#00ffff" fill="none" />
  <path d="M 738 509  A 3.5 3.5 0 0 0 734.5 512.5 A 3.5 3.5 0 0 0 738 516 A 3.5 3.5 0 0 0 741.5 512.5 A 3.5 3.5 0 0 0 738 509 Z M 738 511  A 1.5 1.5 0 0 1 739.5 512.5 A 1.5 1.5 0 0 1 738 514 A 1.5 1.5 0 0 1 736.5 512.5 A 1.5 1.5 0 0 1 738 511 Z M 1954 1630.6  L 1961 1623  L 1954 1615.4  L 1954 1630.6  Z M 1956 1625.8  L 1956 1620.2  L 1958 1623  L 1956 1625.8  Z " fill-rule="nonzero" fill="#00ffff" stroke="none" />
</svg>