<?xml version="1.0" encoding="utf-8"?>
<svg version="1.1" xmlns:xlink="http://www.w3.org/1999/xlink" width="87px" height="84px" xmlns="http://www.w3.org/2000/svg">
  <g transform="matrix(1 0 0 1 -908 -2827 )">
    <path d="M 908 2827  L 995 2827  L 995 2911  L 908 2911  L 908 2827  " fill-rule="nonzero" fill="#cccccc" stroke="none" />
    <path d="M 914 2833  L 989 2833  L 989 2905  L 914 2905  L 914 2833  " fill-rule="nonzero" fill="#ffffff" stroke="none" />
    <path d="M 959.54 2852.2  C 956.012 2852.2  953.24 2849.428  953.24 2845.9  C 953.24 2842.372  956.012 2839.6  959.54 2839.6  C 963.068 2839.6  965.84 2842.372  965.84 2845.9  C 965.84 2849.428  963.068 2852.2  959.54 2852.2  " fill-rule="nonzero" fill="#cccccc" stroke="none" />
    <path d="M 916 2903  L 916 2865.6  L 933.75 2848.6  L 958.6 2863.60689655172  L 972.8 2858.8  L 987 2863.60689655172  L 987 2903  L 916 2903  " fill-rule="nonzero" fill="#169bd5" stroke="none" />
  </g>
</svg>