<?xml version="1.0" encoding="utf-8"?>
<svg version="1.1" xmlns:xlink="http://www.w3.org/1999/xlink" width="40px" height="40px" xmlns="http://www.w3.org/2000/svg">
  <g transform="matrix(1 0 0 1 -985 -2688 )">
    <path d="M 1005 2688  C 1016.2 2688  1025 2696.8  1025 2708  C 1025 2719.2  1016.2 2728  1005 2728  C 993.8 2728  985 2719.2  985 2708  C 985 2696.8  993.8 2688  1005 2688  Z " fill-rule="nonzero" fill="#ffffff" stroke="none" />
    <path d="M 1005 2688.5  C 1015.92 2688.5  1024.5 2697.08  1024.5 2708  C 1024.5 2718.92  1015.92 2727.5  1005 2727.5  C 994.08 2727.5  985.5 2718.92  985.5 2708  C 985.5 2697.08  994.08 2688.5  1005 2688.5  Z " stroke-width="1" stroke="#797979" fill="none" />
  </g>
</svg>