<?xml version="1.0" encoding="utf-8"?>
<svg version="1.1" xmlns:xlink="http://www.w3.org/1999/xlink" width="40px" height="40px" xmlns="http://www.w3.org/2000/svg">
  <g transform="matrix(1 0 0 1 -969 -3933 )">
    <path d="M 989 3933  C 1000.2 3933  1009 3941.8  1009 3953  C 1009 3964.2  1000.2 3973  989 3973  C 977.8 3973  969 3964.2  969 3953  C 969 3941.8  977.8 3933  989 3933  Z " fill-rule="nonzero" fill="#ffffff" stroke="none" />
    <path d="M 989 3933.5  C 999.92 3933.5  1008.5 3942.08  1008.5 3953  C 1008.5 3963.92  999.92 3972.5  989 3972.5  C 978.08 3972.5  969.5 3963.92  969.5 3953  C 969.5 3942.08  978.08 3933.5  989 3933.5  Z " stroke-width="1" stroke="#797979" fill="none" />
  </g>
</svg>