<?xml version="1.0" encoding="utf-8"?>
<svg version="1.1" xmlns:xlink="http://www.w3.org/1999/xlink" width="87px" height="84px" xmlns="http://www.w3.org/2000/svg">
  <g transform="matrix(1 0 0 1 -905 -2740 )">
    <path d="M 905 2740  L 992 2740  L 992 2824  L 905 2824  L 905 2740  " fill-rule="nonzero" fill="#cccccc" stroke="none" />
    <path d="M 911 2746  L 986 2746  L 986 2818  L 911 2818  L 911 2746  " fill-rule="nonzero" fill="#ffffff" stroke="none" />
    <path d="M 956.54 2765.2  C 953.012 2765.2  950.24 2762.428  950.24 2758.9  C 950.24 2755.372  953.012 2752.6  956.54 2752.6  C 960.068 2752.6  962.84 2755.372  962.84 2758.9  C 962.84 2762.428  960.068 2765.2  956.54 2765.2  " fill-rule="nonzero" fill="#cccccc" stroke="none" />
    <path d="M 913 2816  L 913 2778.6  L 930.75 2761.6  L 955.6 2776.60689655172  L 969.8 2771.8  L 984 2776.60689655172  L 984 2816  L 913 2816  " fill-rule="nonzero" fill="#169bd5" stroke="none" />
  </g>
</svg>