<?xml version="1.0" encoding="utf-8"?>
<svg version="1.1" xmlns:xlink="http://www.w3.org/1999/xlink" width="50px" height="50px" xmlns="http://www.w3.org/2000/svg">
  <defs>
    <mask fill="white" id="clip16">
      <path d="M 1416 2478  C 1402.125 2478  1391 2466.875  1391 2453  L 1391 2453  C 1391 2439.125  1402.125 2428  1416 2428  L 1416 2428  C 1429.875 2428  1441 2439.125  1441 2453  L 1441 2453  C 1441 2466.875  1429.875 2478  1416 2478  " fill-rule="evenodd" />
    </mask>
  </defs>
  <g transform="matrix(1 0 0 1 -1391 -2428 )">
    <path d="M 1391 2428  L 1441 2428  L 1441 2478  L 1391 2478  L 1391 2428  " fill-rule="nonzero" fill="#cccccc" stroke="none" mask="url(#clip16)" />
    <path d="M 1395 2432  L 1437 2432  L 1437 2474  L 1395 2474  L 1395 2432  " fill-rule="nonzero" fill="#ffffff" stroke="none" mask="url(#clip16)" />
    <path d="M 1420.75 2443  C 1418.65 2443  1417 2441.35  1417 2439.25  C 1417 2437.15  1418.65 2435.5  1420.75 2435.5  C 1422.85 2435.5  1424.5 2437.15  1424.5 2439.25  C 1424.5 2441.35  1422.85 2443  1420.75 2443  " fill-rule="nonzero" fill="#cccccc" stroke="none" mask="url(#clip16)" />
    <path d="M 1397 2473  L 1397 2451.55  L 1406.75 2441.8  L 1420.4 2449.6  L 1428.2 2447.65  L 1436 2449.6  L 1436 2473  L 1397 2473  " fill-rule="nonzero" fill="#169bd5" stroke="none" mask="url(#clip16)" />
  </g>
</svg>