<?xml version="1.0" encoding="utf-8"?>
<svg version="1.1" xmlns:xlink="http://www.w3.org/1999/xlink" width="50px" height="50px" xmlns="http://www.w3.org/2000/svg">
  <defs>
    <mask fill="white" id="clip102">
      <path d="M 1400 3723  C 1386.125 3723  1375 3711.875  1375 3698  L 1375 3698  C 1375 3684.125  1386.125 3673  1400 3673  L 1400 3673  C 1413.875 3673  1425 3684.125  1425 3698  L 1425 3698  C 1425 3711.875  1413.875 3723  1400 3723  " fill-rule="evenodd" />
    </mask>
  </defs>
  <g transform="matrix(1 0 0 1 -1375 -3673 )">
    <path d="M 1375 3673  L 1425 3673  L 1425 3723  L 1375 3723  L 1375 3673  " fill-rule="nonzero" fill="#cccccc" stroke="none" mask="url(#clip102)" />
    <path d="M 1379 3677  L 1421 3677  L 1421 3719  L 1379 3719  L 1379 3677  " fill-rule="nonzero" fill="#ffffff" stroke="none" mask="url(#clip102)" />
    <path d="M 1404.75 3688  C 1402.65 3688  1401 3686.35  1401 3684.25  C 1401 3682.15  1402.65 3680.5  1404.75 3680.5  C 1406.85 3680.5  1408.5 3682.15  1408.5 3684.25  C 1408.5 3686.35  1406.85 3688  1404.75 3688  " fill-rule="nonzero" fill="#cccccc" stroke="none" mask="url(#clip102)" />
    <path d="M 1381 3718  L 1381 3696.55  L 1390.75 3686.8  L 1404.4 3694.6  L 1412.2 3692.65  L 1420 3694.6  L 1420 3718  L 1381 3718  " fill-rule="nonzero" fill="#169bd5" stroke="none" mask="url(#clip102)" />
  </g>
</svg>