<?xml version="1.0" encoding="utf-8"?>
<svg version="1.1" xmlns:xlink="http://www.w3.org/1999/xlink" width="50px" height="50px" xmlns="http://www.w3.org/2000/svg">
  <defs>
    <mask fill="white" id="clip543">
      <path d="M 1416 1178  C 1402.125 1178  1391 1166.875  1391 1153  L 1391 1153  C 1391 1139.125  1402.125 1128  1416 1128  L 1416 1128  C 1429.875 1128  1441 1139.125  1441 1153  L 1441 1153  C 1441 1166.875  1429.875 1178  1416 1178  " fill-rule="evenodd" />
    </mask>
  </defs>
  <g transform="matrix(1 0 0 1 -1391 -1128 )">
    <path d="M 1391 1128  L 1441 1128  L 1441 1178  L 1391 1178  L 1391 1128  " fill-rule="nonzero" fill="#cccccc" stroke="none" mask="url(#clip543)" />
    <path d="M 1395 1132  L 1437 1132  L 1437 1174  L 1395 1174  L 1395 1132  " fill-rule="nonzero" fill="#ffffff" stroke="none" mask="url(#clip543)" />
    <path d="M 1420.75 1143  C 1418.65 1143  1417 1141.35  1417 1139.25  C 1417 1137.15  1418.65 1135.5  1420.75 1135.5  C 1422.85 1135.5  1424.5 1137.15  1424.5 1139.25  C 1424.5 1141.35  1422.85 1143  1420.75 1143  " fill-rule="nonzero" fill="#cccccc" stroke="none" mask="url(#clip543)" />
    <path d="M 1397 1173  L 1397 1151.55  L 1406.75 1141.8  L 1420.4 1149.6  L 1428.2 1147.65  L 1436 1149.6  L 1436 1173  L 1397 1173  " fill-rule="nonzero" fill="#169bd5" stroke="none" mask="url(#clip543)" />
  </g>
</svg>