<?xml version="1.0" encoding="utf-8"?>
<svg version="1.1" xmlns:xlink="http://www.w3.org/1999/xlink" width="40px" height="40px" xmlns="http://www.w3.org/2000/svg">
  <g transform="matrix(1 0 0 1 -985 -1388 )">
    <path d="M 1005 1388  C 1016.2 1388  1025 1396.8  1025 1408  C 1025 1419.2  1016.2 1428  1005 1428  C 993.8 1428  985 1419.2  985 1408  C 985 1396.8  993.8 1388  1005 1388  Z " fill-rule="nonzero" fill="#ffffff" stroke="none" />
    <path d="M 1005 1388.5  C 1015.92 1388.5  1024.5 1397.08  1024.5 1408  C 1024.5 1418.92  1015.92 1427.5  1005 1427.5  C 994.08 1427.5  985.5 1418.92  985.5 1408  C 985.5 1397.08  994.08 1388.5  1005 1388.5  Z " stroke-width="1" stroke="#797979" fill="none" />
  </g>
</svg>