<?xml version="1.0" encoding="utf-8"?>
<svg version="1.1" xmlns:xlink="http://www.w3.org/1999/xlink" width="11px" height="16px" xmlns="http://www.w3.org/2000/svg">
  <g transform="matrix(1 0 0 1 -894 -2248 )">
    <path d="M 10.8109965635739 0.96192384769539  C 10.9369988545246 1.0688042752171  11 1.19171676686707  11 1.33066132264529  C 11 1.46960587842351  10.9369988545246 1.59251837007348  10.8109965635739 1.69939879759519  L 3.38316151202749 8  L 10.8109965635739 14.3006012024048  C 10.9369988545246 14.4074816299265  11 14.5303941215765  11 14.6693386773547  C 11 14.8082832331329  10.9369988545246 14.9311957247829  10.8109965635739 15.0380761523046  L 9.8659793814433 15.8396793587174  C 9.73997709049256 15.9465597862391  9.5950744558992 16  9.43127147766323 16  C 9.26746849942726 16  9.12256586483391 15.9465597862391  8.99656357388316 15.8396793587174  L 0.189003436426117 8.3687374749499  C 0.0630011454753723 8.26185704742819  0 8.13894455577822  0 8  C 0 7.86105544422178  0.0630011454753723 7.73814295257181  0.189003436426117 7.6312625250501  L 8.99656357388316 0.160320641282565  C 9.12256586483391 0.0534402137608545  9.26746849942726 0  9.43127147766323 0  C 9.5950744558992 0  9.73997709049256 0.0534402137608545  9.8659793814433 0.160320641282565  L 10.8109965635739 0.96192384769539  Z " fill-rule="nonzero" fill="#000000" stroke="none" transform="matrix(1 0 0 1 894 2248 )" />
  </g>
</svg>