<?xml version="1.0" encoding="utf-8"?>
<svg version="1.1" xmlns:xlink="http://www.w3.org/1999/xlink" width="12px" height="12px" viewBox="1105 713  12 12" xmlns="http://www.w3.org/2000/svg">
  <path d="M 1111 713  C 1114.36 713  1117 715.64  1117 719  C 1117 722.36  1114.36 725  1111 725  C 1107.64 725  1105 722.36  1105 719  C 1105 715.64  1107.64 713  1111 713  Z " fill-rule="nonzero" fill="#ffffff" stroke="none" />
  <path d="M 1111 713.5  C 1114.08 713.5  1116.5 715.92  1116.5 719  C 1116.5 722.08  1114.08 724.5  1111 724.5  C 1107.92 724.5  1105.5 722.08  1105.5 719  C 1105.5 715.92  1107.92 713.5  1111 713.5  Z " stroke-width="1" stroke="#797979" fill="none" />
  <path d="M 1111 722  C 1109.32 722  1108 720.68  1108 719  C 1108 717.32  1109.32 716  1111 716  C 1112.68 716  1114 717.32  1114 719  C 1114 720.68  1112.68 722  1111 722  " fill-rule="nonzero" fill="#797979" stroke="none" />
</svg>