<?xml version="1.0" encoding="utf-8"?>
<svg version="1.1" xmlns:xlink="http://www.w3.org/1999/xlink" width="12px" height="12px" viewBox="1105 675  12 12" xmlns="http://www.w3.org/2000/svg">
  <path d="M 1111 675  C 1114.36 675  1117 677.64  1117 681  C 1117 684.36  1114.36 687  1111 687  C 1107.64 687  1105 684.36  1105 681  C 1105 677.64  1107.64 675  1111 675  Z " fill-rule="nonzero" fill="#f0f0f0" stroke="none" />
  <path d="M 1111 675.5  C 1114.08 675.5  1116.5 677.92  1116.5 681  C 1116.5 684.08  1114.08 686.5  1111 686.5  C 1107.92 686.5  1105.5 684.08  1105.5 681  C 1105.5 677.92  1107.92 675.5  1111 675.5  Z " stroke-width="1" stroke="#797979" fill="none" />
  <path d="M 1111 684  C 1109.32 684  1108 682.68  1108 681  C 1108 679.32  1109.32 678  1111 678  C 1112.68 678  1114 679.32  1114 681  C 1114 682.68  1112.68 684  1111 684  " fill-rule="nonzero" fill="#797979" stroke="none" />
</svg>