<?xml version="1.0" encoding="utf-8"?>
<svg version="1.1" xmlns:xlink="http://www.w3.org/1999/xlink" width="22px" height="24px" xmlns="http://www.w3.org/2000/svg">
  <g transform="matrix(1 0 0 1 -589 -573 )">
    <path d="M 7.859375 19.859375  C 7.953125 19.765625  8 19.6458333333333  8 19.5  L 8 8.5  C 8 8.35416666666667  7.953125 8.234375  7.859375 8.140625  C 7.765625 8.046875  7.64583333333333 8  7.5 8  L 6.5 8  C 6.35416666666667 8  6.234375 8.046875  6.140625 8.140625  C 6.046875 8.234375  6 8.35416666666667  6 8.5  L 6 19.5  C 6 19.6458333333333  6.046875 19.765625  6.140625 19.859375  C 6.234375 19.953125  6.35416666666667 20  6.5 20  L 7.5 20  C 7.64583333333333 20  7.765625 19.953125  7.859375 19.859375  Z M 11.859375 19.859375  C 11.953125 19.765625  12 19.6458333333333  12 19.5  L 12 8.5  C 12 8.35416666666667  11.953125 8.234375  11.859375 8.140625  C 11.765625 8.046875  11.6458333333333 8  11.5 8  L 10.5 8  C 10.3541666666667 8  10.234375 8.046875  10.140625 8.140625  C 10.046875 8.234375  10 8.35416666666667  10 8.5  L 10 19.5  C 10 19.6458333333333  10.046875 19.765625  10.140625 19.859375  C 10.234375 19.953125  10.3541666666667 20  10.5 20  L 11.5 20  C 11.6458333333333 20  11.765625 19.953125  11.859375 19.859375  Z M 15.859375 19.859375  C 15.953125 19.765625  16 19.6458333333333  16 19.5  L 16 8.5  C 16 8.35416666666667  15.953125 8.234375  15.859375 8.140625  C 15.765625 8.046875  15.6458333333333 8  15.5 8  L 14.5 8  C 14.3541666666667 8  14.234375 8.046875  14.140625 8.140625  C 14.046875 8.234375  14 8.35416666666667  14 8.5  L 14 19.5  C 14 19.6458333333333  14.046875 19.765625  14.140625 19.859375  C 14.234375 19.953125  14.3541666666667 20  14.5 20  L 15.5 20  C 15.6458333333333 20  15.765625 19.953125  15.859375 19.859375  Z M 8.265625 2.171875  L 7.5 4  L 14.5 4  L 13.75 2.171875  C 13.6770833333333 2.078125  13.5885416666667 2.02083333333333  13.484375 2  L 8.53125 2  C 8.42708333333333 2.02083333333333  8.33854166666667 2.078125  8.265625 2.171875  Z M 21.859375 4.140625  C 21.953125 4.234375  22 4.35416666666667  22 4.5  L 22 5.5  C 22 5.64583333333333  21.953125 5.765625  21.859375 5.859375  C 21.765625 5.953125  21.6458333333333 6  21.5 6  L 20 6  L 20 20.8125  C 20 21.6770833333333  19.7552083333333 22.4244791666667  19.265625 23.0546875  C 18.7760416666667 23.6848958333333  18.1875 24  17.5 24  L 4.5 24  C 3.8125 24  3.22395833333333 23.6953125  2.734375 23.0859375  C 2.24479166666667 22.4765625  2 21.7395833333333  2 20.875  L 2 6  L 0.5 6  C 0.354166666666667 6  0.234375 5.953125  0.140625 5.859375  C 0.046875 5.765625  0 5.64583333333333  0 5.5  L 0 4.5  C 0 4.35416666666667  0.046875 4.234375  0.140625 4.140625  C 0.234375 4.046875  0.354166666666667 4  0.5 4  L 5.328125 4  L 6.421875 1.390625  C 6.578125 1.00520833333333  6.859375 0.677083333333331  7.265625 0.406250000000001  C 7.671875 0.135416666666665  8.08333333333333 0  8.5 0  L 13.5 0  C 13.9166666666667 0  14.328125 0.135416666666665  14.734375 0.406250000000001  C 15.140625 0.677083333333331  15.421875 1.00520833333333  15.578125 1.390625  L 16.671875 4  L 21.5 4  C 21.6458333333333 4  21.765625 4.046875  21.859375 4.140625  Z " fill-rule="nonzero" fill="#000000" stroke="none" transform="matrix(1 0 0 1 589 573 )" />
  </g>
</svg>