<?xml version="1.0" encoding="utf-8"?>
<svg version="1.1" xmlns:xlink="http://www.w3.org/1999/xlink" width="30px" height="26px" xmlns="http://www.w3.org/2000/svg">
  <g transform="matrix(1 0 0 1 -945 -451 )">
    <path d="M 29.2929292929293 19.4343434343434  C 29.7643097643098 19.8428731762065  30 20.3389450056117  30 20.9225589225589  C 30 21.5061728395062  29.7643097643098 22.0022446689113  29.2929292929293 22.4107744107744  L 25.8585858585859 25.3872053872054  C 25.3872053872054 25.7957351290685  24.8148148148148 26  24.1414141414141 26  C 23.4680134680135 26  22.8956228956229 25.7957351290685  22.4242424242424 25.3872053872054  L 15 18.952861952862  L 7.57575757575758 25.3872053872054  C 7.10437710437711 25.7957351290685  6.53198653198653 26  5.85858585858586 26  C 5.18518518518519 26  4.61279461279461 25.7957351290685  4.14141414141414 25.3872053872054  L 0.707070707070707 22.4107744107744  C 0.235690235690236 22.0022446689113  0 21.5061728395062  0 20.9225589225589  C 0 20.3389450056117  0.235690235690236 19.8428731762065  0.707070707070707 19.4343434343434  L 8.13131313131313 13  L 0.707070707070707 6.56565656565656  C 0.235690235690236 6.15712682379349  0 5.66105499438833  0 5.07744107744108  C 0 4.49382716049383  0.235690235690236 3.99775533108866  0.707070707070707 3.58922558922559  L 4.14141414141414 0.612794612794613  C 4.61279461279461 0.204264870931537  5.18518518518519 0  5.85858585858586 0  C 6.53198653198653 0  7.10437710437711 0.204264870931537  7.57575757575758 0.612794612794613  L 15 7.04713804713805  L 22.4242424242424 0.612794612794613  C 22.8956228956229 0.204264870931537  23.4680134680135 0  24.1414141414141 0  C 24.8148148148148 0  25.3872053872054 0.204264870931537  25.8585858585859 0.612794612794613  L 29.2929292929293 3.58922558922559  C 29.7643097643098 3.99775533108866  30 4.49382716049383  30 5.07744107744108  C 30 5.66105499438833  29.7643097643098 6.15712682379349  29.2929292929293 6.56565656565656  L 21.8686868686869 13  L 29.2929292929293 19.4343434343434  Z " fill-rule="nonzero" fill="#000000" stroke="none" transform="matrix(1 0 0 1 945 451 )" />
  </g>
</svg>