<?xml version="1.0" encoding="utf-8"?>
<svg version="1.1" xmlns:xlink="http://www.w3.org/1999/xlink" width="12px" height="12px" viewBox="1223 713  12 12" xmlns="http://www.w3.org/2000/svg">
  <path d="M 1229 713  C 1232.36 713  1235 715.64  1235 719  C 1235 722.36  1232.36 725  1229 725  C 1225.64 725  1223 722.36  1223 719  C 1223 715.64  1225.64 713  1229 713  Z " fill-rule="nonzero" fill="#ffffff" stroke="none" />
  <path d="M 1229 713.5  C 1232.08 713.5  1234.5 715.92  1234.5 719  C 1234.5 722.08  1232.08 724.5  1229 724.5  C 1225.92 724.5  1223.5 722.08  1223.5 719  C 1223.5 715.92  1225.92 713.5  1229 713.5  Z " stroke-width="1" stroke="#797979" fill="none" />
  <path d="M 1229 722  C 1227.32 722  1226 720.68  1226 719  C 1226 717.32  1227.32 716  1229 716  C 1230.68 716  1232 717.32  1232 719  C 1232 720.68  1230.68 722  1229 722  " fill-rule="nonzero" fill="#797979" stroke="none" />
</svg>