<?xml version="1.0" encoding="utf-8"?>
<svg version="1.1" xmlns:xlink="http://www.w3.org/1999/xlink" width="12px" height="12px" viewBox="1223 675  12 12" xmlns="http://www.w3.org/2000/svg">
  <path d="M 1229 675  C 1232.36 675  1235 677.64  1235 681  C 1235 684.36  1232.36 687  1229 687  C 1225.64 687  1223 684.36  1223 681  C 1223 677.64  1225.64 675  1229 675  Z " fill-rule="nonzero" fill="#ffffff" stroke="none" />
  <path d="M 1229 675.5  C 1232.08 675.5  1234.5 677.92  1234.5 681  C 1234.5 684.08  1232.08 686.5  1229 686.5  C 1225.92 686.5  1223.5 684.08  1223.5 681  C 1223.5 677.92  1225.92 675.5  1229 675.5  Z " stroke-width="1" stroke="#797979" fill="none" />
  <path d="M 1229 684  C 1227.32 684  1226 682.68  1226 681  C 1226 679.32  1227.32 678  1229 678  C 1230.68 678  1232 679.32  1232 681  C 1232 682.68  1230.68 684  1229 684  " fill-rule="nonzero" fill="#797979" stroke="none" />
</svg>