<?xml version="1.0" encoding="utf-8"?>
<svg version="1.1" xmlns:xlink="http://www.w3.org/1999/xlink" width="12px" height="12px" viewBox="535 671  12 12" xmlns="http://www.w3.org/2000/svg">
  <path d="M 541 671  C 544.36 671  547 673.64  547 677  C 547 680.36  544.36 683  541 683  C 537.64 683  535 680.36  535 677  C 535 673.64  537.64 671  541 671  Z " fill-rule="nonzero" fill="#ffffff" stroke="none" />
  <path d="M 541 671.5  C 544.08 671.5  546.5 673.92  546.5 677  C 546.5 680.08  544.08 682.5  541 682.5  C 537.92 682.5  535.5 680.08  535.5 677  C 535.5 673.92  537.92 671.5  541 671.5  Z " stroke-width="1" stroke="#797979" fill="none" />
  <path d="M 541 680  C 539.32 680  538 678.68  538 677  C 538 675.32  539.32 674  541 674  C 542.68 674  544 675.32  544 677  C 544 678.68  542.68 680  541 680  " fill-rule="nonzero" fill="#797979" stroke="none" />
</svg>