<?xml version="1.0" encoding="utf-8"?>
<svg version="1.1" xmlns:xlink="http://www.w3.org/1999/xlink" width="76px" height="79px" xmlns="http://www.w3.org/2000/svg">
  <g transform="matrix(1 0 0 1 -535 -573 )">
    <path d="M 535 573  L 611 573  L 611 652  L 535 652  L 535 573  " fill-rule="nonzero" fill="#cccccc" stroke="none" />
    <path d="M 540 578  L 606 578  L 606 647  L 540 647  L 540 578  " fill-rule="nonzero" fill="#ffffff" stroke="none" />
    <path d="M 580.22 596.25  C 577.028 596.25  574.52 593.742  574.52 590.55  C 574.52 587.358  577.028 584.85  580.22 584.85  C 583.412 584.85  585.92 587.358  585.92 590.55  C 585.92 593.742  583.412 596.25  580.22 596.25  " fill-rule="nonzero" fill="#cccccc" stroke="none" />
    <path d="M 542 645  L 542 609.25  L 557.5 593  L 579.2 606  L 591.6 602.75  L 604 606  L 604 645  L 542 645  " fill-rule="nonzero" fill="#169bd5" stroke="none" />
  </g>
</svg>