<?xml version="1.0" encoding="utf-8"?>
<svg version="1.1" xmlns:xlink="http://www.w3.org/1999/xlink" width="12px" height="12px" viewBox="653 671  12 12" xmlns="http://www.w3.org/2000/svg">
  <path d="M 659 671  C 662.36 671  665 673.64  665 677  C 665 680.36  662.36 683  659 683  C 655.64 683  653 680.36  653 677  C 653 673.64  655.64 671  659 671  Z " fill-rule="nonzero" fill="#ffffff" stroke="none" />
  <path d="M 659 671.5  C 662.08 671.5  664.5 673.92  664.5 677  C 664.5 680.08  662.08 682.5  659 682.5  C 655.92 682.5  653.5 680.08  653.5 677  C 653.5 673.92  655.92 671.5  659 671.5  Z " stroke-width="1" stroke="#797979" fill="none" />
  <path d="M 659 680  C 657.32 680  656 678.68  656 677  C 656 675.32  657.32 674  659 674  C 660.68 674  662 675.32  662 677  C 662 678.68  660.68 680  659 680  " fill-rule="nonzero" fill="#797979" stroke="none" />
</svg>