<?xml version="1.0" encoding="utf-8"?>
<svg version="1.1" xmlns:xlink="http://www.w3.org/1999/xlink" width="57px" height="53px" xmlns="http://www.w3.org/2000/svg">
  <g transform="matrix(1 0 0 1 -691 -220 )">
    <path d="M 691 220  L 748 220  L 748 273  L 691 273  L 691 220  " fill-rule="nonzero" fill="#cccccc" stroke="none" />
    <path d="M 695 224  L 744 224  L 744 269  L 695 269  L 695 224  " fill-rule="nonzero" fill="#ffffff" stroke="none" />
    <path d="M 724.615 235.9  C 722.389 235.9  720.64 234.151  720.64 231.925  C 720.64 229.699  722.389 227.95  724.615 227.95  C 726.841 227.95  728.59 229.699  728.59 231.925  C 728.59 234.151  726.841 235.9  724.615 235.9  " fill-rule="nonzero" fill="#cccccc" stroke="none" />
    <path d="M 697 268  L 697 244.9  L 708.5 234.4  L 724.6 244.568421052632  L 733.8 240.7  L 743 244.568421052632  L 743 268  L 697 268  " fill-rule="nonzero" fill="#169bd5" stroke="none" />
  </g>
</svg>