<?xml version="1.0" encoding="utf-8"?>
<svg version="1.1" xmlns:xlink="http://www.w3.org/1999/xlink" width="24px" height="26px" xmlns="http://www.w3.org/2000/svg">
  <g transform="matrix(1 0 0 1 -370 -336 )">
    <path d="M 23.4343434343434 19.4343434343434  C 23.8114478114478 19.8428731762065  24 20.3389450056117  24 20.9225589225589  C 24 21.5061728395062  23.8114478114478 22.0022446689113  23.4343434343434 22.4107744107744  L 20.6868686868687 25.3872053872054  C 20.3097643097643 25.7957351290685  19.8518518518519 26  19.3131313131313 26  C 18.7744107744108 26  18.3164983164983 25.7957351290685  17.9393939393939 25.3872053872054  L 12 18.952861952862  L 6.06060606060606 25.3872053872054  C 5.68350168350168 25.7957351290685  5.22558922558923 26  4.68686868686869 26  C 4.14814814814815 26  3.69023569023569 25.7957351290685  3.31313131313131 25.3872053872054  L 0.565656565656566 22.4107744107744  C 0.188552188552189 22.0022446689113  0 21.5061728395062  0 20.9225589225589  C 0 20.3389450056117  0.188552188552189 19.8428731762065  0.565656565656566 19.4343434343434  L 6.50505050505051 13  L 0.565656565656566 6.56565656565656  C 0.188552188552189 6.15712682379349  0 5.66105499438833  0 5.07744107744108  C 0 4.49382716049383  0.188552188552189 3.99775533108866  0.565656565656566 3.58922558922559  L 3.31313131313131 0.612794612794613  C 3.69023569023569 0.204264870931537  4.14814814814815 0  4.68686868686869 0  C 5.22558922558923 0  5.68350168350168 0.204264870931537  6.06060606060606 0.612794612794613  L 12 7.04713804713805  L 17.9393939393939 0.612794612794613  C 18.3164983164983 0.204264870931537  18.7744107744108 0  19.3131313131313 0  C 19.8518518518519 0  20.3097643097643 0.204264870931537  20.6868686868687 0.612794612794613  L 23.4343434343434 3.58922558922559  C 23.8114478114478 3.99775533108866  24 4.49382716049383  24 5.07744107744108  C 24 5.66105499438833  23.8114478114478 6.15712682379349  23.4343434343434 6.56565656565656  L 17.4949494949495 13  L 23.4343434343434 19.4343434343434  Z " fill-rule="nonzero" fill="#000000" stroke="none" transform="matrix(1 0 0 1 370 336 )" />
  </g>
</svg>