<?xml version="1.0" encoding="utf-8"?>
<svg version="1.1" xmlns:xlink="http://www.w3.org/1999/xlink" width="50px" height="50px" xmlns="http://www.w3.org/2000/svg">
  <defs>
    <mask fill="white" id="clip21">
      <path d="M 1207 695  C 1193.125 695  1182 683.875  1182 670  L 1182 670  C 1182 656.125  1193.125 645  1207 645  L 1207 645  C 1220.875 645  1232 656.125  1232 670  L 1232 670  C 1232 683.875  1220.875 695  1207 695  " fill-rule="evenodd" />
    </mask>
  </defs>
  <g transform="matrix(1 0 0 1 -1182 -645 )">
    <path d="M 1182 645  L 1232 645  L 1232 695  L 1182 695  L 1182 645  " fill-rule="nonzero" fill="#cccccc" stroke="none" mask="url(#clip21)" />
    <path d="M 1186 649  L 1228 649  L 1228 691  L 1186 691  L 1186 649  " fill-rule="nonzero" fill="#ffffff" stroke="none" mask="url(#clip21)" />
    <path d="M 1211.75 660  C 1209.65 660  1208 658.35  1208 656.25  C 1208 654.15  1209.65 652.5  1211.75 652.5  C 1213.85 652.5  1215.5 654.15  1215.5 656.25  C 1215.5 658.35  1213.85 660  1211.75 660  " fill-rule="nonzero" fill="#cccccc" stroke="none" mask="url(#clip21)" />
    <path d="M 1188 690  L 1188 668.55  L 1197.75 658.8  L 1211.4 666.6  L 1219.2 664.65  L 1227 666.6  L 1227 690  L 1188 690  " fill-rule="nonzero" fill="#169bd5" stroke="none" mask="url(#clip21)" />
  </g>
</svg>