<?xml version="1.0" encoding="utf-8"?>
<svg version="1.1" xmlns:xlink="http://www.w3.org/1999/xlink" width="14px" height="16px" xmlns="http://www.w3.org/2000/svg">
  <g transform="matrix(1 0 0 1 -1985 -566 )">
    <path d="M 9.09635416666667 10.2291666666667  C 9.65538194444444 9.63194444444444  10.3177083333333 9.33333333333333  11.0833333333333 9.33333333333333  C 11.8914930555556 9.33333333333333  12.5796440972222 9.65798611111111  13.1477864583333 10.3072916666667  C 13.7159288194444 10.9565972222222  14 11.7430555555556  14 12.6666666666667  C 14 13.5902777777778  13.7159288194444 14.3767361111111  13.1477864583333 15.0260416666667  C 12.5796440972222 15.6753472222222  11.8914930555556 16  11.0833333333333 16  C 10.2751736111111 16  9.58702256944444 15.6753472222222  9.01888020833333 15.0260416666667  C 8.45073784722222 14.3767361111111  8.16666666666667 13.5902777777778  8.16666666666667 12.6666666666667  C 8.16666666666667 12.5833333333333  8.17274305555556 12.4652777777778  8.18489583333333 12.3125  L 4.90364583333333 10.4375  C 4.34461805555556 11.0347222222222  3.68229166666667 11.3333333333333  2.91666666666667 11.3333333333333  C 2.10850694444444 11.3333333333333  1.42035590277778 11.0086805555556  0.852213541666667 10.359375  C 0.284071180555556 9.71006944444444  0 8.92361111111111  0 8  C 0 7.07638888888889  0.284071180555556 6.28993055555556  0.852213541666667 5.640625  C 1.42035590277778 4.99131944444444  2.10850694444444 4.66666666666667  2.91666666666667 4.66666666666667  C 3.68229166666667 4.66666666666667  4.34461805555556 4.96527777777778  4.90364583333333 5.5625  L 8.18489583333333 3.6875  C 8.17274305555556 3.53472222222222  8.16666666666667 3.41666666666667  8.16666666666667 3.33333333333333  C 8.16666666666667 2.40972222222222  8.45073784722222 1.62326388888889  9.01888020833333 0.973958333333334  C 9.58702256944444 0.324652777777777  10.2751736111111 0  11.0833333333333 0  C 11.8914930555556 0  12.5796440972222 0.324652777777777  13.1477864583333 0.973958333333334  C 13.7159288194444 1.62326388888889  14 2.40972222222222  14 3.33333333333333  C 14 4.25694444444444  13.7159288194444 5.04340277777778  13.1477864583333 5.69270833333333  C 12.5796440972222 6.34201388888889  11.8914930555556 6.66666666666667  11.0833333333333 6.66666666666667  C 10.3177083333333 6.66666666666667  9.65538194444444 6.36805555555556  9.09635416666667 5.77083333333333  L 5.81510416666667 7.64583333333333  C 5.82725694444444 7.79861111111111  5.83333333333333 7.91666666666667  5.83333333333333 8  C 5.83333333333333 8.08333333333333  5.82725694444444 8.20138888888889  5.81510416666667 8.35416666666667  L 9.09635416666667 10.2291666666667  Z " fill-rule="nonzero" fill="#000000" stroke="none" transform="matrix(1 0 0 1 1985 566 )" />
  </g>
</svg>