<?xml version="1.0" encoding="utf-8"?>
<svg version="1.1" xmlns:xlink="http://www.w3.org/1999/xlink" width="35px" height="31px" xmlns="http://www.w3.org/2000/svg">
  <g transform="matrix(1 0 0 1 -1879 -91 )">
    <path d="M 33.96484375 14.008125  C 34.6549479166667 15.7389583333333  35 17.8895833333333  35 20.46  C 35 22.6041666666667  34.1731770833333 25.516875  32.51953125 29.198125  C 32.48046875 29.2885416666667  32.412109375 29.4435416666667  32.314453125 29.663125  C 32.216796875 29.8827083333333  32.12890625 30.0764583333333  32.05078125 30.244375  C 31.97265625 30.4122916666667  31.8880208333333 30.554375  31.796875 30.670625  C 31.640625 30.8902083333333  31.4583333333333 31  31.25 31  C 31.0546875 31  30.9016927083333 30.9354166666667  30.791015625 30.80625  C 30.6803385416667 30.6770833333333  30.625 30.515625  30.625 30.321875  C 30.625 30.205625  30.6412760416667 30.0344791666667  30.673828125 29.8084375  C 30.7063802083333 29.5823958333333  30.72265625 29.430625  30.72265625 29.353125  C 30.7877604166667 28.4747916666667  30.8203125 27.6804166666667  30.8203125 26.97  C 30.8203125 25.6654166666667  30.7063802083333 24.4964583333333  30.478515625 23.463125  C 30.2506510416667 22.4297916666667  29.9348958333333 21.5353125  29.53125 20.7796875  C 29.1276041666667 20.0240625  28.6067708333333 19.3717708333333  27.96875 18.8228125  C 27.3307291666667 18.2738541666667  26.6438802083333 17.825  25.908203125 17.47625  C 25.1725260416667 17.1275  24.306640625 16.8530208333333  23.310546875 16.6528125  C 22.314453125 16.4526041666667  21.3118489583333 16.31375  20.302734375 16.23625  C 19.2936197916667 16.15875  18.1510416666667 16.12  16.875 16.12  L 12.5 16.12  L 12.5 21.08  C 12.5 21.4158333333333  12.3763020833333 21.7064583333333  12.12890625 21.951875  C 11.8815104166667 22.1972916666667  11.5885416666667 22.32  11.25 22.32  C 10.9114583333333 22.32  10.6184895833333 22.1972916666667  10.37109375 21.951875  L 0.37109375 12.031875  C 0.123697916666667 11.7864583333333  0 11.4958333333333  0 11.16  C 0 10.8241666666667  0.123697916666667 10.5335416666667  0.37109375 10.288125  L 10.37109375 0.368124999999999  C 10.6184895833333 0.122708333333332  10.9114583333333 0  11.25 0  C 11.5885416666667 0  11.8815104166667 0.122708333333332  12.12890625 0.368124999999999  C 12.3763020833333 0.613541666666663  12.5 0.904166666666663  12.5 1.24  L 12.5 6.2  L 16.875 6.2  C 26.1588541666667 6.2  31.85546875 8.80270833333333  33.96484375 14.008125  Z " fill-rule="nonzero" fill="#000000" stroke="none" transform="matrix(1 0 0 1 1879 91 )" />
  </g>
</svg>