<?xml version="1.0" encoding="utf-8"?>
<svg version="1.1" xmlns:xlink="http://www.w3.org/1999/xlink" width="29px" height="32px" xmlns="http://www.w3.org/2000/svg">
  <g transform="matrix(1 0 0 1 -2152 -210 )">
    <path d="M 18.8424479166667 20.4583333333333  C 20.0004340277778 19.2638888888889  21.3723958333333 18.6666666666667  22.9583333333333 18.6666666666667  C 24.6323784722222 18.6666666666667  26.0578342013889 19.3159722222222  27.2347005208333 20.6145833333333  C 28.4115668402778 21.9131944444444  29 23.4861111111111  29 25.3333333333333  C 29 27.1805555555556  28.4115668402778 28.7534722222222  27.2347005208333 30.0520833333333  C 26.0578342013889 31.3506944444444  24.6323784722222 32  22.9583333333333 32  C 21.2842881944444 32  19.8588324652778 31.3506944444444  18.6819661458333 30.0520833333333  C 17.5050998263889 28.7534722222222  16.9166666666667 27.1805555555556  16.9166666666667 25.3333333333333  C 16.9166666666667 25.1666666666667  16.9292534722222 24.9305555555556  16.9544270833333 24.625  L 10.1575520833333 20.875  C 8.99956597222222 22.0694444444444  7.62760416666667 22.6666666666667  6.04166666666667 22.6666666666667  C 4.36762152777778 22.6666666666667  2.94216579861111 22.0173611111111  1.76529947916667 20.71875  C 0.588433159722222 19.4201388888889  0 17.8472222222222  0 16  C 0 14.1527777777778  0.588433159722222 12.5798611111111  1.76529947916667 11.28125  C 2.94216579861111 9.98263888888889  4.36762152777778 9.33333333333333  6.04166666666667 9.33333333333333  C 7.62760416666667 9.33333333333333  8.99956597222222 9.93055555555555  10.1575520833333 11.125  L 16.9544270833333 7.375  C 16.9292534722222 7.06944444444444  16.9166666666667 6.83333333333333  16.9166666666667 6.66666666666667  C 16.9166666666667 4.81944444444444  17.5050998263889 3.24652777777778  18.6819661458333 1.94791666666667  C 19.8588324652778 0.649305555555554  21.2842881944444 0  22.9583333333333 0  C 24.6323784722222 0  26.0578342013889 0.649305555555554  27.2347005208333 1.94791666666667  C 28.4115668402778 3.24652777777778  29 4.81944444444444  29 6.66666666666667  C 29 8.51388888888889  28.4115668402778 10.0868055555556  27.2347005208333 11.3854166666667  C 26.0578342013889 12.6840277777778  24.6323784722222 13.3333333333333  22.9583333333333 13.3333333333333  C 21.3723958333333 13.3333333333333  20.0004340277778 12.7361111111111  18.8424479166667 11.5416666666667  L 12.0455729166667 15.2916666666667  C 12.0707465277778 15.5972222222222  12.0833333333333 15.8333333333333  12.0833333333333 16  C 12.0833333333333 16.1666666666667  12.0707465277778 16.4027777777778  12.0455729166667 16.7083333333333  L 18.8424479166667 20.4583333333333  Z " fill-rule="nonzero" fill="#000000" stroke="none" transform="matrix(1 0 0 1 2152 210 )" />
  </g>
</svg>