<?xml version="1.0" encoding="utf-8"?>
<svg version="1.1" xmlns:xlink="http://www.w3.org/1999/xlink" width="16px" height="13px" xmlns="http://www.w3.org/2000/svg">
  <defs>
    <mask fill="white" id="clip499">
      <path d="M 3034.5 335  C 3030.8925 335  3028 332.1075  3028 328.5  L 3028 328.5  C 3028 324.8925  3030.8925 322  3034.5 322  L 3037.5 322  C 3041.1075 322  3044 324.8925  3044 328.5  L 3044 328.5  C 3044 332.1075  3041.1075 335  3037.5 335  " fill-rule="evenodd" />
    </mask>
  </defs>
  <g transform="matrix(1 0 0 1 -3028 -322 )">
    <path d="M 3028 322  L 3044 322  L 3044 335  L 3028 335  L 3028 322  " fill-rule="nonzero" fill="#cccccc" stroke="none" mask="url(#clip499)" />
    <path d="M 3029 323  L 3043 323  L 3043 334  L 3029 334  L 3029 323  " fill-rule="nonzero" fill="#ffffff" stroke="none" mask="url(#clip499)" />
    <path d="M 3037.295 325.9  C 3036.749 325.9  3036.32 325.471  3036.32 324.925  C 3036.32 324.379  3036.749 323.95  3037.295 323.95  C 3037.841 323.95  3038.27 324.379  3038.27 324.925  C 3038.27 325.471  3037.841 325.9  3037.295 325.9  " fill-rule="nonzero" fill="#cccccc" stroke="none" mask="url(#clip499)" />
    <path d="M 3030 334  L 3030 328.5  L 3033.25 326  L 3037.8 329.125  L 3040.4 327.5  L 3043 329.125  L 3043 334  L 3030 334  " fill-rule="nonzero" fill="#169bd5" stroke="none" mask="url(#clip499)" />
  </g>
</svg>