<?xml version="1.0" encoding="utf-8"?>
<svg version="1.1" xmlns:xlink="http://www.w3.org/1999/xlink" width="16px" height="17px" xmlns="http://www.w3.org/2000/svg">
  <g transform="matrix(1 0 0 1 -412 -366 )">
    <path d="M 13.3333333333333 4.85714285714286  C 13.3333333333333 5.78683035714286  13.0590277777778 6.6469494047619  12.5104166666667 7.4375  C 12.8368055555556 7.52604166666667  13.1475694444444 7.64620535714286  13.4427083333333 7.79799107142857  C 13.7378472222222 7.94977678571429  14.046875 8.18061755952381  14.3697916666667 8.49051339285714  C 14.6927083333333 8.80040922619048  14.96875 9.16564360119048  15.1979166666667 9.58621651785714  C 15.4270833333333 10.0067894345238  15.6180555555556 10.5506882440476  15.7708333333333 11.2179129464286  C 15.9236111111111 11.8851376488095  16 12.6329985119048  16 13.4614955357143  C 16 14.4354538690476  15.6527777777778 15.2686941964286  14.9583333333333 15.9612165178571  C 14.2638888888889 16.6537388392857  13.4270833333333 17  12.4479166666667 17  L 3.55208333333333 17  C 2.57291666666667 17  1.73611111111111 16.6537388392857  1.04166666666667 15.9612165178571  C 0.347222222222222 15.2686941964286  0 14.4354538690476  0 13.4614955357143  C 0 12.6329985119048  0.0763888888888889 11.8851376488095  0.229166666666667 11.2179129464286  C 0.381944444444444 10.5506882440476  0.572916666666667 10.0067894345238  0.802083333333333 9.58621651785714  C 1.03125 9.16564360119048  1.30729166666667 8.80040922619048  1.63020833333333 8.49051339285714  C 1.953125 8.18061755952381  2.26215277777778 7.94977678571429  2.55729166666667 7.79799107142857  C 2.85243055555556 7.64620535714286  3.16319444444444 7.52604166666667  3.48958333333333 7.4375  C 2.94097222222222 6.6469494047619  2.66666666666667 5.78683035714286  2.66666666666667 4.85714285714286  C 2.66666666666667 4.19940476190476  2.80729166666667 3.57170758928571  3.08854166666667 2.97405133928571  C 3.36979166666667 2.37639508928571  3.75 1.859375  4.22916666666667 1.42299107142857  C 4.70833333333333 0.986607142857143  5.27604166666667 0.640345982142857  5.93229166666667 0.384207589285714  C 6.58854166666667 0.128069196428571  7.27777777777778 0  8 0  C 8.72222222222222 0  9.41145833333333 0.128069196428571  10.0677083333333 0.384207589285714  C 10.7239583333333 0.640345982142857  11.2916666666667 0.986607142857143  11.7708333333333 1.42299107142857  C 12.25 1.859375  12.6302083333333 2.37639508928571  12.9114583333333 2.97405133928571  C 13.1927083333333 3.57170758928571  13.3333333333333 4.19940476190476  13.3333333333333 4.85714285714286  Z M 10.828125 2.28152901785714  C 10.046875 1.57003348214286  9.10416666666667 1.21428571428571  8 1.21428571428571  C 6.89583333333333 1.21428571428571  5.953125 1.57003348214286  5.171875 2.28152901785714  C 4.390625 2.99302455357143  4 3.8515625  4 4.85714285714286  C 4 5.86272321428571  4.390625 6.72126116071429  5.171875 7.43275669642857  C 5.953125 8.14425223214286  6.89583333333333 8.5  8 8.5  C 9.10416666666667 8.5  10.046875 8.14425223214286  10.828125 7.43275669642857  C 11.609375 6.72126116071429  12 5.86272321428571  12 4.85714285714286  C 12 3.8515625  11.609375 2.99302455357143  10.828125 2.28152901785714  Z M 3.55208333333333 15.7857142857143  L 12.4479166666667 15.7857142857143  C 13.0590277777778 15.7857142857143  13.5815972222222 15.5596168154762  14.015625 15.107421875  C 14.4496527777778 14.6552269345238  14.6666666666667 14.1065848214286  14.6666666666667 13.4614955357143  C 14.6666666666667 11.949962797619  14.3940972222222 10.7578125  13.8489583333333 9.88504464285714  C 13.3038194444444 9.01227678571429  12.5208333333333 8.55375744047619  11.5 8.50948660714286  C 10.4930555555556 9.31268601190476  9.32638888888889 9.71428571428571  8 9.71428571428571  C 6.67361111111111 9.71428571428571  5.50694444444445 9.31268601190476  4.5 8.50948660714286  C 3.47916666666667 8.55375744047619  2.69618055555556 9.01227678571429  2.15104166666667 9.88504464285714  C 1.60590277777778 10.7578125  1.33333333333333 11.949962797619  1.33333333333333 13.4614955357143  C 1.33333333333333 14.1065848214286  1.55034722222222 14.6552269345238  1.984375 15.107421875  C 2.41840277777778 15.5596168154762  2.94097222222222 15.7857142857143  3.55208333333333 15.7857142857143  Z " fill-rule="nonzero" fill="#000000" stroke="none" transform="matrix(1 0 0 1 412 366 )" />
  </g>
</svg>