<?xml version="1.0" encoding="utf-8"?>
<svg version="1.1" xmlns:xlink="http://www.w3.org/1999/xlink" width="31px" height="30px" xmlns="http://www.w3.org/2000/svg">
  <g transform="matrix(1 0 0 1 -329 -2417 )">
    <path d="M 344.5 2417  C 353.18 2417  360 2423.6  360 2432  C 360 2440.4  353.18 2447  344.5 2447  C 335.82 2447  329 2440.4  329 2432  C 329 2423.6  335.82 2417  344.5 2417  Z " fill-rule="nonzero" fill="#ffffff" stroke="none" />
    <path d="M 344.5 2417.5  C 352.9 2417.5  359.5 2423.88  359.5 2432  C 359.5 2440.12  352.9 2446.5  344.5 2446.5  C 336.1 2446.5  329.5 2440.12  329.5 2432  C 329.5 2423.88  336.1 2417.5  344.5 2417.5  Z " stroke-width="1" stroke="#797979" fill="none" />
  </g>
</svg>