<?xml version="1.0" encoding="utf-8"?>
<svg version="1.1" xmlns:xlink="http://www.w3.org/1999/xlink" width="371px" height="102px" xmlns="http://www.w3.org/2000/svg">
  <g transform="matrix(1 0 0 1 -1793 -219 )">
    <path d="M 1793 219  L 2164 219  L 2164 321  L 1793 321  L 1793 219  " fill-rule="nonzero" fill="#cccccc" stroke="none" />
    <path d="M 1800 226  L 2157 226  L 2157 314  L 1800 314  L 1800 226  " fill-rule="nonzero" fill="#ffffff" stroke="none" />
    <path d="M 1993.57 249.6  C 1989.286 249.6  1985.92 246.234  1985.92 241.95  C 1985.92 237.666  1989.286 234.3  1993.57 234.3  C 1997.854 234.3  2001.22 237.666  2001.22 241.95  C 2001.22 246.234  1997.854 249.6  1993.57 249.6  " fill-rule="nonzero" fill="#cccccc" stroke="none" />
    <path d="M 1803 312  L 1803 266.35  L 1891 245.6  L 2014.2 298.308355795148  L 2084.6 258.05  L 2155 298.308355795148  L 2155 312  L 1803 312  " fill-rule="nonzero" fill="#169bd5" stroke="none" />
  </g>
</svg>