<?xml version="1.0" encoding="utf-8"?>
<svg version="1.1" xmlns:xlink="http://www.w3.org/1999/xlink" width="7px" height="5px" xmlns="http://www.w3.org/2000/svg">
  <g transform="matrix(1 0 0 1 -2080 -882 )">
    <path d="M 2083.5 882  C 2085.46 882  2087 883.1  2087 884.5  C 2087 885.9  2085.46 887  2083.5 887  C 2081.54 887  2080 885.9  2080 884.5  C 2080 883.1  2081.54 882  2083.5 882  Z " fill-rule="nonzero" fill="#ffffff" stroke="none" />
    <path d="M 2083.5 882.5  C 2085.18 882.5  2086.5 883.38  2086.5 884.5  C 2086.5 885.62  2085.18 886.5  2083.5 886.5  C 2081.82 886.5  2080.5 885.62  2080.5 884.5  C 2080.5 883.38  2081.82 882.5  2083.5 882.5  Z " stroke-width="1" stroke="#797979" fill="none" />
  </g>
</svg>