<?xml version="1.0" encoding="utf-8"?>
<svg version="1.1" xmlns:xlink="http://www.w3.org/1999/xlink" width="15px" height="13px" xmlns="http://www.w3.org/2000/svg">
  <g transform="matrix(1 0 0 1 -1122 -505 )">
    <path d="M 14.4951923076923 4.66099558916194  C 14.8317307692308 4.71014492753623  15 4.83574879227053  15 5.03780718336484  C 15 5.15795001050199  14.921875 5.28901491283344  14.765625 5.43100189035917  L 11.4933894230769 8.33081285444234  L 12.2686298076923 12.4265910522999  C 12.2746394230769 12.4648183154799  12.2776442307692 12.5194286914514  12.2776442307692 12.5904221802142  C 12.2776442307692 12.7051039697543  12.24609375 12.8020373871035  12.1829927884615 12.8812224322621  C 12.1198918269231 12.9604074774207  12.0282451923077 13  11.9080528846154 13  C 11.7938701923077 13  11.6736778846154 12.9672337744171  11.5474759615385 12.9017013232514  L 7.5 10.9684940138626  L 3.45252403846154 12.9017013232514  C 3.3203125 12.9672337744171  3.20012019230769 13  3.09194711538462 13  C 2.96574519230769 13  2.87109375 12.9604074774207  2.80799278846154 12.8812224322621  C 2.74489182692308 12.8020373871035  2.71334134615385 12.7051039697543  2.71334134615385 12.5904221802142  C 2.71334134615385 12.5576559546314  2.71935096153846 12.5030455786599  2.73137019230769 12.4265910522999  L 3.50661057692308 8.33081285444234  L 0.225360576923077 5.43100189035917  C 0.0751201923076923 5.28355387523629  0 5.15248897290485  0 5.03780718336484  C 0 4.83574879227053  0.168269230769231 4.71014492753623  0.504807692307692 4.66099558916194  L 5.03004807692308 4.06301197227473  L 7.05829326923077 0.335853812224322  C 7.17247596153846 0.11195127074144  7.31971153846154 0  7.5 0  C 7.68028846153846 0  7.82752403846154 0.11195127074144  7.94170673076923 0.335853812224322  L 9.96995192307692 4.06301197227473  L 14.4951923076923 4.66099558916194  Z " fill-rule="nonzero" fill="#000000" stroke="none" transform="matrix(1 0 0 1 1122 505 )" />
  </g>
</svg>