<?xml version="1.0" encoding="utf-8"?>
<svg version="1.1" xmlns:xlink="http://www.w3.org/1999/xlink" width="7px" height="4px" xmlns="http://www.w3.org/2000/svg">
  <g transform="matrix(1 0 0 1 -2077 -1008 )">
    <path d="M 2080.5 1008  C 2082.46 1008  2084 1008.88  2084 1010  C 2084 1011.12  2082.46 1012  2080.5 1012  C 2078.54 1012  2077 1011.12  2077 1010  C 2077 1008.88  2078.54 1008  2080.5 1008  Z " fill-rule="nonzero" fill="#6300bf" stroke="none" />
    <path d="M 2080.5 1008.5  C 2082.18 1008.5  2083.5 1009.16  2083.5 1010  C 2083.5 1010.84  2082.18 1011.5  2080.5 1011.5  C 2078.82 1011.5  2077.5 1010.84  2077.5 1010  C 2077.5 1009.16  2078.82 1008.5  2080.5 1008.5  Z " stroke-width="1" stroke="#797979" fill="none" />
  </g>
</svg>