<?xml version="1.0" encoding="utf-8"?>
<svg version="1.1" xmlns:xlink="http://www.w3.org/1999/xlink" width="20px" height="15px" xmlns="http://www.w3.org/2000/svg">
  <g transform="matrix(1 0 0 1 -918 -398 )">
    <path d="M 19.3269230769231 5.37807183364839  C 19.775641025641 5.43478260869565  20 5.57971014492754  20 5.81285444234405  C 20 5.95148078134846  19.8958333333333 6.10270951480781  19.6875 6.26654064272212  L 15.3245192307692 9.6124763705104  L 16.3581730769231 14.3383742911153  C 16.3661858974359 14.3824826717076  16.3701923076923 14.4454946439824  16.3701923076923 14.5274102079395  C 16.3701923076923 14.6597353497164  16.328125 14.7715816005041  16.2439903846154 14.8629489603025  C 16.1598557692308 14.9543163201008  16.0376602564103 15  15.8774038461538 15  C 15.7251602564103 15  15.5649038461538 14.9621928166352  15.3966346153846 14.8865784499055  L 10 12.65595463138  L 4.60336538461538 14.8865784499055  C 4.42708333333333 14.9621928166352  4.26682692307692 15  4.12259615384615 15  C 3.95432692307692 15  3.828125 14.9543163201008  3.74399038461538 14.8629489603025  C 3.65985576923077 14.7715816005041  3.61778846153846 14.6597353497164  3.61778846153846 14.5274102079395  C 3.61778846153846 14.4896030245747  3.62580128205128 14.4265910522999  3.64182692307692 14.3383742911153  L 4.67548076923077 9.6124763705104  L 0.300480769230769 6.26654064272212  C 0.100160256410256 6.09640831758034  0 5.94517958412098  0 5.81285444234405  C 0 5.57971014492754  0.224358974358974 5.43478260869565  0.673076923076923 5.37807183364839  L 6.70673076923077 4.68809073724008  L 9.41105769230769 0.387523629489602  C 9.56330128205128 0.1291745431632  9.75961538461539 0  10 0  C 10.2403846153846 0  10.4366987179487 0.1291745431632  10.5889423076923 0.387523629489602  L 13.2932692307692 4.68809073724008  L 19.3269230769231 5.37807183364839  Z " fill-rule="nonzero" fill="#000000" stroke="none" transform="matrix(1 0 0 1 918 398 )" />
  </g>
</svg>