<?xml version="1.0" encoding="utf-8"?>
<svg version="1.1" xmlns:xlink="http://www.w3.org/1999/xlink" width="7px" height="4px" xmlns="http://www.w3.org/2000/svg">
  <g transform="matrix(1 0 0 1 -2067 -1008 )">
    <path d="M 2070.5 1008  C 2072.46 1008  2074 1008.88  2074 1010  C 2074 1011.12  2072.46 1012  2070.5 1012  C 2068.54 1012  2067 1011.12  2067 1010  C 2067 1008.88  2068.54 1008  2070.5 1008  Z " fill-rule="nonzero" fill="#ffffff" stroke="none" />
    <path d="M 2070.5 1008.5  C 2072.18 1008.5  2073.5 1009.16  2073.5 1010  C 2073.5 1010.84  2072.18 1011.5  2070.5 1011.5  C 2068.82 1011.5  2067.5 1010.84  2067.5 1010  C 2067.5 1009.16  2068.82 1008.5  2070.5 1008.5  Z " stroke-width="1" stroke="#797979" fill="none" />
  </g>
</svg>