<?xml version="1.0" encoding="utf-8"?>
<svg version="1.1" xmlns:xlink="http://www.w3.org/1999/xlink" width="7px" height="5px" xmlns="http://www.w3.org/2000/svg">
  <g transform="matrix(1 0 0 1 -2072 -882 )">
    <path d="M 2075.5 882  C 2077.46 882  2079 883.1  2079 884.5  C 2079 885.9  2077.46 887  2075.5 887  C 2073.54 887  2072 885.9  2072 884.5  C 2072 883.1  2073.54 882  2075.5 882  Z " fill-rule="nonzero" fill="#6300bf" stroke="none" />
    <path d="M 2075.5 882.5  C 2077.18 882.5  2078.5 883.38  2078.5 884.5  C 2078.5 885.62  2077.18 886.5  2075.5 886.5  C 2073.82 886.5  2072.5 885.62  2072.5 884.5  C 2072.5 883.38  2073.82 882.5  2075.5 882.5  Z " stroke-width="1" stroke="#797979" fill="none" />
  </g>
</svg>