<?xml version="1.0" encoding="utf-8"?>
<svg version="1.1" xmlns:xlink="http://www.w3.org/1999/xlink" width="20px" height="18px" xmlns="http://www.w3.org/2000/svg">
  <g transform="matrix(1 0 0 1 -546 -587 )">
    <path d="M 19.3269230769231 6.45368620037807  C 19.775641025641 6.52173913043478  20 6.69565217391304  20 6.97542533081285  C 20 7.14177693761815  19.8958333333333 7.32325141776937  19.6875 7.51984877126654  L 15.3245192307692 11.5349716446125  L 16.3581730769231 17.2060491493384  C 16.3661858974359 17.2589792060492  16.3701923076923 17.3345935727788  16.3701923076923 17.4328922495274  C 16.3701923076923 17.5916824196597  16.328125 17.7258979206049  16.2439903846154 17.8355387523629  C 16.1598557692308 17.945179584121  16.0376602564103 18  15.8774038461538 18  C 15.7251602564103 18  15.5649038461538 17.9546313799622  15.3966346153846 17.8638941398866  L 10 15.187145557656  L 4.60336538461538 17.8638941398866  C 4.42708333333333 17.9546313799622  4.26682692307692 18  4.12259615384615 18  C 3.95432692307692 18  3.828125 17.945179584121  3.74399038461538 17.8355387523629  C 3.65985576923077 17.7258979206049  3.61778846153846 17.5916824196597  3.61778846153846 17.4328922495274  C 3.61778846153846 17.3875236294896  3.62580128205128 17.3119092627599  3.64182692307692 17.2060491493384  L 4.67548076923077 11.5349716446125  L 0.300480769230769 7.51984877126654  C 0.100160256410256 7.31568998109641  0 7.13421550094518  0 6.97542533081285  C 0 6.69565217391304  0.224358974358974 6.52173913043478  0.673076923076923 6.45368620037807  L 6.70673076923077 5.62570888468809  L 9.41105769230769 0.465028355387523  C 9.56330128205128 0.15500945179584  9.75961538461539 0  10 0  C 10.2403846153846 0  10.4366987179487 0.15500945179584  10.5889423076923 0.465028355387523  L 13.2932692307692 5.62570888468809  L 19.3269230769231 6.45368620037807  Z " fill-rule="nonzero" fill="#000000" stroke="none" transform="matrix(1 0 0 1 546 587 )" />
  </g>
</svg>