<?xml version="1.0" encoding="utf-8"?>
<svg version="1.1" xmlns:xlink="http://www.w3.org/1999/xlink" width="432px" height="10px" preserveAspectRatio="xMinYMid meet" viewBox="1515 126  432 8" xmlns="http://www.w3.org/2000/svg">
  <path d="M 278 168  L 1520 168  L 1520 130  L 1942 130  L 1942 141  " stroke-width="2" stroke-dasharray="6,2" stroke="#70b603" fill="none" />
  <path d="M 275.5 164.5  A 3.5 3.5 0 0 0 272 168 A 3.5 3.5 0 0 0 275.5 171.5 A 3.5 3.5 0 0 0 279 168 A 3.5 3.5 0 0 0 275.5 164.5 Z M 275.5 166.5  A 1.5 1.5 0 0 1 277 168 A 1.5 1.5 0 0 1 275.5 169.5 A 1.5 1.5 0 0 1 274 168 A 1.5 1.5 0 0 1 275.5 166.5 Z M 1934.4 140  L 1942 147  L 1949.6 140  L 1934.4 140  Z M 1939.2 142  L 1944.8 142  L 1942 144  L 1939.2 142  Z " fill-rule="nonzero" fill="#70b603" stroke="none" />
</svg>