<?xml version="1.0" encoding="utf-8"?>
<svg version="1.1" xmlns:xlink="http://www.w3.org/1999/xlink" width="15px" height="18px" xmlns="http://www.w3.org/2000/svg">
  <g transform="matrix(1 0 0 1 -1710 -303 )">
    <path d="M 5.35866477272727 14.89453125  C 5.42258522727273 14.82421875  5.45454545454546 14.734375  5.45454545454546 14.625  L 5.45454545454546 6.375  C 5.45454545454546 6.265625  5.42258522727273 6.17578125  5.35866477272727 6.10546875  C 5.29474431818182 6.03515625  5.21306818181818 6  5.11363636363636 6  L 4.43181818181818 6  C 4.33238636363636 6  4.25071022727273 6.03515625  4.18678977272727 6.10546875  C 4.12286931818182 6.17578125  4.09090909090909 6.265625  4.09090909090909 6.375  L 4.09090909090909 14.625  C 4.09090909090909 14.734375  4.12286931818182 14.82421875  4.18678977272727 14.89453125  C 4.25071022727273 14.96484375  4.33238636363636 15  4.43181818181818 15  L 5.11363636363636 15  C 5.21306818181818 15  5.29474431818182 14.96484375  5.35866477272727 14.89453125  Z M 8.0859375 14.89453125  C 8.14985795454546 14.82421875  8.18181818181818 14.734375  8.18181818181818 14.625  L 8.18181818181818 6.375  C 8.18181818181818 6.265625  8.14985795454546 6.17578125  8.0859375 6.10546875  C 8.02201704545454 6.03515625  7.94034090909091 6  7.84090909090909 6  L 7.15909090909091 6  C 7.05965909090909 6  6.97798295454546 6.03515625  6.9140625 6.10546875  C 6.85014204545454 6.17578125  6.81818181818182 6.265625  6.81818181818182 6.375  L 6.81818181818182 14.625  C 6.81818181818182 14.734375  6.85014204545454 14.82421875  6.9140625 14.89453125  C 6.97798295454546 14.96484375  7.05965909090909 15  7.15909090909091 15  L 7.84090909090909 15  C 7.94034090909091 15  8.02201704545454 14.96484375  8.0859375 14.89453125  Z M 10.8132102272727 14.89453125  C 10.8771306818182 14.82421875  10.9090909090909 14.734375  10.9090909090909 14.625  L 10.9090909090909 6.375  C 10.9090909090909 6.265625  10.8771306818182 6.17578125  10.8132102272727 6.10546875  C 10.7492897727273 6.03515625  10.6676136363636 6  10.5681818181818 6  L 9.88636363636364 6  C 9.78693181818182 6  9.70525568181818 6.03515625  9.64133522727273 6.10546875  C 9.57741477272727 6.17578125  9.54545454545454 6.265625  9.54545454545454 6.375  L 9.54545454545454 14.625  C 9.54545454545454 14.734375  9.57741477272727 14.82421875  9.64133522727273 14.89453125  C 9.70525568181818 14.96484375  9.78693181818182 15  9.88636363636364 15  L 10.5681818181818 15  C 10.6676136363636 15  10.7492897727273 14.96484375  10.8132102272727 14.89453125  Z M 5.63565340909091 1.62890625  L 5.11363636363636 3  L 9.88636363636364 3  L 9.375 1.62890625  C 9.32528409090909 1.55859375  9.26491477272727 1.515625  9.19389204545454 1.5  L 5.81676136363636 1.5  C 5.74573863636364 1.515625  5.68536931818182 1.55859375  5.63565340909091 1.62890625  Z M 14.9041193181818 3.10546875  C 14.9680397727273 3.17578125  15 3.265625  15 3.375  L 15 4.125  C 15 4.234375  14.9680397727273 4.32421875  14.9041193181818 4.39453125  C 14.8401988636364 4.46484375  14.7585227272727 4.5  14.6590909090909 4.5  L 13.6363636363636 4.5  L 13.6363636363636 15.609375  C 13.6363636363636 16.2578125  13.4694602272727 16.818359375  13.1356534090909 17.291015625  C 12.8018465909091 17.763671875  12.4005681818182 18  11.9318181818182 18  L 3.06818181818182 18  C 2.59943181818182 18  2.19815340909091 17.771484375  1.86434659090909 17.314453125  C 1.53053977272727 16.857421875  1.36363636363636 16.3046875  1.36363636363636 15.65625  L 1.36363636363636 4.5  L 0.340909090909091 4.5  C 0.241477272727273 4.5  0.159801136363636 4.46484375  0.0958806818181818 4.39453125  C 0.0319602272727273 4.32421875  0 4.234375  0 4.125  L 0 3.375  C 0 3.265625  0.0319602272727273 3.17578125  0.0958806818181818 3.10546875  C 0.159801136363636 3.03515625  0.241477272727273 3  0.340909090909091 3  L 3.6328125 3  L 4.37855113636364 1.04296875  C 4.48508522727273 0.753906249999998  4.67684659090909 0.507812499999998  4.95383522727273 0.304687500000001  C 5.23082386363636 0.101562499999999  5.51136363636364 0  5.79545454545454 0  L 9.20454545454546 0  C 9.48863636363637 0  9.76917613636364 0.101562499999999  10.0461647727273 0.304687500000001  C 10.3231534090909 0.507812499999998  10.5149147727273 0.753906249999998  10.6214488636364 1.04296875  L 11.3671875 3  L 14.6590909090909 3  C 14.7585227272727 3  14.8401988636364 3.03515625  14.9041193181818 3.10546875  Z " fill-rule="nonzero" fill="#000000" stroke="none" transform="matrix(1 0 0 1 1710 303 )" />
  </g>
</svg>