<?xml version="1.0" encoding="utf-8"?>
<svg version="1.1" xmlns:xlink="http://www.w3.org/1999/xlink" width="97px" height="83px" xmlns="http://www.w3.org/2000/svg">
  <g transform="matrix(1 0 0 1 -1628 -303 )">
    <path d="M 1628 303  L 1725 303  L 1725 386  L 1628 386  L 1628 303  " fill-rule="nonzero" fill="#cccccc" stroke="none" />
    <path d="M 1634 309  L 1719 309  L 1719 380  L 1634 380  L 1634 309  " fill-rule="nonzero" fill="#ffffff" stroke="none" />
    <path d="M 1684.665 327.9  C 1681.179 327.9  1678.44 325.161  1678.44 321.675  C 1678.44 318.189  1681.179 315.45  1684.665 315.45  C 1688.151 315.45  1690.89 318.189  1690.89 321.675  C 1690.89 325.161  1688.151 327.9  1684.665 327.9  " fill-rule="nonzero" fill="#cccccc" stroke="none" />
    <path d="M 1636 378  L 1636 341.15  L 1656.25 324.4  L 1684.6 343.60206185567  L 1700.8 334.45  L 1717 343.60206185567  L 1717 378  L 1636 378  " fill-rule="nonzero" fill="#169bd5" stroke="none" />
  </g>
</svg>