<?xml version="1.0" encoding="utf-8"?>
<svg version="1.1" xmlns:xlink="http://www.w3.org/1999/xlink" width="20px" height="20px" preserveAspectRatio="xMinYMid meet" viewBox="1516 536  20 18" xmlns="http://www.w3.org/2000/svg">
  <path d="M 1263 305  L 1263 545  L 1525 545  " stroke-width="2" stroke-dasharray="18,8" stroke="#70b603" fill="none" />
  <path d="M 1263 299  A 3.5 3.5 0 0 0 1259.5 302.5 A 3.5 3.5 0 0 0 1263 306 A 3.5 3.5 0 0 0 1266.5 302.5 A 3.5 3.5 0 0 0 1263 299 Z M 1263 301  A 1.5 1.5 0 0 1 1264.5 302.5 A 1.5 1.5 0 0 1 1263 304 A 1.5 1.5 0 0 1 1261.5 302.5 A 1.5 1.5 0 0 1 1263 301 Z M 1524 552.6  L 1531 545  L 1524 537.4  L 1524 552.6  Z M 1526 547.8  L 1526 542.2  L 1528 545  L 1526 547.8  Z " fill-rule="nonzero" fill="#70b603" stroke="none" />
</svg>