<?xml version="1.0" encoding="utf-8"?>
<svg version="1.1" xmlns:xlink="http://www.w3.org/1999/xlink" width="10px" height="24px" preserveAspectRatio="xMidYMin meet" viewBox="1116 721  8 24" xmlns="http://www.w3.org/2000/svg">
  <path d="M 24 406  L 10 406  L 10 740  L 1120 740  L 1120 727  " stroke-width="2" stroke-dasharray="6,2" stroke="#70b603" fill="none" />
  <path d="M 26.5 402.5  A 3.5 3.5 0 0 0 23 406 A 3.5 3.5 0 0 0 26.5 409.5 A 3.5 3.5 0 0 0 30 406 A 3.5 3.5 0 0 0 26.5 402.5 Z M 26.5 404.5  A 1.5 1.5 0 0 1 28 406 A 1.5 1.5 0 0 1 26.5 407.5 A 1.5 1.5 0 0 1 25 406 A 1.5 1.5 0 0 1 26.5 404.5 Z M 1127.6 728  L 1120 721  L 1112.4 728  L 1127.6 728  Z M 1122.8 726  L 1117.2 726  L 1120 724  L 1122.8 726  Z " fill-rule="nonzero" fill="#70b603" stroke="none" />
</svg>