<?xml version="1.0" encoding="utf-8"?>
<svg version="1.1" xmlns:xlink="http://www.w3.org/1999/xlink" width="12px" height="12px" viewBox="614 1684  12 12" xmlns="http://www.w3.org/2000/svg">
  <path d="M 620 1684  C 623.36 1684  626 1686.64  626 1690  C 626 1693.36  623.36 1696  620 1696  C 616.64 1696  614 1693.36  614 1690  C 614 1686.64  616.64 1684  620 1684  Z " fill-rule="nonzero" fill="#f0f0f0" stroke="none" />
  <path d="M 620 1684.5  C 623.08 1684.5  625.5 1686.92  625.5 1690  C 625.5 1693.08  623.08 1695.5  620 1695.5  C 616.92 1695.5  614.5 1693.08  614.5 1690  C 614.5 1686.92  616.92 1684.5  620 1684.5  Z " stroke-width="1" stroke="#797979" fill="none" />
  <path d="M 620 1693  C 618.32 1693  617 1691.68  617 1690  C 617 1688.32  618.32 1687  620 1687  C 621.68 1687  623 1688.32  623 1690  C 623 1691.68  621.68 1693  620 1693  " fill-rule="nonzero" fill="#797979" stroke="none" />
</svg>