<?xml version="1.0" encoding="utf-8"?>
<svg version="1.1" xmlns:xlink="http://www.w3.org/1999/xlink" width="335px" height="128px" xmlns="http://www.w3.org/2000/svg">
  <g transform="matrix(1 0 0 1 -498 -914 )">
    <path d="M 498 914  L 833 914  L 833 1042  L 498 1042  L 498 914  " fill-rule="nonzero" fill="#cccccc" stroke="none" />
    <path d="M 507 923  L 824 923  L 824 1033  L 507 1033  L 507 923  " fill-rule="nonzero" fill="#ffffff" stroke="none" />
    <path d="M 681.8 952.4  C 676.424 952.4  672.2 948.176  672.2 942.8  C 672.2 937.424  676.424 933.2  681.8 933.2  C 687.176 933.2  691.4 937.424  691.4 942.8  C 691.4 948.176  687.176 952.4  681.8 952.4  " fill-rule="nonzero" fill="#cccccc" stroke="none" />
    <path d="M 510 1030  L 510 972.8  L 587.75 946.8  L 696.6 1006.1576119403  L 758.8 962.4  L 821 1006.1576119403  L 821 1030  L 510 1030  " fill-rule="nonzero" fill="#169bd5" stroke="none" />
  </g>
</svg>