<?xml version="1.0" encoding="utf-8"?>
<svg version="1.1" xmlns:xlink="http://www.w3.org/1999/xlink" width="10px" height="10px" xmlns="http://www.w3.org/2000/svg">
  <g transform="matrix(1 0 0 1 -484 -377 )">
    <path d="M 489 377  C 491.8 377  494 379.2  494 382  C 494 384.8  491.8 387  489 387  C 486.2 387  484 384.8  484 382  C 484 379.2  486.2 377  489 377  Z " fill-rule="nonzero" fill="#70b603" stroke="none" />
    <path d="M 489 377.5  C 491.52 377.5  493.5 379.48  493.5 382  C 493.5 384.52  491.52 386.5  489 386.5  C 486.48 386.5  484.5 384.52  484.5 382  C 484.5 379.48  486.48 377.5  489 377.5  Z " stroke-width="1" stroke="#797979" fill="none" />
  </g>
</svg>