<?xml version="1.0" encoding="utf-8"?>
<svg version="1.1" xmlns:xlink="http://www.w3.org/1999/xlink" width="10px" height="10px" xmlns="http://www.w3.org/2000/svg">
  <g transform="matrix(1 0 0 1 -481 -339 )">
    <path d="M 486 339  C 488.8 339  491 341.2  491 344  C 491 346.8  488.8 349  486 349  C 483.2 349  481 346.8  481 344  C 481 341.2  483.2 339  486 339  Z " fill-rule="nonzero" fill="#70b603" stroke="none" />
    <path d="M 486 339.5  C 488.52 339.5  490.5 341.48  490.5 344  C 490.5 346.52  488.52 348.5  486 348.5  C 483.48 348.5  481.5 346.52  481.5 344  C 481.5 341.48  483.48 339.5  486 339.5  Z " stroke-width="1" stroke="#797979" fill="none" />
  </g>
</svg>