<?xml version="1.0" encoding="utf-8"?>
<svg version="1.1" xmlns:xlink="http://www.w3.org/1999/xlink" width="10px" height="10px" xmlns="http://www.w3.org/2000/svg">
  <g transform="matrix(1 0 0 1 -481 -320 )">
    <path d="M 486 320  C 488.8 320  491 322.2  491 325  C 491 327.8  488.8 330  486 330  C 483.2 330  481 327.8  481 325  C 481 322.2  483.2 320  486 320  Z " fill-rule="nonzero" fill="#02a7f0" stroke="none" />
    <path d="M 486 320.5  C 488.52 320.5  490.5 322.48  490.5 325  C 490.5 327.52  488.52 329.5  486 329.5  C 483.48 329.5  481.5 327.52  481.5 325  C 481.5 322.48  483.48 320.5  486 320.5  Z " stroke-width="1" stroke="#797979" fill="none" />
  </g>
</svg>