<?xml version="1.0" encoding="utf-8"?>
<svg version="1.1" xmlns:xlink="http://www.w3.org/1999/xlink" width="10px" height="10px" xmlns="http://www.w3.org/2000/svg">
  <g transform="matrix(1 0 0 1 -481 -302 )">
    <path d="M 486 302  C 488.8 302  491 304.2  491 307  C 491 309.8  488.8 312  486 312  C 483.2 312  481 309.8  481 307  C 481 304.2  483.2 302  486 302  Z " fill-rule="nonzero" fill="#d9001b" stroke="none" />
    <path d="M 486 302.5  C 488.52 302.5  490.5 304.48  490.5 307  C 490.5 309.52  488.52 311.5  486 311.5  C 483.48 311.5  481.5 309.52  481.5 307  C 481.5 304.48  483.48 302.5  486 302.5  Z " stroke-width="1" stroke="#797979" fill="none" />
  </g>
</svg>