<?xml version="1.0" encoding="utf-8"?>
<svg version="1.1" xmlns:xlink="http://www.w3.org/1999/xlink" width="57px" height="50px" xmlns="http://www.w3.org/2000/svg">
  <g transform="matrix(1 0 0 1 -2498 -287 )">
    <path d="M 2498 287  L 2555 287  L 2555 337  L 2498 337  L 2498 287  " fill-rule="nonzero" fill="#cccccc" stroke="none" />
    <path d="M 2502 291  L 2551 291  L 2551 333  L 2502 333  L 2502 291  " fill-rule="nonzero" fill="#ffffff" stroke="none" />
    <path d="M 2531.39 302  C 2529.29 302  2527.64 300.35  2527.64 298.25  C 2527.64 296.15  2529.29 294.5  2531.39 294.5  C 2533.49 294.5  2535.14 296.15  2535.14 298.25  C 2535.14 300.35  2533.49 302  2531.39 302  " fill-rule="nonzero" fill="#cccccc" stroke="none" />
    <path d="M 2504 332  L 2504 310.55  L 2515.5 300.8  L 2531.6 311.473684210526  L 2540.8 306.65  L 2550 311.473684210526  L 2550 332  L 2504 332  " fill-rule="nonzero" fill="#169bd5" stroke="none" />
  </g>
</svg>