<?xml version="1.0" encoding="utf-8"?>
<svg version="1.1" xmlns:xlink="http://www.w3.org/1999/xlink" width="16px" height="13px" xmlns="http://www.w3.org/2000/svg">
  <defs>
    <mask fill="white" id="clip167">
      <path d="M 2567.5 304  C 2563.8925 304  2561 301.1075  2561 297.5  L 2561 297.5  C 2561 293.8925  2563.8925 291  2567.5 291  L 2570.5 291  C 2574.1075 291  2577 293.8925  2577 297.5  L 2577 297.5  C 2577 301.1075  2574.1075 304  2570.5 304  " fill-rule="evenodd" />
    </mask>
  </defs>
  <g transform="matrix(1 0 0 1 -2561 -291 )">
    <path d="M 2561 291  L 2577 291  L 2577 304  L 2561 304  L 2561 291  " fill-rule="nonzero" fill="#cccccc" stroke="none" mask="url(#clip167)" />
    <path d="M 2562 292  L 2576 292  L 2576 303  L 2562 303  L 2562 292  " fill-rule="nonzero" fill="#ffffff" stroke="none" mask="url(#clip167)" />
    <path d="M 2570.295 294.9  C 2569.749 294.9  2569.32 294.471  2569.32 293.925  C 2569.32 293.379  2569.749 292.95  2570.295 292.95  C 2570.841 292.95  2571.27 293.379  2571.27 293.925  C 2571.27 294.471  2570.841 294.9  2570.295 294.9  " fill-rule="nonzero" fill="#cccccc" stroke="none" mask="url(#clip167)" />
    <path d="M 2563 303  L 2563 297.5  L 2566.25 295  L 2570.8 298.125  L 2573.4 296.5  L 2576 298.125  L 2576 303  L 2563 303  " fill-rule="nonzero" fill="#169bd5" stroke="none" mask="url(#clip167)" />
  </g>
</svg>