<?xml version="1.0" encoding="utf-8"?>
<svg version="1.1" xmlns:xlink="http://www.w3.org/1999/xlink" width="19px" height="18px" xmlns="http://www.w3.org/2000/svg">
  <g transform="matrix(1 0 0 1 -2542 -278 )">
    <path d="M 2551.5 278  C 2556.82 278  2561 281.96  2561 287  C 2561 292.04  2556.82 296  2551.5 296  C 2546.18 296  2542 292.04  2542 287  C 2542 281.96  2546.18 278  2551.5 278  Z " fill-rule="nonzero" fill="#ffffff" stroke="none" />
    <path d="M 2551.5 278.5  C 2556.54 278.5  2560.5 282.24  2560.5 287  C 2560.5 291.76  2556.54 295.5  2551.5 295.5  C 2546.46 295.5  2542.5 291.76  2542.5 287  C 2542.5 282.24  2546.46 278.5  2551.5 278.5  Z " stroke-width="1" stroke="#797979" fill="none" />
  </g>
</svg>