<?xml version="1.0" encoding="utf-8"?>
<svg version="1.1" xmlns:xlink="http://www.w3.org/1999/xlink" width="12px" height="15px" xmlns="http://www.w3.org/2000/svg">
  <g transform="matrix(1 0 0 1 -2828 -246 )">
    <path d="M 11.7938144329897 0.901803607214428  C 11.9312714776632 1.00200400801603  12 1.11723446893787  12 1.24749498997996  C 12 1.37775551102204  11.9312714776632 1.49298597194389  11.7938144329897 1.59318637274549  L 3.69072164948454 7.5  L 11.7938144329897 13.4068136272545  C 11.9312714776632 13.5070140280561  12 13.622244488978  12 13.75250501002  C 12 13.8827655310621  11.9312714776632 13.997995991984  11.7938144329897 14.0981963927856  L 10.7628865979381 14.8496993987976  C 10.6254295532646 14.9498997995992  10.46735395189 15  10.2886597938144 15  C 10.1099656357388 15  9.95189003436426 14.9498997995992  9.81443298969072 14.8496993987976  L 0.206185567010309 7.84569138276553  C 0.0687285223367698 7.74549098196393  0 7.63026052104208  0 7.5  C 0 7.36973947895792  0.0687285223367698 7.25450901803607  0.206185567010309 7.15430861723447  L 9.81443298969072 0.150300601202405  C 9.95189003436426 0.0501002004008011  10.1099656357388 0  10.2886597938144 0  C 10.46735395189 0  10.6254295532646 0.0501002004008011  10.7628865979381 0.150300601202405  L 11.7938144329897 0.901803607214428  Z " fill-rule="nonzero" fill="#000000" stroke="none" transform="matrix(1 0 0 1 2828 246 )" />
  </g>
</svg>