<?xml version="1.0" encoding="utf-8"?>
<svg version="1.1" xmlns:xlink="http://www.w3.org/1999/xlink" width="108px" height="94px" xmlns="http://www.w3.org/2000/svg">
  <g transform="matrix(1 0 0 1 -545 -2825 )">
    <path d="M 545 2825  L 653 2825  L 653 2919  L 545 2919  L 545 2825  " fill-rule="nonzero" fill="#cccccc" stroke="none" />
    <path d="M 552 2832  L 646 2832  L 646 2912  L 552 2912  L 552 2832  " fill-rule="nonzero" fill="#ffffff" stroke="none" />
    <path d="M 608.21 2853.2  C 604.262 2853.2  601.16 2850.098  601.16 2846.15  C 601.16 2842.202  604.262 2839.1  608.21 2839.1  C 612.158 2839.1  615.26 2842.202  615.26 2846.15  C 615.26 2850.098  612.158 2853.2  608.21 2853.2  " fill-rule="nonzero" fill="#cccccc" stroke="none" />
    <path d="M 555 2910  L 555 2868.75  L 577.25 2850  L 608.4 2870.83333333333  L 626.2 2861.25  L 644 2870.83333333333  L 644 2910  L 555 2910  " fill-rule="nonzero" fill="#169bd5" stroke="none" />
  </g>
</svg>