<?xml version="1.0" encoding="utf-8"?>
<svg version="1.1" xmlns:xlink="http://www.w3.org/1999/xlink" width="57px" height="50px" xmlns="http://www.w3.org/2000/svg">
  <g transform="matrix(1 0 0 1 -2581 -308 )">
    <path d="M 2581 308  L 2638 308  L 2638 358  L 2581 358  L 2581 308  " fill-rule="nonzero" fill="#cccccc" stroke="none" />
    <path d="M 2585 312  L 2634 312  L 2634 354  L 2585 354  L 2585 312  " fill-rule="nonzero" fill="#ffffff" stroke="none" />
    <path d="M 2614.39 323  C 2612.29 323  2610.64 321.35  2610.64 319.25  C 2610.64 317.15  2612.29 315.5  2614.39 315.5  C 2616.49 315.5  2618.14 317.15  2618.14 319.25  C 2618.14 321.35  2616.49 323  2614.39 323  " fill-rule="nonzero" fill="#cccccc" stroke="none" />
    <path d="M 2587 353  L 2587 331.55  L 2598.5 321.8  L 2614.6 332.473684210526  L 2623.8 327.65  L 2633 332.473684210526  L 2633 353  L 2587 353  " fill-rule="nonzero" fill="#169bd5" stroke="none" />
  </g>
</svg>