<?xml version="1.0" encoding="utf-8"?>
<svg version="1.1" xmlns:xlink="http://www.w3.org/1999/xlink" width="108px" height="94px" xmlns="http://www.w3.org/2000/svg">
  <g transform="matrix(1 0 0 1 -2201 -1041 )">
    <path d="M 2201 1041  L 2309 1041  L 2309 1135  L 2201 1135  L 2201 1041  " fill-rule="nonzero" fill="#cccccc" stroke="none" />
    <path d="M 2208 1048  L 2302 1048  L 2302 1128  L 2208 1128  L 2208 1048  " fill-rule="nonzero" fill="#ffffff" stroke="none" />
    <path d="M 2264.21 1069.2  C 2260.262 1069.2  2257.16 1066.098  2257.16 1062.15  C 2257.16 1058.202  2260.262 1055.1  2264.21 1055.1  C 2268.158 1055.1  2271.26 1058.202  2271.26 1062.15  C 2271.26 1066.098  2268.158 1069.2  2264.21 1069.2  " fill-rule="nonzero" fill="#cccccc" stroke="none" />
    <path d="M 2211 1126  L 2211 1084.75  L 2233.25 1066  L 2264.4 1086.83333333333  L 2282.2 1077.25  L 2300 1086.83333333333  L 2300 1126  L 2211 1126  " fill-rule="nonzero" fill="#169bd5" stroke="none" />
  </g>
</svg>