<?xml version="1.0" encoding="utf-8"?>
<svg version="1.1" xmlns:xlink="http://www.w3.org/1999/xlink" width="26px" height="27px" xmlns="http://www.w3.org/2000/svg">
  <g transform="matrix(1 0 0 1 -2275 -1041 )">
    <path d="M 9.28835227272727 22.341796875  C 9.39914772727273 22.236328125  9.45454545454546 22.1015625  9.45454545454546 21.9375  L 9.45454545454546 9.5625  C 9.45454545454546 9.3984375  9.39914772727273 9.263671875  9.28835227272727 9.158203125  C 9.17755681818182 9.052734375  9.03598484848485 9  8.86363636363636 9  L 7.68181818181818 9  C 7.5094696969697 9  7.36789772727273 9.052734375  7.25710227272727 9.158203125  C 7.14630681818182 9.263671875  7.09090909090909 9.3984375  7 9.5625  L 7 21.9375  C 7.09090909090909 22.1015625  7.14630681818182 22.236328125  7.25710227272727 22.341796875  C 7.36789772727273 22.447265625  7.5094696969697 22.5  7.68181818181818 22.5  L 8.86363636363636 22.5  C 9.03598484848485 22.5  9.17755681818182 22.447265625  9.28835227272727 22.341796875  Z M 14.015625 22.341796875  C 14.1264204545455 22.236328125  14.1818181818182 22.1015625  14 21.9375  L 14 9.5625  C 14.1818181818182 9.3984375  14.1264204545455 9.263671875  14.015625 9.158203125  C 13.9048295454545 9.052734375  13.7632575757576 9  13.5909090909091 9  L 12.4090909090909 9  C 12.2367424242424 9  12.0951704545455 9.052734375  11.984375 9.158203125  C 11.8735795454545 9.263671875  11.8181818181818 9.3984375  12 9.5625  L 12 21.9375  C 11.8181818181818 22.1015625  11.8735795454545 22.236328125  11.984375 22.341796875  C 12.0951704545455 22.447265625  12.2367424242424 22.5  12.4090909090909 22.5  L 13.5909090909091 22.5  C 13.7632575757576 22.5  13.9048295454545 22.447265625  14.015625 22.341796875  Z M 18.7428977272727 22.341796875  C 18.8536931818182 22.236328125  18.9090909090909 22.1015625  19 21.9375  L 19 9.5625  C 18.9090909090909 9.3984375  18.8536931818182 9.263671875  18.7428977272727 9.158203125  C 18.6321022727273 9.052734375  18.4905303030303 9  18.3181818181818 9  L 17.1363636363636 9  C 16.9640151515152 9  16.8224431818182 9.052734375  16.7116477272727 9.158203125  C 16.6008522727273 9.263671875  16.5454545454545 9.3984375  16.5454545454545 9.5625  L 16.5454545454545 21.9375  C 16.5454545454545 22.1015625  16.6008522727273 22.236328125  16.7116477272727 22.341796875  C 16.8224431818182 22.447265625  16.9640151515152 22.5  17.1363636363636 22.5  L 18.3181818181818 22.5  C 18.4905303030303 22.5  18.6321022727273 22.447265625  18.7428977272727 22.341796875  Z M 9.76846590909091 2.443359375  L 8.86363636363636 4.5  L 17.1363636363636 4.5  L 16.25 2.443359375  C 16.1638257575758 2.337890625  16.0591856060606 2.2734375  15.9360795454545 2.25  L 10.0823863636364 2.25  C 9.9592803030303 2.2734375  9.85464015151515 2.337890625  9.76846590909091 2.443359375  Z M 25.8338068181818 4.658203125  C 25.9446022727273 4.763671875  26 4.8984375  26 5.0625  L 26 6.1875  C 26 6.3515625  25.9446022727273 6.486328125  25.8338068181818 6.591796875  C 25.7230113636364 6.697265625  25.5814393939394 6.75  25.4090909090909 6.75  L 23.6363636363636 6.75  L 23.6363636363636 23.4140625  C 23.6363636363636 24.38671875  23.3470643939394 25.2275390625  22.7684659090909 25.9365234375  C 22.1898674242424 26.6455078125  21.4943181818182 27  20.6818181818182 27  L 5.31818181818182 27  C 4.50568181818182 27  3.81013257575758 26.6572265625  3.23153409090909 25.9716796875  C 2.65293560606061 25.2861328125  2.36363636363636 24.45703125  2.36363636363636 23.484375  L 2.36363636363636 6.75  L 0.590909090909091 6.75  C 0.418560606060606 6.75  0.276988636363636 6.697265625  0.166193181818182 6.591796875  C 0.0553977272727273 6.486328125  0 6.3515625  0 6.1875  L 0 5.0625  C 0 4.8984375  0.0553977272727273 4.763671875  0.166193181818182 4.658203125  C 0.276988636363636 4.552734375  0.418560606060606 4.5  0.590909090909091 4.5  L 6.296875 4.5  L 7.58948863636364 1.564453125  C 7.77414772727273 1.130859375  8.10653409090909 0.761718749999998  8.58664772727273 0.457031250000001  C 9.06676136363637 0.152343749999998  9.5530303030303 0  10.0454545454545 0  L 15.9545454545455 0  C 16.4469696969697 0  16.9332386363636 0.152343749999998  17.4133522727273 0.457031250000001  C 17.8934659090909 0.761718749999998  18.2258522727273 1.130859375  18.4105113636364 1.564453125  L 19.703125 4.5  L 25.4090909090909 4.5  C 25.5814393939394 4.5  25.7230113636364 4.552734375  25.8338068181818 4.658203125  Z " fill-rule="nonzero" fill="#000000" stroke="none" transform="matrix(1 0 0 1 2275 1041 )" />
  </g>
</svg>