<?xml version="1.0" encoding="utf-8"?>
<svg version="1.1" xmlns:xlink="http://www.w3.org/1999/xlink" width="16px" height="13px" xmlns="http://www.w3.org/2000/svg">
  <defs>
    <mask fill="white" id="clip1">
      <path d="M 2650.5 325  C 2646.8925 325  2644 322.1075  2644 318.5  L 2644 318.5  C 2644 314.8925  2646.8925 312  2650.5 312  L 2653.5 312  C 2657.1075 312  2660 314.8925  2660 318.5  L 2660 318.5  C 2660 322.1075  2657.1075 325  2653.5 325  " fill-rule="evenodd" />
    </mask>
  </defs>
  <g transform="matrix(1 0 0 1 -2644 -312 )">
    <path d="M 2644 312  L 2660 312  L 2660 325  L 2644 325  L 2644 312  " fill-rule="nonzero" fill="#cccccc" stroke="none" mask="url(#clip1)" />
    <path d="M 2645 313  L 2659 313  L 2659 324  L 2645 324  L 2645 313  " fill-rule="nonzero" fill="#ffffff" stroke="none" mask="url(#clip1)" />
    <path d="M 2653.295 315.9  C 2652.749 315.9  2652.32 315.471  2652.32 314.925  C 2652.32 314.379  2652.749 313.95  2653.295 313.95  C 2653.841 313.95  2654.27 314.379  2654.27 314.925  C 2654.27 315.471  2653.841 315.9  2653.295 315.9  " fill-rule="nonzero" fill="#cccccc" stroke="none" mask="url(#clip1)" />
    <path d="M 2646 324  L 2646 318.5  L 2649.25 316  L 2653.8 319.125  L 2656.4 317.5  L 2659 319.125  L 2659 324  L 2646 324  " fill-rule="nonzero" fill="#169bd5" stroke="none" mask="url(#clip1)" />
  </g>
</svg>