<?xml version="1.0" encoding="utf-8"?>
<svg version="1.1" xmlns:xlink="http://www.w3.org/1999/xlink" width="90px" height="80px" xmlns="http://www.w3.org/2000/svg">
  <g transform="matrix(1 0 0 1 -101 -2813 )">
    <path d="M 101 2813  L 191 2813  L 191 2893  L 101 2893  L 101 2813  " fill-rule="nonzero" fill="#cccccc" stroke="none" />
    <path d="M 107 2819  L 185 2819  L 185 2887  L 107 2887  L 107 2819  " fill-rule="nonzero" fill="#ffffff" stroke="none" />
    <path d="M 153.8 2837  C 150.44 2837  147.8 2834.36  147.8 2831  C 147.8 2827.64  150.44 2825  153.8 2825  C 157.16 2825  159.8 2827.64  159.8 2831  C 159.8 2834.36  157.16 2837  153.8 2837  " fill-rule="nonzero" fill="#cccccc" stroke="none" />
    <path d="M 109 2885  L 109 2849.8  L 127.5 2833.8  L 153.4 2850.86666666667  L 168.2 2843.4  L 183 2850.86666666667  L 183 2885  L 109 2885  " fill-rule="nonzero" fill="#169bd5" stroke="none" />
  </g>
</svg>