<?xml version="1.0" encoding="utf-8"?>
<svg version="1.1" xmlns:xlink="http://www.w3.org/1999/xlink" width="21px" height="20px" xmlns="http://www.w3.org/2000/svg">
  <g transform="matrix(1 0 0 1 -98 -993 )">
    <path d="M 108.5 993  C 114.38 993  119 997.4  119 1003  C 119 1008.6  114.38 1013  108.5 1013  C 102.62 1013  98 1008.6  98 1003  C 98 997.4  102.62 993  108.5 993  Z " fill-rule="nonzero" fill="#d9001b" stroke="none" />
    <path d="M 108.5 993.5  C 114.1 993.5  118.5 997.68  118.5 1003  C 118.5 1008.32  114.1 1012.5  108.5 1012.5  C 102.9 1012.5  98.5 1008.32  98.5 1003  C 98.5 997.68  102.9 993.5  108.5 993.5  Z " stroke-width="1" stroke="#797979" fill="none" />
  </g>
</svg>