<?xml version="1.0" encoding="utf-8"?>
<svg version="1.1" xmlns:xlink="http://www.w3.org/1999/xlink" width="30px" height="30px" xmlns="http://www.w3.org/2000/svg">
  <g transform="matrix(1 0 0 1 -1289 -449 )">
    <path d="M 1304 449  C 1312.4 449  1319 455.6  1319 464  C 1319 472.4  1312.4 479  1304 479  C 1295.6 479  1289 472.4  1289 464  C 1289 455.6  1295.6 449  1304 449  Z " fill-rule="nonzero" fill="#ffffff" stroke="none" />
    <path d="M 1304 449.5  C 1312.12 449.5  1318.5 455.88  1318.5 464  C 1318.5 472.12  1312.12 478.5  1304 478.5  C 1295.88 478.5  1289.5 472.12  1289.5 464  C 1289.5 455.88  1295.88 449.5  1304 449.5  Z " stroke-width="1" stroke="#797979" fill="none" />
  </g>
</svg>