<?xml version="1.0" encoding="utf-8"?>
<svg version="1.1" xmlns:xlink="http://www.w3.org/1999/xlink" width="90px" height="80px" xmlns="http://www.w3.org/2000/svg">
  <g transform="matrix(1 0 0 1 -1757 -1029 )">
    <path d="M 1757 1029  L 1847 1029  L 1847 1109  L 1757 1109  L 1757 1029  " fill-rule="nonzero" fill="#cccccc" stroke="none" />
    <path d="M 1763 1035  L 1841 1035  L 1841 1103  L 1763 1103  L 1763 1035  " fill-rule="nonzero" fill="#ffffff" stroke="none" />
    <path d="M 1809.8 1053  C 1806.44 1053  1803.8 1050.36  1803.8 1047  C 1803.8 1043.64  1806.44 1041  1809.8 1041  C 1813.16 1041  1815.8 1043.64  1815.8 1047  C 1815.8 1050.36  1813.16 1053  1809.8 1053  " fill-rule="nonzero" fill="#cccccc" stroke="none" />
    <path d="M 1765 1101  L 1765 1065.8  L 1783.5 1049.8  L 1809.4 1066.86666666667  L 1824.2 1059.4  L 1839 1066.86666666667  L 1839 1101  L 1765 1101  " fill-rule="nonzero" fill="#169bd5" stroke="none" />
  </g>
</svg>