<?xml version="1.0" encoding="utf-8"?>
<svg version="1.1" xmlns:xlink="http://www.w3.org/1999/xlink" width="57px" height="50px" xmlns="http://www.w3.org/2000/svg">
  <g transform="matrix(1 0 0 1 -2965 -318 )">
    <path d="M 2965 318  L 3022 318  L 3022 368  L 2965 368  L 2965 318  " fill-rule="nonzero" fill="#cccccc" stroke="none" />
    <path d="M 2969 322  L 3018 322  L 3018 364  L 2969 364  L 2969 322  " fill-rule="nonzero" fill="#ffffff" stroke="none" />
    <path d="M 2998.39 333  C 2996.29 333  2994.64 331.35  2994.64 329.25  C 2994.64 327.15  2996.29 325.5  2998.39 325.5  C 3000.49 325.5  3002.14 327.15  3002.14 329.25  C 3002.14 331.35  3000.49 333  2998.39 333  " fill-rule="nonzero" fill="#cccccc" stroke="none" />
    <path d="M 2971 363  L 2971 341.55  L 2982.5 331.8  L 2998.6 342.473684210526  L 3007.8 337.65  L 3017 342.473684210526  L 3017 363  L 2971 363  " fill-rule="nonzero" fill="#169bd5" stroke="none" />
  </g>
</svg>