<?xml version="1.0" encoding="utf-8"?>
<svg version="1.1" xmlns:xlink="http://www.w3.org/1999/xlink" width="19px" height="18px" xmlns="http://www.w3.org/2000/svg">
  <g transform="matrix(1 0 0 1 -2625 -299 )">
    <path d="M 2634.5 299  C 2639.82 299  2644 302.96  2644 308  C 2644 313.04  2639.82 317  2634.5 317  C 2629.18 317  2625 313.04  2625 308  C 2625 302.96  2629.18 299  2634.5 299  Z " fill-rule="nonzero" fill="#ffffff" stroke="none" />
    <path d="M 2634.5 299.5  C 2639.54 299.5  2643.5 303.24  2643.5 308  C 2643.5 312.76  2639.54 316.5  2634.5 316.5  C 2629.46 316.5  2625.5 312.76  2625.5 308  C 2625.5 303.24  2629.46 299.5  2634.5 299.5  Z " stroke-width="1" stroke="#797979" fill="none" />
  </g>
</svg>