<?xml version="1.0" encoding="utf-8"?>
<svg version="1.1" xmlns:xlink="http://www.w3.org/1999/xlink" width="19px" height="24px" xmlns="http://www.w3.org/2000/svg">
  <g transform="matrix(1 0 0 1 -474 -69 )">
    <path d="M 19 3.424317617866  C 19 3.68238213399504  18.8838481338481 3.90570719602977  18.6515444015444 4.09429280397022  L 8.91312741312741 12  L 18.6515444015444 19.9057071960298  C 18.8838481338481 20.0942928039702  19 20.317617866005  19 20.575682382134  C 19 20.833746898263  18.8838481338481 21.0570719602978  18.6515444015444 21.2456575682382  L 15.6071428571429 23.7171215880893  C 15.3748391248391 23.9057071960298  15.0997425997426 24  14.7818532818533 24  C 14.463963963964 24  14.1888674388674 23.9057071960298  13.9565637065637 23.7171215880893  L 0.348455598455598 12.6699751861042  C 0.116151866151866 12.4813895781638  0 12.258064516129  0 12  C 0 11.741935483871  0.116151866151866 11.5186104218362  0.348455598455598 11.3300248138958  L 13.9565637065637 0.282878411910669  C 14.1888674388674 0.0942928039702222  14.463963963964 0  14.7818532818533 0  C 15.0997425997426 0  15.3748391248391 0.0942928039702222  15.6071428571429 0.282878411910669  L 18.6515444015444 2.75434243176179  C 18.8838481338481 2.94292803970223  19 3.16625310173697  19 3.424317617866  Z " fill-rule="nonzero" fill="#000000" stroke="none" transform="matrix(1 0 0 1 474 69 )" />
  </g>
</svg>