<?xml version="1.0" encoding="utf-8"?>
<svg version="1.1" xmlns:xlink="http://www.w3.org/1999/xlink" width="10px" height="14px" xmlns="http://www.w3.org/2000/svg">
  <g transform="matrix(1 0 0 1 -1288 -147 )">
    <path d="M 9.82817869415807 0.841683366733466  C 9.94272623138603 0.935203740814962  10 1.04275217100868  10 1.16432865731463  C 10 1.28590514362057  9.94272623138603 1.39345357381429  9.82817869415807 1.48697394789579  L 3.07560137457045 7  L 9.82817869415807 12.5130260521042  C 9.94272623138603 12.6065464261857  10 12.7140948563794  10 12.8356713426854  C 10 12.9572478289913  9.94272623138603 13.064796259185  9.82817869415807 13.1583166332665  L 8.96907216494845 13.8597194388778  C 8.8545246277205 13.9532398129593  8.72279495990836 14  8.57388316151203 14  C 8.4249713631157 14  8.29324169530355 13.9532398129593  8.1786941580756 13.8597194388778  L 0.171821305841924 7.32264529058116  C 0.0572737686139748 7.22912491649967  0 7.12157648630594  0 7  C 0 6.87842351369405  0.0572737686139748 6.77087508350033  0.171821305841924 6.67735470941884  L 8.1786941580756 0.140280561122245  C 8.29324169530355 0.0467601870407477  8.4249713631157 0  8.57388316151203 0  C 8.72279495990836 0  8.8545246277205 0.0467601870407477  8.96907216494845 0.140280561122245  L 9.82817869415807 0.841683366733466  Z " fill-rule="nonzero" fill="#000000" stroke="none" transform="matrix(1 0 0 1 1288 147 )" />
  </g>
</svg>