<?xml version="1.0" encoding="utf-8"?>
<svg version="1.1" xmlns:xlink="http://www.w3.org/1999/xlink" width="19px" height="19px" xmlns="http://www.w3.org/2000/svg">
  <g transform="matrix(1 0 0 1 -2182 -164 )">
    <path d="M 18.6735395189003 1.14228456913828  C 18.8911798396335 1.26920507682031  19 1.41516366065464  19 1.58016032064128  C 19 1.74515698062792  18.8911798396335 1.89111556446226  18.6735395189003 2.01803607214429  L 5.84364261168385 9.5  L 18.6735395189003 16.9819639278557  C 18.8911798396335 17.1088844355377  19 17.2548430193721  19 17.4198396793587  C 19 17.5848363393454  18.8911798396335 17.7307949231797  18.6735395189003 17.8577154308617  L 17.0412371134021 18.809619238477  C 16.823596792669 18.936539746159  16.5733104238259 19  16.2903780068729 19  C 16.0074455899198 19  15.7571592210767 18.936539746159  15.5395189003436 18.809619238477  L 0.326460481099656 9.93787575150301  C 0.108820160366552 9.81095524382097  0 9.66499665998664  0 9.5  C 0 9.33500334001336  0.108820160366552 9.18904475617902  0.326460481099656 9.06212424849699  L 15.5395189003436 0.190380761523046  C 15.7571592210767 0.0634602538410147  16.0074455899198 0  16.2903780068729 0  C 16.5733104238259 0  16.823596792669 0.0634602538410147  17.0412371134021 0.190380761523046  L 18.6735395189003 1.14228456913828  Z " fill-rule="nonzero" fill="#000000" stroke="none" transform="matrix(1 0 0 1 2182 164 )" />
  </g>
</svg>