<?xml version="1.0" encoding="utf-8"?>
<svg version="1.1" xmlns:xlink="http://www.w3.org/1999/xlink" width="61px" height="60px" xmlns="http://www.w3.org/2000/svg">
  <defs>
    <mask fill="white" id="clip6">
      <path d="M 117 1960  C 100.35 1960  87 1946.65  87 1930  L 87 1930  C 87 1913.35  100.35 1900  117 1900  L 118 1900  C 134.65 1900  148 1913.35  148 1930  L 148 1930  C 148 1946.65  134.65 1960  118 1960  " fill-rule="evenodd" />
    </mask>
  </defs>
  <g transform="matrix(1 0 0 1 -87 -1900 )">
    <path d="M 87 1900  L 148 1900  L 148 1960  L 87 1960  L 87 1900  " fill-rule="nonzero" fill="#cccccc" stroke="none" mask="url(#clip6)" />
    <path d="M 91 1904  L 144 1904  L 144 1956  L 91 1956  L 91 1904  " fill-rule="nonzero" fill="#ffffff" stroke="none" mask="url(#clip6)" />
    <path d="M 123.22 1918  C 120.7 1918  118.72 1916.02  118.72 1913.5  C 118.72 1910.98  120.7 1909  123.22 1909  C 125.74 1909  127.72 1910.98  127.72 1913.5  C 127.72 1916.02  125.74 1918  123.22 1918  " fill-rule="nonzero" fill="#cccccc" stroke="none" mask="url(#clip6)" />
    <path d="M 93 1955  L 93 1928.05  L 105.5 1915.8  L 123 1926.08196721311  L 133 1923.15  L 143 1926.08196721311  L 143 1955  L 93 1955  " fill-rule="nonzero" fill="#169bd5" stroke="none" mask="url(#clip6)" />
  </g>
</svg>