<?xml version="1.0" encoding="utf-8"?>
<svg version="1.1" xmlns:xlink="http://www.w3.org/1999/xlink" width="61px" height="60px" xmlns="http://www.w3.org/2000/svg">
  <defs>
    <mask fill="white" id="clip329">
      <path d="M 117 1992  C 100.35 1992  87 1978.65  87 1962  L 87 1962  C 87 1945.35  100.35 1932  117 1932  L 118 1932  C 134.65 1932  148 1945.35  148 1962  L 148 1962  C 148 1978.65  134.65 1992  118 1992  " fill-rule="evenodd" />
    </mask>
  </defs>
  <g transform="matrix(1 0 0 1 -87 -1932 )">
    <path d="M 87 1932  L 148 1932  L 148 1992  L 87 1992  L 87 1932  " fill-rule="nonzero" fill="#cccccc" stroke="none" mask="url(#clip329)" />
    <path d="M 91 1936  L 144 1936  L 144 1988  L 91 1988  L 91 1936  " fill-rule="nonzero" fill="#ffffff" stroke="none" mask="url(#clip329)" />
    <path d="M 123.22 1950  C 120.7 1950  118.72 1948.02  118.72 1945.5  C 118.72 1942.98  120.7 1941  123.22 1941  C 125.74 1941  127.72 1942.98  127.72 1945.5  C 127.72 1948.02  125.74 1950  123.22 1950  " fill-rule="nonzero" fill="#cccccc" stroke="none" mask="url(#clip329)" />
    <path d="M 93 1987  L 93 1960.05  L 105.5 1947.8  L 123 1958.08196721311  L 133 1955.15  L 143 1958.08196721311  L 143 1987  L 93 1987  " fill-rule="nonzero" fill="#169bd5" stroke="none" mask="url(#clip329)" />
  </g>
</svg>