<?xml version="1.0" encoding="utf-8"?>
<svg version="1.1" xmlns:xlink="http://www.w3.org/1999/xlink" width="22px" height="20px" xmlns="http://www.w3.org/2000/svg">
  <defs>
    <mask fill="white" id="clip166">
      <path d="M 1538 477  C 1532.45 477  1528 472.55  1528 467  L 1528 467  C 1528 461.45  1532.45 457  1538 457  L 1540 457  C 1545.55 457  1550 461.45  1550 467  L 1550 467  C 1550 472.55  1545.55 477  1540 477  " fill-rule="evenodd" />
    </mask>
  </defs>
  <g transform="matrix(1 0 0 1 -1528 -457 )">
    <path d="M 1528 457  L 1550 457  L 1550 477  L 1528 477  L 1528 457  " fill-rule="nonzero" fill="#cccccc" stroke="none" mask="url(#clip166)" />
    <path d="M 1529 458  L 1549 458  L 1549 476  L 1529 476  L 1529 458  " fill-rule="nonzero" fill="#ffffff" stroke="none" mask="url(#clip166)" />
    <path d="M 1540.94 463  C 1540.1 463  1539.44 462.34  1539.44 461.5  C 1539.44 460.66  1540.1 460  1540.94 460  C 1541.78 460  1542.44 460.66  1542.44 461.5  C 1542.44 462.34  1541.78 463  1540.94 463  " fill-rule="nonzero" fill="#cccccc" stroke="none" mask="url(#clip166)" />
    <path d="M 1530 476  L 1530 466.65  L 1534.75 462.4  L 1541.4 466.727272727273  L 1545.2 464.95  L 1549 466.727272727273  L 1549 476  L 1530 476  " fill-rule="nonzero" fill="#169bd5" stroke="none" mask="url(#clip166)" />
  </g>
</svg>