<?xml version="1.0" encoding="utf-8"?>
<svg version="1.1" xmlns:xlink="http://www.w3.org/1999/xlink" width="27px" height="10px" preserveAspectRatio="xMinYMid meet" viewBox="3149 1414  27 8" xmlns="http://www.w3.org/2000/svg">
  <path d="M 3171 1418  L 3155 1418  " stroke-width="2" stroke-dasharray="6,2" stroke="#70b603" fill="none" />
  <path d="M 3171 1414  A 3.5 3.5 0 0 0 3167.5 1417.5 A 3.5 3.5 0 0 0 3171 1421 A 3.5 3.5 0 0 0 3174.5 1417.5 A 3.5 3.5 0 0 0 3171 1414 Z M 3171 1416  A 1.5 1.5 0 0 1 3172.5 1417.5 A 1.5 1.5 0 0 1 3171 1419 A 1.5 1.5 0 0 1 3169.5 1417.5 A 1.5 1.5 0 0 1 3171 1416 Z M 3156 1410.4  L 3149 1418  L 3156 1425.6  L 3156 1410.4  Z M 3154 1415.2  L 3154 1420.8  L 3152 1418  L 3154 1415.2  Z " fill-rule="nonzero" fill="#70b603" stroke="none" />
</svg>