<?xml version="1.0" encoding="utf-8"?>
<svg version="1.1" xmlns:xlink="http://www.w3.org/1999/xlink" width="12px" height="12px" viewBox="787 2617  12 12" xmlns="http://www.w3.org/2000/svg">
  <path d="M 793 2617  C 796.36 2617  799 2619.64  799 2623  C 799 2626.36  796.36 2629  793 2629  C 789.64 2629  787 2626.36  787 2623  C 787 2619.64  789.64 2617  793 2617  Z " fill-rule="nonzero" fill="#f0f0f0" stroke="none" />
  <path d="M 793 2617.5  C 796.08 2617.5  798.5 2619.92  798.5 2623  C 798.5 2626.08  796.08 2628.5  793 2628.5  C 789.92 2628.5  787.5 2626.08  787.5 2623  C 787.5 2619.92  789.92 2617.5  793 2617.5  Z " stroke-width="1" stroke="#797979" fill="none" />
  <path d="M 793 2626  C 791.32 2626  790 2624.68  790 2623  C 790 2621.32  791.32 2620  793 2620  C 794.68 2620  796 2621.32  796 2623  C 796 2624.68  794.68 2626  793 2626  " fill-rule="nonzero" fill="#797979" stroke="none" />
</svg>