<?xml version="1.0" encoding="utf-8"?>
<svg version="1.1" xmlns:xlink="http://www.w3.org/1999/xlink" width="12px" height="12px" viewBox="681 2617  12 12" xmlns="http://www.w3.org/2000/svg">
  <path d="M 687 2617  C 690.36 2617  693 2619.64  693 2623  C 693 2626.36  690.36 2629  687 2629  C 683.64 2629  681 2626.36  681 2623  C 681 2619.64  683.64 2617  687 2617  Z " fill-rule="nonzero" fill="#ffffff" stroke="none" />
  <path d="M 687 2617.5  C 690.08 2617.5  692.5 2619.92  692.5 2623  C 692.5 2626.08  690.08 2628.5  687 2628.5  C 683.92 2628.5  681.5 2626.08  681.5 2623  C 681.5 2619.92  683.92 2617.5  687 2617.5  Z " stroke-width="1" stroke="#797979" fill="none" />
  <path d="M 687 2626  C 685.32 2626  684 2624.68  684 2623  C 684 2621.32  685.32 2620  687 2620  C 688.68 2620  690 2621.32  690 2623  C 690 2624.68  688.68 2626  687 2626  " fill-rule="nonzero" fill="#797979" stroke="none" />
</svg>