<?xml version="1.0" encoding="utf-8"?>
<svg version="1.1" xmlns:xlink="http://www.w3.org/1999/xlink" width="12px" height="12px" viewBox="787 3687  12 12" xmlns="http://www.w3.org/2000/svg">
  <path d="M 793 3687  C 796.36 3687  799 3689.64  799 3693  C 799 3696.36  796.36 3699  793 3699  C 789.64 3699  787 3696.36  787 3693  C 787 3689.64  789.64 3687  793 3687  Z " fill-rule="nonzero" fill="#ffffff" stroke="none" />
  <path d="M 793 3687.5  C 796.08 3687.5  798.5 3689.92  798.5 3693  C 798.5 3696.08  796.08 3698.5  793 3698.5  C 789.92 3698.5  787.5 3696.08  787.5 3693  C 787.5 3689.92  789.92 3687.5  793 3687.5  Z " stroke-width="1" stroke="#797979" fill="none" />
  <path d="M 793 3696  C 791.32 3696  790 3694.68  790 3693  C 790 3691.32  791.32 3690  793 3690  C 794.68 3690  796 3691.32  796 3693  C 796 3694.68  794.68 3696  793 3696  " fill-rule="nonzero" fill="#797979" stroke="none" />
</svg>