<?xml version="1.0" encoding="utf-8"?>
<svg version="1.1" xmlns:xlink="http://www.w3.org/1999/xlink" width="12px" height="12px" viewBox="681 3687  12 12" xmlns="http://www.w3.org/2000/svg">
  <path d="M 687 3687  C 690.36 3687  693 3689.64  693 3693  C 693 3696.36  690.36 3699  687 3699  C 683.64 3699  681 3696.36  681 3693  C 681 3689.64  683.64 3687  687 3687  Z " fill-rule="nonzero" fill="#ffffff" stroke="none" />
  <path d="M 687 3687.5  C 690.08 3687.5  692.5 3689.92  692.5 3693  C 692.5 3696.08  690.08 3698.5  687 3698.5  C 683.92 3698.5  681.5 3696.08  681.5 3693  C 681.5 3689.92  683.92 3687.5  687 3687.5  Z " stroke-width="1" stroke="#797979" fill="none" />
  <path d="M 687 3696  C 685.32 3696  684 3694.68  684 3693  C 684 3691.32  685.32 3690  687 3690  C 688.68 3690  690 3691.32  690 3693  C 690 3694.68  688.68 3696  687 3696  " fill-rule="nonzero" fill="#797979" stroke="none" />
</svg>