<?xml version="1.0" encoding="utf-8"?>
<svg version="1.1" xmlns:xlink="http://www.w3.org/1999/xlink" width="31px" height="30px" xmlns="http://www.w3.org/2000/svg">
  <defs>
    <mask fill="white" id="clip398">
      <path d="M 480 728  C 471.675 728  465 721.325  465 713  L 465 713  C 465 704.675  471.675 698  480 698  L 481 698  C 489.325 698  496 704.675  496 713  L 496 713  C 496 721.325  489.325 728  481 728  " fill-rule="evenodd" />
    </mask>
  </defs>
  <g transform="matrix(1 0 0 1 -465 -698 )">
    <path d="M 465 698  L 496 698  L 496 728  L 465 728  L 465 698  " fill-rule="nonzero" fill="#cccccc" stroke="none" mask="url(#clip398)" />
    <path d="M 467 700  L 494 700  L 494 726  L 467 726  L 467 700  " fill-rule="nonzero" fill="#ffffff" stroke="none" mask="url(#clip398)" />
    <path d="M 483.37 707  C 482.11 707  481.12 706.01  481.12 704.75  C 481.12 703.49  482.11 702.5  483.37 702.5  C 484.63 702.5  485.62 703.49  485.62 704.75  C 485.62 706.01  484.63 707  483.37 707  " fill-rule="nonzero" fill="#cccccc" stroke="none" mask="url(#clip398)" />
    <path d="M 468 725  L 468 711.8  L 474.25 705.8  L 483 711.064516129032  L 488 709.4  L 493 711.064516129032  L 493 725  L 468 725  " fill-rule="nonzero" fill="#169bd5" stroke="none" mask="url(#clip398)" />
  </g>
</svg>