<?xml version="1.0" encoding="utf-8"?>
<svg version="1.1" xmlns:xlink="http://www.w3.org/1999/xlink" width="11px" height="12px" xmlns="http://www.w3.org/2000/svg">
  <g transform="matrix(1 0 0 1 -614 -555 )">
    <path d="M 619.5 555  C 622.58 555  625 557.64  625 561  C 625 564.36  622.58 567  619.5 567  C 616.42 567  614 564.36  614 561  C 614 557.64  616.42 555  619.5 555  Z " fill-rule="nonzero" fill="#0000ff" stroke="none" />
    <path d="M 619.5 555.5  C 622.3 555.5  624.5 557.92  624.5 561  C 624.5 564.08  622.3 566.5  619.5 566.5  C 616.7 566.5  614.5 564.08  614.5 561  C 614.5 557.92  616.7 555.5  619.5 555.5  Z " stroke-width="1" stroke="#797979" fill="none" />
  </g>
</svg>