<?xml version="1.0" encoding="utf-8"?>
<svg version="1.1" xmlns:xlink="http://www.w3.org/1999/xlink" width="20px" height="21px" xmlns="http://www.w3.org/2000/svg">
  <g transform="matrix(1 0 0 1 -465 -243 )">
    <path d="M 16.6666666666667 6  C 16.6666666666667 7.1484375  16.3237847222222 8.2109375  15.6380208333333 9.1875  C 16.0460069444444 9.296875  16.4344618055556 9.4453125  16.8033854166667 9.6328125  C 17.1723090277778 9.8203125  17.55859375 10.10546875  17.9622395833333 10.48828125  C 18.3658854166667 10.87109375  18.7109375 11.322265625  18.9973958333333 11.841796875  C 19.2838541666667 12.361328125  19.5225694444444 13.033203125  19.7135416666667 13.857421875  C 19.9045138888889 14.681640625  20 15.60546875  20 16.62890625  C 20 17.83203125  19.5659722222222 18.861328125  18.6979166666667 19.716796875  C 17.8298611111111 20.572265625  16.7838541666667 21  15.5598958333333 21  L 4.44010416666667 21  C 3.21614583333333 21  2.17013888888889 20.572265625  1.30208333333333 19.716796875  C 0.434027777777778 18.861328125  0 17.83203125  0 16.62890625  C 0 15.60546875  0.0954861111111111 14.681640625  0.286458333333333 13.857421875  C 0.477430555555556 13.033203125  0.716145833333333 12.361328125  1.00260416666667 11.841796875  C 1.2890625 11.322265625  1.63411458333333 10.87109375  2.03776041666667 10.48828125  C 2.44140625 10.10546875  2.82769097222222 9.8203125  3.19661458333333 9.6328125  C 3.56553819444444 9.4453125  3.95399305555556 9.296875  4.36197916666667 9.1875  C 3.67621527777778 8.2109375  3.33333333333333 7.1484375  3.33333333333333 6  C 3.33333333333333 5.1875  3.50911458333333 4.412109375  3.86067708333333 3.673828125  C 4.21223958333333 2.935546875  4.6875 2.296875  5.28645833333333 1.7578125  C 5.88541666666667 1.21875  6.59505208333333 0.791015625  7.41536458333333 0.474609374999999  C 8.23567708333333 0.158203124999999  9.09722222222222 0  10 0  C 10.9027777777778 0  11.7643229166667 0.158203124999999  12.5846354166667 0.474609374999999  C 13.4049479166667 0.791015625  14.1145833333333 1.21875  14.7135416666667 1.7578125  C 15.3125 2.296875  15.7877604166667 2.935546875  16.1393229166667 3.673828125  C 16.4908854166667 4.412109375  16.6666666666667 5.1875  16.6666666666667 6  Z M 13.53515625 2.818359375  C 12.55859375 1.939453125  11.3802083333333 1.5  10 1.5  C 8.61979166666667 1.5  7.44140625 1.939453125  6.46484375 2.818359375  C 5.48828125 3.697265625  5 4.7578125  5 6  C 5 7.2421875  5.48828125 8.302734375  6.46484375 9.181640625  C 7.44140625 10.060546875  8.61979166666667 10.5  10 10.5  C 11.3802083333333 10.5  12.55859375 10.060546875  13.53515625 9.181640625  C 14.51171875 8.302734375  15 7.2421875  15 6  C 15 4.7578125  14.51171875 3.697265625  13.53515625 2.818359375  Z M 4.44010416666667 19.5  L 15.5598958333333 19.5  C 16.3237847222222 19.5  16.9769965277778 19.220703125  17.51953125 18.662109375  C 18.0620659722222 18.103515625  18.3333333333333 17.42578125  18.3333333333333 16.62890625  C 18.3333333333333 14.76171875  17.9926215277778 13.2890625  17.3111979166667 12.2109375  C 16.6297743055556 11.1328125  15.6510416666667 10.56640625  14.375 10.51171875  C 13.1163194444444 11.50390625  11.6579861111111 12  10 12  C 8.34201388888889 12  6.88368055555556 11.50390625  5.625 10.51171875  C 4.34895833333333 10.56640625  3.37022569444444 11.1328125  2.68880208333333 12.2109375  C 2.00737847222222 13.2890625  1.66666666666667 14.76171875  1.66666666666667 16.62890625  C 1.66666666666667 17.42578125  1.93793402777778 18.103515625  2.48046875 18.662109375  C 3.02300347222222 19.220703125  3.67621527777778 19.5  4.44010416666667 19.5  Z " fill-rule="nonzero" fill="#000000" stroke="none" transform="matrix(1 0 0 1 465 243 )" />
  </g>
</svg>