<?xml version="1.0" encoding="utf-8"?>
<svg version="1.1" xmlns:xlink="http://www.w3.org/1999/xlink" width="11px" height="12px" xmlns="http://www.w3.org/2000/svg">
  <g transform="matrix(1 0 0 1 -627 -555 )">
    <path d="M 632.5 555  C 635.58 555  638 557.64  638 561  C 638 564.36  635.58 567  632.5 567  C 629.42 567  627 564.36  627 561  C 627 557.64  629.42 555  632.5 555  Z " fill-rule="nonzero" fill="#ffffff" stroke="none" />
    <path d="M 632.5 555.5  C 635.3 555.5  637.5 557.92  637.5 561  C 637.5 564.08  635.3 566.5  632.5 566.5  C 629.7 566.5  627.5 564.08  627.5 561  C 627.5 557.92  629.7 555.5  632.5 555.5  Z " stroke-width="1" stroke="#797979" fill="none" />
  </g>
</svg>