<?xml version="1.0" encoding="utf-8"?>
<svg version="1.1" xmlns:xlink="http://www.w3.org/1999/xlink" width="140px" height="64px" xmlns="http://www.w3.org/2000/svg">
  <defs>
    <mask fill="white" id="clip64">
      <path d="M 0 59  L 0 5  C 0 2.20000000000005  2.19999999999982 0  5 0  L 135 0  C 137.8 0  140 2.20000000000005  140 5  L 140 59  C 140 61.8  137.8 64  135 64  L 63.9629629629626 64  L 5 64  C 2.19999999999982 64  0 61.8  0 59  Z " fill-rule="evenodd" />
    </mask>
  </defs>
  <g transform="matrix(1 0 0 1 -4450 -766 )">
    <path d="M 0 59  L 0 5  C 0 2.20000000000005  2.19999999999982 0  5 0  L 135 0  C 137.8 0  140 2.20000000000005  140 5  L 140 59  C 140 61.8  137.8 64  135 64  L 63.9629629629626 64  L 5 64  C 2.19999999999982 64  0 61.8  0 59  Z " fill-rule="nonzero" fill="#ffffff" stroke="none" transform="matrix(1 0 0 1 4450 766 )" />
    <path d="M 0 59  L 0 5  C 0 2.20000000000005  2.19999999999982 0  5 0  L 135 0  C 137.8 0  140 2.20000000000005  140 5  L 140 59  C 140 61.8  137.8 64  135 64  L 63.9629629629626 64  L 5 64  C 2.19999999999982 64  0 61.8  0 59  Z " stroke-width="2" stroke="#797979" fill="none" transform="matrix(1 0 0 1 4450 766 )" mask="url(#clip64)" />
  </g>
</svg>