<?xml version="1.0" encoding="utf-8"?>
<svg version="1.1" xmlns:xlink="http://www.w3.org/1999/xlink" width="200px" height="200px" xmlns="http://www.w3.org/2000/svg">
  <g transform="matrix(1 0 0 1 -135 -306 )">
    <path d="M 235 306  C 291 306  335 350  335 406  C 335 462  291 506  235 506  C 179 506  135 462  135 406  C 135 350  179 306  235 306  Z " fill-rule="nonzero" fill="#ffffff" stroke="none" />
    <path d="M 235 306.5  C 290.72 306.5  334.5 350.28  334.5 406  C 334.5 461.72  290.72 505.5  235 505.5  C 179.28 505.5  135.5 461.72  135.5 406  C 135.5 350.28  179.28 306.5  235 306.5  Z " stroke-width="1" stroke="#797979" fill="none" />
  </g>
</svg>