<?xml version="1.0" encoding="utf-8"?>
<svg version="1.1" xmlns:xlink="http://www.w3.org/1999/xlink" width="82px" height="41px" xmlns="http://www.w3.org/2000/svg">
  <g transform="matrix(1 0 0 1 -897 -217 )">
    <path d="M 897 217  L 979 217  L 979 258  L 897 258  L 897 217  " fill-rule="nonzero" fill="#cccccc" stroke="none" />
    <path d="M 900 220  L 976 220  L 976 255  L 900 255  L 900 220  " fill-rule="nonzero" fill="#ffffff" stroke="none" />
    <path d="M 942.715 229.3  C 940.993 229.3  939.64 227.947  939.64 226.225  C 939.64 224.503  940.993 223.15  942.715 223.15  C 944.437 223.15  945.79 224.503  945.79 226.225  C 945.79 227.947  944.437 229.3  942.715 229.3  " fill-rule="nonzero" fill="#cccccc" stroke="none" />
    <path d="M 901 254  L 901 235.85  L 919.5 227.6  L 945.4 244.1  L 960.2 232.55  L 975 244.1  L 975 254  L 901 254  " fill-rule="nonzero" fill="#169bd5" stroke="none" />
  </g>
</svg>