<?xml version="1.0" encoding="utf-8"?>
<svg version="1.1" xmlns:xlink="http://www.w3.org/1999/xlink" width="26px" height="22px" xmlns="http://www.w3.org/2000/svg">
  <g transform="matrix(1 0 0 1 -604 -634 )">
    <path d="M 25.4829545454545 8.4375  C 25.8276515151515 8.72916666666666  26 9.08333333333333  26 9.5  L 26 12.5  C 26 12.9166666666667  25.8276515151515 13.2708333333333  25.4829545454545 13.5625  C 25.1382575757576 13.8541666666667  24.719696969697 14  24.2272727272727 14  L 16.5454545454545 14  L 16.5454545454545 20.5  C 16.5454545454545 20.9166666666667  16.3731060606061 21.2708333333333  16.0284090909091 21.5625  C 15.6837121212121 21.8541666666667  15.2651515151515 22  14.7727272727273 22  L 11.2272727272727 22  C 10.7348484848485 22  10.3162878787879 21.8541666666667  9.97159090909091 21.5625  C 9.62689393939394 21.2708333333333  9.45454545454546 20.9166666666667  9.45454545454546 20.5  L 9.45454545454546 14  L 1.77272727272727 14  C 1.28030303030303 14  0.861742424242424 13.8541666666667  0.517045454545455 13.5625  C 0.172348484848485 13.2708333333333  0 12.9166666666667  0 12.5  L 0 9.5  C 0 9.08333333333333  0.172348484848485 8.72916666666666  0.517045454545455 8.4375  C 0.861742424242424 8.14583333333333  1.28030303030303 8  1.77272727272727 8  L 9.45454545454546 8  L 9.45454545454546 1.5  C 9.45454545454546 1.08333333333333  9.62689393939394 0.729166666666665  9.97159090909091 0.4375  C 10.3162878787879 0.145833333333333  10.7348484848485 0  11.2272727272727 0  L 14.7727272727273 0  C 15.2651515151515 0  15.6837121212121 0.145833333333333  16.0284090909091 0.4375  C 16.3731060606061 0.729166666666665  16.5454545454545 1.08333333333333  16.5454545454545 1.5  L 16.5454545454545 8  L 24.2272727272727 8  C 24.719696969697 8  25.1382575757576 8.14583333333333  25.4829545454545 8.4375  Z " fill-rule="nonzero" fill="#000000" stroke="none" transform="matrix(1 0 0 1 604 634 )" />
  </g>
</svg>