<?xml version="1.0" encoding="utf-8"?>
<svg version="1.1" xmlns:xlink="http://www.w3.org/1999/xlink" width="21px" height="20px" preserveAspectRatio="xMinYMid meet" viewBox="461 1039  21 18" xmlns="http://www.w3.org/2000/svg">
  <path d="M 474 1048  L 631 1048  " stroke-width="2" stroke-dasharray="18,8" stroke="#02a7f0" fill="none" />
  <path d="M 471.5 1044.5  A 3.5 3.5 0 0 0 468 1048 A 3.5 3.5 0 0 0 471.5 1051.5 A 3.5 3.5 0 0 0 475 1048 A 3.5 3.5 0 0 0 471.5 1044.5 Z M 471.5 1046.5  A 1.5 1.5 0 0 1 473 1048 A 1.5 1.5 0 0 1 471.5 1049.5 A 1.5 1.5 0 0 1 470 1048 A 1.5 1.5 0 0 1 471.5 1046.5 Z M 630 1055.6  L 637 1048  L 630 1040.4  L 630 1055.6  Z M 632 1050.8  L 632 1045.2  L 634 1048  L 632 1050.8  Z " fill-rule="nonzero" fill="#02a7f0" stroke="none" />
</svg>