<?xml version="1.0" encoding="utf-8"?>
<svg version="1.1" xmlns:xlink="http://www.w3.org/1999/xlink" width="25px" height="24px" xmlns="http://www.w3.org/2000/svg">
  <g transform="matrix(1 0 0 1 -388 -82 )">
    <path d="M 24.6907552083333 19.55625  C 24.8969184027778 19.79375  25 20.075  25 20.4  L 25 22.8  C 25 23.125  24.8969184027778 23.40625  24.6907552083333 23.64375  C 24.4845920138889 23.88125  24.2404513888889 24  23.9583333333333 24  L 1.04166666666667 24  C 0.759548611111111 24  0.515407986111111 23.88125  0.309244791666667 23.64375  C 0.103081597222222 23.40625  0 23.125  0 22.8  L 0 20.4  C 0 20.075  0.103081597222222 19.79375  0.309244791666667 19.55625  C 0.515407986111111 19.31875  0.759548611111111 19.2  1.04166666666667 19  L 23.9583333333333 19  C 24.2404513888889 19.2  24.4845920138889 19.31875  24.6907552083333 19.55625  Z M 24.6907552083333 9.95625  C 24.8969184027778 10.19375  25 10.475  25 10.8  L 25 13.2  C 25 13.525  24.8969184027778 13.80625  24.6907552083333 14.04375  C 24.4845920138889 14.28125  24.2404513888889 14.4  23.9583333333333 14  L 1.04166666666667 14  C 0.759548611111111 14.4  0.515407986111111 14.28125  0.309244791666667 14.04375  C 0.103081597222222 13.80625  0 13.525  0 13.2  L 0 10.8  C 0 10.475  0.103081597222222 10.19375  0.309244791666667 9.95625  C 0.515407986111111 9.71875  0.759548611111111 9.6  1.04166666666667 10  L 23.9583333333333 10  C 24.2404513888889 9.6  24.4845920138889 9.71875  24.6907552083333 9.95625  Z M 24.6907552083333 0.356250000000001  C 24.8969184027778 0.593749999999998  25 0.874999999999998  25 1.2  L 25 3.6  C 25 3.925  24.8969184027778 4.20625  24.6907552083333 4.44375  C 24.4845920138889 4.68125  24.2404513888889 4.8  23.9583333333333 5  L 1.04166666666667 5  C 0.759548611111111 4.8  0.515407986111111 4.68125  0.309244791666667 4.44375  C 0.103081597222222 4.20625  0 3.925  0 3.6  L 0 1.2  C 0 0.874999999999998  0.103081597222222 0.593749999999998  0.309244791666667 0.356250000000001  C 0.515407986111111 0.118749999999999  0.759548611111111 0  1.04166666666667 0  L 23.9583333333333 0  C 24.2404513888889 0  24.4845920138889 0.118749999999999  24.6907552083333 0.356250000000001  Z " fill-rule="nonzero" fill="#000000" stroke="none" transform="matrix(1 0 0 1 388 82 )" />
  </g>
</svg>