<?xml version="1.0" encoding="utf-8"?>
<svg version="1.1" xmlns:xlink="http://www.w3.org/1999/xlink" width="335px" height="128px" xmlns="http://www.w3.org/2000/svg">
  <g transform="matrix(1 0 0 1 -497 -929 )">
    <path d="M 497 929  L 832 929  L 832 1057  L 497 1057  L 497 929  " fill-rule="nonzero" fill="#cccccc" stroke="none" />
    <path d="M 506 938  L 823 938  L 823 1048  L 506 1048  L 506 938  " fill-rule="nonzero" fill="#ffffff" stroke="none" />
    <path d="M 680.8 967.4  C 675.424 967.4  671.2 963.176  671.2 957.8  C 671.2 952.424  675.424 948.2  680.8 948.2  C 686.176 948.2  690.4 952.424  690.4 957.8  C 690.4 963.176  686.176 967.4  680.8 967.4  " fill-rule="nonzero" fill="#cccccc" stroke="none" />
    <path d="M 509 1045  L 509 987.8  L 586.75 961.8  L 695.6 1021.1576119403  L 757.8 977.4  L 820 1021.1576119403  L 820 1045  L 509 1045  " fill-rule="nonzero" fill="#169bd5" stroke="none" />
  </g>
</svg>