<?xml version="1.0" encoding="utf-8"?>
<svg version="1.1" xmlns:xlink="http://www.w3.org/1999/xlink" width="9px" height="15px" xmlns="http://www.w3.org/2000/svg">
  <g transform="matrix(1 0 0 1 -1442 -1777 )">
    <path d="M 8.3203125 2.26004464285714  C 8.7734375 3.03571428571428  9 3.88950892857143  9 4.82142857142857  C 9 6.0546875  8.61588541666667 7.12751116071429  7.84765625 8.03989955357143  C 7.07942708333333 8.95228794642857  6.13020833333333 9.47544642857143  5 9.609375  L 5 11.7857142857143  L 6.75 11.7857142857143  C 6.82291666666667 11.7857142857143  6.8828125 11.8108258928571  6.9296875 11.8610491071429  C 6.9765625 11.9112723214286  7 11.9754464285714  7 12.0535714285714  L 7 12.5892857142857  C 7 12.6674107142857  6.9765625 12.7315848214286  6.9296875 12.7818080357143  C 6.8828125 12.83203125  6.82291666666667 12.8571428571429  6.75 12.8571428571429  L 5 12.8571428571429  L 5 14.7321428571429  C 5 14.8102678571429  4.9765625 14.8744419642857  4.9296875 14.9246651785714  C 4.8828125 14.9748883928571  4.82291666666667 15  4.75 15  L 4.25 15  C 4.17708333333333 15  4.1171875 14.9748883928571  4.0703125 14.9246651785714  C 4.0234375 14.8744419642857  4 14.8102678571429  4 14.7321428571429  L 4 12.8571428571429  L 2.25 12.8571428571429  C 2.17708333333333 12.8571428571429  2.1171875 12.83203125  2.0703125 12.7818080357143  C 2.0234375 12.7315848214286  2 12.6674107142857  2 12.5892857142857  L 2 12.0535714285714  C 2 11.9754464285714  2.0234375 11.9112723214286  2.0703125 11.8610491071429  C 2.1171875 11.8108258928571  2.17708333333333 11.7857142857143  2.25 11.7857142857143  L 4 11.7857142857143  L 4 9.609375  C 3.21875 9.52008928571429  2.51171875 9.23270089285714  1.87890625 8.74720982142857  C 1.24609375 8.26171875  0.76171875 7.63671875  0.42578125 6.87220982142857  C 0.08984375 6.10770089285714  -0.046875 5.29296875  0.015625 4.42801339285714  C 0.0729166666666667 3.68024553571428  0.282552083333333 2.98549107142857  0.64453125 2.34375  C 1.00651041666667 1.70200892857143  1.48046875 1.17745535714286  2.06640625 0.770089285714285  C 2.65234375 0.362723214285713  3.29166666666667 0.1171875  3.984375 0.0334821428571436  C 4.86979166666667 -0.0725446428571463  5.70052083333333 0.0781249999999972  6.4765625 0.485491071428571  C 7.25260416666667 0.892857142857141  7.8671875 1.484375  8.3203125 2.26004464285714  Z M 2.02734375 2.17215401785714  C 1.34244791666667 2.90597098214286  1 3.7890625  1 4.82142857142857  C 1 5.85379464285714  1.34244791666667 6.73688616071428  2.02734375 7.470703125  C 2.71223958333333 8.20452008928571  3.53645833333333 8.57142857142857  4.5 8.57142857142857  C 5.46354166666667 8.57142857142857  6.28776041666667 8.20452008928571  6.97265625 7.470703125  C 7.65755208333333 6.73688616071428  8 5.85379464285714  8 4.82142857142857  C 8 3.7890625  7.65755208333333 2.90597098214286  6.97265625 2.17215401785714  C 6.28776041666667 1.43833705357143  5.46354166666667 1.07142857142857  4.5 1.07142857142857  C 3.53645833333333 1.07142857142857  2.71223958333333 1.43833705357143  2.02734375 2.17215401785714  Z " fill-rule="nonzero" fill="#d9001b" stroke="none" transform="matrix(1 0 0 1 1442 1777 )" />
  </g>
</svg>