<?xml version="1.0" encoding="utf-8"?>
<svg version="1.1" xmlns:xlink="http://www.w3.org/1999/xlink" width="20px" height="20px" xmlns="http://www.w3.org/2000/svg">
  <g transform="matrix(1 0 0 1 -146 -886 )">
    <path d="M 156 886  C 161.6 886  166 890.4  166 896  C 166 901.6  161.6 906  156 906  C 150.4 906  146 901.6  146 896  C 146 890.4  150.4 886  156 886  Z " fill-rule="nonzero" fill="#d9001b" stroke="none" />
    <path d="M 156 886.5  C 161.32 886.5  165.5 890.68  165.5 896  C 165.5 901.32  161.32 905.5  156 905.5  C 150.68 905.5  146.5 901.32  146.5 896  C 146.5 890.68  150.68 886.5  156 886.5  Z " stroke-width="1" stroke="#797979" fill="none" />
  </g>
</svg>