<?xml version="1.0" encoding="utf-8"?>
<svg version="1.1" xmlns:xlink="http://www.w3.org/1999/xlink" width="301px" height="68px" xmlns="http://www.w3.org/2000/svg">
  <g transform="matrix(1 0 0 1 -101 -1021 )">
    <path d="M 101 1021  L 402 1021  L 402 1089  L 101 1089  L 101 1021  " fill-rule="nonzero" fill="#cccccc" stroke="none" />
    <path d="M 106 1026  L 397 1026  L 397 1084  L 106 1084  L 106 1026  " fill-rule="nonzero" fill="#ffffff" stroke="none" />
    <path d="M 262.62 1041.4  C 259.764 1041.4  257.52 1039.156  257.52 1036.3  C 257.52 1033.444  259.764 1031.2  262.62 1031.2  C 265.476 1031.2  267.72 1033.444  267.72 1036.3  C 267.72 1039.156  265.476 1041.4  262.62 1041.4  " fill-rule="nonzero" fill="#cccccc" stroke="none" />
    <path d="M 108 1083  L 108 1052.75  L 180 1039  L 280.8 1075.54485049834  L 338.4 1047.25  L 396 1075.54485049834  L 396 1083  L 108 1083  " fill-rule="nonzero" fill="#169bd5" stroke="none" />
  </g>
</svg>