<?xml version="1.0" encoding="utf-8"?>
<svg version="1.1" xmlns:xlink="http://www.w3.org/1999/xlink" width="301px" height="68px" xmlns="http://www.w3.org/2000/svg">
  <g transform="matrix(1 0 0 1 -101 -965 )">
    <path d="M 101 965  L 402 965  L 402 1033  L 101 1033  L 101 965  " fill-rule="nonzero" fill="#cccccc" stroke="none" />
    <path d="M 106 970  L 397 970  L 397 1028  L 106 1028  L 106 970  " fill-rule="nonzero" fill="#ffffff" stroke="none" />
    <path d="M 262.62 985.4  C 259.764 985.4  257.52 983.156  257.52 980.3  C 257.52 977.444  259.764 975.2  262.62 975.2  C 265.476 975.2  267.72 977.444  267.72 980.3  C 267.72 983.156  265.476 985.4  262.62 985.4  " fill-rule="nonzero" fill="#cccccc" stroke="none" />
    <path d="M 108 1027  L 108 996.75  L 180 983  L 280.8 1019.54485049834  L 338.4 991.25  L 396 1019.54485049834  L 396 1027  L 108 1027  " fill-rule="nonzero" fill="#169bd5" stroke="none" />
  </g>
</svg>