<?xml version="1.0" encoding="utf-8"?>
<svg version="1.1" xmlns:xlink="http://www.w3.org/1999/xlink" width="12px" height="19px" xmlns="http://www.w3.org/2000/svg">
  <g transform="matrix(1 0 0 1 -811 -1680 )">
    <path d="M 11.7938144329897 9.06212424849699  C 11.9312714776632 9.18904475617902  12 9.33500334001336  12 9.5  C 12 9.66499665998664  11.9312714776632 9.81095524382097  11.7938144329897 9.93787575150301  L 2.18556701030928 18.809619238477  C 2.04810996563574 18.936539746159  1.89003436426117 19  1.71134020618557 19  C 1.53264604810997 19  1.3745704467354 18.936539746159  1.23711340206186 18.809619238477  L 0.206185567010309 17.8577154308617  C 0.0687285223367698 17.7307949231797  0 17.5848363393454  0 17.4198396793587  C 0 17.2548430193721  0.0687285223367698 17.1088844355377  0.206185567010309 16.9819639278557  L 8.30927835051546 9.5  L 0.206185567010309 2.01803607214429  C 0.0687285223367698 1.89111556446226  0 1.74515698062792  0 1.58016032064128  C 0 1.41516366065464  0.0687285223367698 1.26920507682031  0.206185567010309 1.14228456913828  L 1.23711340206186 0.190380761523046  C 1.3745704467354 0.0634602538410147  1.53264604810997 0  1.71134020618557 0  C 1.89003436426117 0  2.04810996563574 0.0634602538410147  2.18556701030928 0.190380761523046  L 11.7938144329897 9.06212424849699  Z " fill-rule="nonzero" fill="#000000" stroke="none" transform="matrix(1 0 0 1 811 1680 )" />
  </g>
</svg>