<?xml version="1.0" encoding="utf-8"?>
<svg version="1.1" xmlns:xlink="http://www.w3.org/1999/xlink" width="61px" height="60px" xmlns="http://www.w3.org/2000/svg">
  <defs>
    <mask fill="white" id="clip395">
      <path d="M 940 1706  C 923.35 1706  910 1692.65  910 1676  L 910 1676  C 910 1659.35  923.35 1646  940 1646  L 941 1646  C 957.65 1646  971 1659.35  971 1676  L 971 1676  C 971 1692.65  957.65 1706  941 1706  " fill-rule="evenodd" />
    </mask>
  </defs>
  <g transform="matrix(1 0 0 1 -910 -1646 )">
    <path d="M 910 1646  L 971 1646  L 971 1706  L 910 1706  L 910 1646  " fill-rule="nonzero" fill="#cccccc" stroke="none" mask="url(#clip395)" />
    <path d="M 914 1650  L 967 1650  L 967 1702  L 914 1702  L 914 1650  " fill-rule="nonzero" fill="#ffffff" stroke="none" mask="url(#clip395)" />
    <path d="M 946.22 1664  C 943.7 1664  941.72 1662.02  941.72 1659.5  C 941.72 1656.98  943.7 1655  946.22 1655  C 948.74 1655  950.72 1656.98  950.72 1659.5  C 950.72 1662.02  948.74 1664  946.22 1664  " fill-rule="nonzero" fill="#cccccc" stroke="none" mask="url(#clip395)" />
    <path d="M 916 1701  L 916 1674.05  L 928.5 1661.8  L 946 1672.08196721311  L 956 1669.15  L 966 1672.08196721311  L 966 1701  L 916 1701  " fill-rule="nonzero" fill="#169bd5" stroke="none" mask="url(#clip395)" />
  </g>
</svg>