<?xml version="1.0" encoding="utf-8"?>
<svg version="1.1" xmlns:xlink="http://www.w3.org/1999/xlink" width="335px" height="128px" xmlns="http://www.w3.org/2000/svg">
  <g transform="matrix(1 0 0 1 -497 -893 )">
    <path d="M 497 893  L 832 893  L 832 1021  L 497 1021  L 497 893  " fill-rule="nonzero" fill="#cccccc" stroke="none" />
    <path d="M 506 902  L 823 902  L 823 1012  L 506 1012  L 506 902  " fill-rule="nonzero" fill="#ffffff" stroke="none" />
    <path d="M 680.8 931.4  C 675.424 931.4  671.2 927.176  671.2 921.8  C 671.2 916.424  675.424 912.2  680.8 912.2  C 686.176 912.2  690.4 916.424  690.4 921.8  C 690.4 927.176  686.176 931.4  680.8 931.4  " fill-rule="nonzero" fill="#cccccc" stroke="none" />
    <path d="M 509 1009  L 509 951.8  L 586.75 925.8  L 695.6 985.157611940298  L 757.8 941.4  L 820 985.157611940298  L 820 1009  L 509 1009  " fill-rule="nonzero" fill="#169bd5" stroke="none" />
  </g>
</svg>