<?xml version="1.0" encoding="utf-8"?>
<svg version="1.1" xmlns:xlink="http://www.w3.org/1999/xlink" width="14px" height="14px" xmlns="http://www.w3.org/2000/svg">
  <g transform="matrix(1 0 0 1 -620 -1771 )">
    <path d="M 9.625 0  L 13.4166666666667 0  C 13.5746527777778 0  13.7113715277778 0.0577256944444438  13.8268229166667 0.173177083333333  C 13.9422743055556 0.28862847222222  14 0.42534722222222  14 0.583333333333333  L 14 4.375  C 14 4.46006944444444  13.97265625 4.52994791666667  13.91796875 4.58463541666667  C 13.86328125 4.63932291666667  13.7934027777778 4.66666666666667  13.7083333333333 4.66666666666667  L 13.125 4.66666666666667  C 13.0399305555556 4.66666666666667  12.9700520833333 4.63932291666667  12.9153645833333 4.58463541666667  C 12.8606770833333 4.52994791666667  12.8333333333333 4.46006944444444  12.8333333333333 4.375  L 12.8333333333333 1.98697916666667  L 9.3515625 5.47786458333333  C 10.1171875 6.42578125  10.5 7.51649305555556  10.5 8.75  C 10.5 9.4609375  10.3617621527778 10.1399739583333  10.0852864583333 10.787109375  C 9.80881076388889 11.4342447916667  9.43511284722222 11.9932725694444  8.96419270833333 12.4641927083333  C 8.49327256944444 12.9351128472222  7.93424479166667 13.3088107638889  7.287109375 13.5852864583333  C 6.63997395833333 13.8617621527778  5.9609375 14  5.25 14  C 4.5390625 14  3.86002604166667 13.8617621527778  3.212890625 13.5852864583333  C 2.56575520833333 13.3088107638889  2.00672743055556 12.9351128472222  1.53580729166667 12.4641927083333  C 1.06488715277778 11.9932725694444  0.691189236111111 11.4342447916667  0.414713541666667 10.787109375  C 0.138237847222222 10.1399739583333  0 9.4609375  0 8.75  C 0 8.0390625  0.138237847222222 7.36002604166667  0.414713541666667 6.712890625  C 0.691189236111111 6.06575520833333  1.06488715277778 5.50672743055555  1.53580729166667 5.03580729166667  C 2.00672743055556 4.56488715277778  2.56575520833333 4.19118923611111  3.212890625 3.91471354166667  C 3.86002604166667 3.63823784722222  4.5390625 3.5  5.25 3.5  C 6.48350694444444 3.5  7.57421875 3.8828125  8.52213541666667 4.6484375  L 12.00390625 1.16666666666667  L 9.625 1.16666666666667  C 9.53993055555556 1.16666666666667  9.47005208333333 1.13932291666667  9.41536458333333 1.08463541666667  C 9.36067708333333 1.02994791666667  9.33333333333333 0.960069444444444  9.33333333333333 0.875  L 9.33333333333333 0.291666666666667  C 9.33333333333333 0.20659722222222  9.36067708333333 0.13671875  9.41536458333333 0.08203125  C 9.47005208333333 0.02734375  9.53993055555556 0  9.625 0  Z M 2.365234375 11.634765625  C 3.16427951388889 12.4338107638889  4.12586805555556 12.8333333333333  5.25 12.8333333333333  C 6.37413194444444 12.8333333333333  7.33572048611111 12.4338107638889  8.134765625 11.634765625  C 8.93381076388889 10.8357204861111  9.33333333333333 9.87413194444445  9.33333333333333 8.75  C 9.33333333333333 7.62586805555556  8.93381076388889 6.66427951388889  8.134765625 5.865234375  C 7.33572048611111 5.06618923611111  6.37413194444444 4.66666666666667  5.25 4.66666666666667  C 4.12586805555556 4.66666666666667  3.16427951388889 5.06618923611111  2.365234375 5.865234375  C 1.56618923611111 6.66427951388889  1.16666666666667 7.62586805555556  1.16666666666667 8.75  C 1.16666666666667 9.87413194444445  1.56618923611111 10.8357204861111  2.365234375 11.634765625  Z " fill-rule="nonzero" fill="#02a7f0" stroke="none" transform="matrix(1 0 0 1 620 1771 )" />
  </g>
</svg>