<?xml version="1.0" encoding="utf-8"?>
<svg version="1.1" xmlns:xlink="http://www.w3.org/1999/xlink" width="19px" height="18px" xmlns="http://www.w3.org/2000/svg">
  <g transform="matrix(1 0 0 1 -3009 -309 )">
    <path d="M 3018.5 309  C 3023.82 309  3028 312.96  3028 318  C 3028 323.04  3023.82 327  3018.5 327  C 3013.18 327  3009 323.04  3009 318  C 3009 312.96  3013.18 309  3018.5 309  Z " fill-rule="nonzero" fill="#ffffff" stroke="none" />
    <path d="M 3018.5 309.5  C 3023.54 309.5  3027.5 313.24  3027.5 318  C 3027.5 322.76  3023.54 326.5  3018.5 326.5  C 3013.46 326.5  3009.5 322.76  3009.5 318  C 3009.5 313.24  3013.46 309.5  3018.5 309.5  Z " stroke-width="1" stroke="#797979" fill="none" />
  </g>
</svg>