<?xml version="1.0" encoding="utf-8"?>
<svg version="1.1" xmlns:xlink="http://www.w3.org/1999/xlink" width="12px" height="17px" xmlns="http://www.w3.org/2000/svg">
  <g transform="matrix(1 0 0 1 -64 -64 )">
    <path d="M 11.7938144329897 1.02204408817635  C 11.9312714776632 1.13560454241817  12 1.26619906479626  12 1.41382765531062  C 12 1.56145624582498  11.9312714776632 1.69205076820307  11.7938144329897 1.80561122244489  L 3.69072164948454 8.5  L 11.7938144329897 15.1943887775551  C 11.9312714776632 15.3079492317969  12 15.438543754175  12 15.5861723446894  C 12 15.7338009352037  11.9312714776632 15.8643954575818  11.7938144329897 15.9779559118236  L 10.7628865979381 16.8296593186373  C 10.6254295532646 16.9432197728791  10.46735395189 17  10.2886597938144 17  C 10.1099656357388 17  9.95189003436426 16.9432197728791  9.81443298969072 16.8296593186373  L 0.206185567010309 8.89178356713427  C 0.0687285223367698 8.77822311289245  0 8.64762859051436  0 8.5  C 0 8.35237140948564  0.0687285223367698 8.22177688710755  0.206185567010309 8.10821643286573  L 9.81443298969072 0.170340681362726  C 9.95189003436426 0.0567802271209079  10.1099656357388 0  10.2886597938144 0  C 10.46735395189 0  10.6254295532646 0.0567802271209079  10.7628865979381 0.170340681362726  L 11.7938144329897 1.02204408817635  Z " fill-rule="nonzero" fill="#000000" stroke="none" transform="matrix(1 0 0 1 64 64 )" />
  </g>
</svg>