<?xml version="1.0" encoding="utf-8"?>
<svg version="1.1" xmlns:xlink="http://www.w3.org/1999/xlink" width="1920px" height="1096px" xmlns="http://www.w3.org/2000/svg">
  <g>
    <path d="M 0 0  L 1920 0  L 1920 1096  L 0 1096  L 0 0  " fill-rule="nonzero" fill="#cccccc" stroke="none" />
    <path d="M 77 77  L 1843 77  L 1843 1019  L 77 1019  L 77 77  " fill-rule="nonzero" fill="#ffffff" stroke="none" />
    <path d="M 1080.6 328.8  C 1034.568 328.8  998.4 292.632  998.4 246.6  C 998.4 200.568  1034.568 164.4  1080.6 164.4  C 1126.632 164.4  1162.8 200.568  1162.8 246.6  C 1162.8 292.632  1126.632 328.8  1080.6 328.8  " fill-rule="nonzero" fill="#cccccc" stroke="none" />
    <path d="M 105 992  L 105 504.15  L 532.75 282.4  L 1131.6 688.2025  L 1473.8 415.45  L 1816 688.2025  L 1816 992  L 105 992  " fill-rule="nonzero" fill="#169bd5" stroke="none" />
  </g>
</svg>