<?xml version="1.0" encoding="utf-8"?>
<svg version="1.1" xmlns:xlink="http://www.w3.org/1999/xlink" width="19px" height="17px" xmlns="http://www.w3.org/2000/svg">
  <g transform="matrix(1 0 0 1 -1223 -407 )">
    <path d="M 18.5732421875 10.0218098958333  C 18.6515842013889 10.0919053819444  18.6907552083333 10.1749131944444  18.6907552083333 10.2708333333333  C 18.6907552083333 10.3077256944444  18.6866319444444 10.3335503472222  18.6783854166667 10.3483072916667  C 18.1506076388889 12.3257378472222  17.0455729166667 13.9287109375  15.36328125 15.1572265625  C 13.6809895833333 16.3857421875  11.7100694444444 17  9.45052083333333 17  C 8.24652777777778 17  7.08170572916667 16.7970920138889  5.9560546875 16.3912760416667  C 4.83040364583333 15.9854600694444  3.82638888888889 15.40625  2.94401041666667 14.6536458333333  L 1.34830729166667 16.0813802083333  C 1.19162326388889 16.2215711805556  1.00607638888889 16.2916666666667  0.791666666666667 16.2916666666667  C 0.577256944444445 16.2916666666667  0.391710069444444 16.2215711805556  0.235026041666667 16.0813802083333  C 0.0783420138888889 15.9411892361111  0 15.7751736111111  0 15.5833333333333  L 0 10.625  C 0 10.4331597222222  0.0783420138888889 10.2671440972222  0.235026041666667 10.126953125  C 0.391710069444444 9.98676215277778  0.577256944444445 9.91666666666667  0.791666666666667 9.91666666666667  L 6.33333333333333 9.91666666666667  C 6.54774305555556 9.91666666666667  6.73328993055556 9.98676215277778  6.88997395833333 10.126953125  C 7.04665798611111 10.2671440972222  7.125 10.4331597222222  7.125 10.625  C 7.125 10.8168402777778  7.04665798611111 10.9828559027778  6.88997395833333 11.123046875  L 5.1953125 12.6393229166667  C 5.78081597222222 13.1263020833333  6.44466145833333 13.5026041666667  7.18684895833333 13.7682291666667  C 7.92903645833333 14.0338541666667  8.70008680555556 14.1666666666667  9.5 14.1666666666667  C 10.6050347222222 14.1666666666667  11.6358506944444 13.9268663194444  12.5924479166667 13.447265625  C 13.5490451388889 12.9676649305556  14.3159722222222 12.3072916666667  14.8932291666667 11.4661458333333  C 14.9839409722222 11.3407118055556  15.2024739583333 10.9090711805556  15.548828125 10.1712239583333  C 15.6148003472222 10.0015190972222  15.7384982638889 9.91666666666667  15.919921875 9.91666666666667  L 18.294921875 9.91666666666667  C 18.4021267361111 9.91666666666667  18.4949001736111 9.95171440972222  18.5732421875 10.0218098958333  Z M 18.7649739583333 0.918619791666667  C 18.9216579861111 1.05881076388889  19 1.22482638888889  19 1.41666666666667  L 19 6.375  C 19 6.56684027777778  18.9216579861111 6.73285590277778  18.7649739583333 6.873046875  C 18.6082899305556 7.01323784722222  18.4227430555556 7.08333333333333  18.2083333333333 7.08333333333333  L 12.6666666666667 7.08333333333333  C 12.4522569444444 7.08333333333333  12.2667100694444 7.01323784722222  12.1100260416667 6.873046875  C 11.9533420138889 6.73285590277778  11.875 6.56684027777778  11.875 6.375  C 11.875 6.18315972222222  11.9533420138889 6.01714409722222  12.1100260416667 5.876953125  L 13.8170572916667 4.349609375  C 12.5965711805556 3.33875868055555  11.1575520833333 2.83333333333333  9.5 2.83333333333333  C 8.39496527777778 2.83333333333333  7.36414930555556 3.07313368055555  6.40755208333333 3.552734375  C 5.45095486111111 4.03233506944444  4.68402777777778 4.69270833333333  4.10677083333333 5.53385416666667  C 4.01605902777778 5.65928819444444  3.79752604166667 6.09092881944444  3.451171875 6.82877604166667  C 3.38519965277778 6.99848090277778  3.26150173611111 7.08333333333333  3.080078125 7.08333333333333  L 0.618489583333333 7.08333333333333  C 0.511284722222222 7.08333333333333  0.418511284722222 7.04828559027778  0.340169270833333 6.97819010416667  C 0.261827256944444 6.90809461805556  0.22265625 6.82508680555556  0.22265625 6.72916666666667  L 0.22265625 6.65169270833333  C 0.758680555555556 4.67426215277778  1.87196180555556 3.0712890625  3.5625 1.8427734375  C 5.25303819444444 0.6142578125  7.23220486111111 0  9.5 0  C 10.7039930555556 0  11.875 0.204752604166667  13.0130208333333 0.6142578125  C 14.1510416666667 1.02376302083333  15.1612413194444 1.60112847222222  16.0436197916667 2.34635416666667  L 17.6516927083333 0.918619791666667  C 17.8083767361111 0.778428819444443  17.9939236111111 0.708333333333333  18.2083333333333 0.708333333333333  C 18.4227430555556 0.708333333333333  18.6082899305556 0.778428819444443  18.7649739583333 0.918619791666667  Z " fill-rule="nonzero" fill="#000000" stroke="none" transform="matrix(1 0 0 1 1223 407 )" />
  </g>
</svg>