<?xml version="1.0" encoding="utf-8"?>
<svg version="1.1" xmlns:xlink="http://www.w3.org/1999/xlink" width="75px" height="63px" xmlns="http://www.w3.org/2000/svg">
  <g transform="matrix(1 0 0 1 -1788 -786 )">
    <path d="M 1788 786  L 1863 786  L 1863 849  L 1788 849  L 1788 786  " fill-rule="nonzero" fill="#cccccc" stroke="none" />
    <path d="M 1792 790  L 1859 790  L 1859 845  L 1792 845  L 1792 790  " fill-rule="nonzero" fill="#ffffff" stroke="none" />
    <path d="M 1831.725 804.9  C 1829.079 804.9  1827 802.821  1827 800.175  C 1827 797.529  1829.079 795.45  1831.725 795.45  C 1834.371 795.45  1836.45 797.529  1836.45 800.175  C 1836.45 802.821  1834.371 804.9  1831.725 804.9  " fill-rule="nonzero" fill="#cccccc" stroke="none" />
    <path d="M 1794 844  L 1794 815.4  L 1810 802.4  L 1832.4 817.792  L 1845.2 810.2  L 1858 817.792  L 1858 844  L 1794 844  " fill-rule="nonzero" fill="#169bd5" stroke="none" />
  </g>
</svg>