<?xml version="1.0" encoding="utf-8"?>
<svg version="1.1" xmlns:xlink="http://www.w3.org/1999/xlink" width="14px" height="19px" xmlns="http://www.w3.org/2000/svg">
  <g transform="matrix(1 0 0 1 -920 -101 )">
    <path d="M 13.7594501718213 1.14228456913828  C 13.9198167239404 1.26920507682031  14 1.41516366065464  14 1.58016032064128  C 14 1.74515698062792  13.9198167239404 1.89111556446226  13.7594501718213 2.01803607214429  L 4.30584192439863 9.5  L 13.7594501718213 16.9819639278557  C 13.9198167239404 17.1088844355377  14 17.2548430193721  14 17.4198396793587  C 14 17.5848363393454  13.9198167239404 17.7307949231797  13.7594501718213 17.8577154308617  L 12.5567010309278 18.809619238477  C 12.3963344788087 18.936539746159  12.2119129438717 19  12.0034364261168 19  C 11.794959908362 19  11.610538373425 18.936539746159  11.4501718213058 18.809619238477  L 0.240549828178694 9.93787575150301  C 0.0801832760595648 9.81095524382097  0 9.66499665998664  0 9.5  C 0 9.33500334001336  0.0801832760595648 9.18904475617902  0.240549828178694 9.06212424849699  L 11.4501718213058 0.190380761523046  C 11.610538373425 0.0634602538410147  11.794959908362 0  12.0034364261168 0  C 12.2119129438717 0  12.3963344788087 0.0634602538410147  12.5567010309278 0.190380761523046  L 13.7594501718213 1.14228456913828  Z " fill-rule="nonzero" fill="#000000" stroke="none" transform="matrix(1 0 0 1 920 101 )" />
  </g>
</svg>