<?xml version="1.0" encoding="utf-8"?>
<svg version="1.1" xmlns:xlink="http://www.w3.org/1999/xlink" width="75px" height="57px" xmlns="http://www.w3.org/2000/svg">
  <g transform="matrix(1 0 0 1 -1343 -635 )">
    <path d="M 1343 635  L 1418 635  L 1418 692  L 1343 692  L 1343 635  " fill-rule="nonzero" fill="#cccccc" stroke="none" />
    <path d="M 1347 639  L 1414 639  L 1414 688  L 1347 688  L 1347 639  " fill-rule="nonzero" fill="#ffffff" stroke="none" />
    <path d="M 1386.275 652.1  C 1383.881 652.1  1382 650.219  1382 647.825  C 1382 645.431  1383.881 643.55  1386.275 643.55  C 1388.669 643.55  1390.55 645.431  1390.55 647.825  C 1390.55 650.219  1388.669 652.1  1386.275 652.1  " fill-rule="nonzero" fill="#cccccc" stroke="none" />
    <path d="M 1349 687  L 1349 661.7  L 1365 650.2  L 1387.4 666.024  L 1400.2 657.1  L 1413 666.024  L 1413 687  L 1349 687  " fill-rule="nonzero" fill="#169bd5" stroke="none" />
  </g>
</svg>