<?xml version="1.0" encoding="utf-8"?>
<svg version="1.1" xmlns:xlink="http://www.w3.org/1999/xlink" width="75px" height="57px" xmlns="http://www.w3.org/2000/svg">
  <g transform="matrix(1 0 0 1 -1350 -774 )">
    <path d="M 1350 774  L 1425 774  L 1425 831  L 1350 831  L 1350 774  " fill-rule="nonzero" fill="#cccccc" stroke="none" />
    <path d="M 1354 778  L 1421 778  L 1421 827  L 1354 827  L 1354 778  " fill-rule="nonzero" fill="#ffffff" stroke="none" />
    <path d="M 1393.275 791.1  C 1390.881 791.1  1389 789.219  1389 786.825  C 1389 784.431  1390.881 782.55  1393.275 782.55  C 1395.669 782.55  1397.55 784.431  1397.55 786.825  C 1397.55 789.219  1395.669 791.1  1393.275 791.1  " fill-rule="nonzero" fill="#cccccc" stroke="none" />
    <path d="M 1356 826  L 1356 800.7  L 1372 789.2  L 1394.4 805.024  L 1407.2 796.1  L 1420 805.024  L 1420 826  L 1356 826  " fill-rule="nonzero" fill="#169bd5" stroke="none" />
  </g>
</svg>