<?xml version="1.0" encoding="utf-8"?>
<svg version="1.1" xmlns:xlink="http://www.w3.org/1999/xlink" width="75px" height="63px" xmlns="http://www.w3.org/2000/svg">
  <g transform="matrix(1 0 0 1 -1767 -635 )">
    <path d="M 1767 635  L 1842 635  L 1842 698  L 1767 698  L 1767 635  " fill-rule="nonzero" fill="#cccccc" stroke="none" />
    <path d="M 1771 639  L 1838 639  L 1838 694  L 1771 694  L 1771 639  " fill-rule="nonzero" fill="#ffffff" stroke="none" />
    <path d="M 1810.725 653.9  C 1808.079 653.9  1806 651.821  1806 649.175  C 1806 646.529  1808.079 644.45  1810.725 644.45  C 1813.371 644.45  1815.45 646.529  1815.45 649.175  C 1815.45 651.821  1813.371 653.9  1810.725 653.9  " fill-rule="nonzero" fill="#cccccc" stroke="none" />
    <path d="M 1773 693  L 1773 664.4  L 1789 651.4  L 1811.4 666.792  L 1824.2 659.2  L 1837 666.792  L 1837 693  L 1773 693  " fill-rule="nonzero" fill="#169bd5" stroke="none" />
  </g>
</svg>