<?xml version="1.0" encoding="utf-8"?>
<svg version="1.1" xmlns:xlink="http://www.w3.org/1999/xlink" width="12px" height="12px" viewBox="2470 774  12 12" xmlns="http://www.w3.org/2000/svg">
  <path d="M 2476 774  C 2479.36 774  2482 776.64  2482 780  C 2482 783.36  2479.36 786  2476 786  C 2472.64 786  2470 783.36  2470 780  C 2470 776.64  2472.64 774  2476 774  Z " fill-rule="nonzero" fill="#f0f0f0" stroke="none" />
  <path d="M 2476 774.5  C 2479.08 774.5  2481.5 776.92  2481.5 780  C 2481.5 783.08  2479.08 785.5  2476 785.5  C 2472.92 785.5  2470.5 783.08  2470.5 780  C 2470.5 776.92  2472.92 774.5  2476 774.5  Z " stroke-width="1" stroke="#797979" fill="none" />
  <path d="M 2476 783  C 2474.32 783  2473 781.68  2473 780  C 2473 778.32  2474.32 777  2476 777  C 2477.68 777  2479 778.32  2479 780  C 2479 781.68  2477.68 783  2476 783  " fill-rule="nonzero" fill="#797979" stroke="none" />
</svg>