<?xml version="1.0" encoding="utf-8"?>
<svg version="1.1" xmlns:xlink="http://www.w3.org/1999/xlink" width="12px" height="12px" viewBox="1746 774  12 12" xmlns="http://www.w3.org/2000/svg">
  <path d="M 1752 774  C 1755.36 774  1758 776.64  1758 780  C 1758 783.36  1755.36 786  1752 786  C 1748.64 786  1746 783.36  1746 780  C 1746 776.64  1748.64 774  1752 774  Z " fill-rule="nonzero" fill="#ffffff" stroke="none" />
  <path d="M 1752 774.5  C 1755.08 774.5  1757.5 776.92  1757.5 780  C 1757.5 783.08  1755.08 785.5  1752 785.5  C 1748.92 785.5  1746.5 783.08  1746.5 780  C 1746.5 776.92  1748.92 774.5  1752 774.5  Z " stroke-width="1" stroke="#797979" fill="none" />
  <path d="M 1752 783  C 1750.32 783  1749 781.68  1749 780  C 1749 778.32  1750.32 777  1752 777  C 1753.68 777  1755 778.32  1755 780  C 1755 781.68  1753.68 783  1752 783  " fill-rule="nonzero" fill="#797979" stroke="none" />
</svg>