<?xml version="1.0" encoding="utf-8"?>
<svg version="1.1" xmlns:xlink="http://www.w3.org/1999/xlink" width="12px" height="12px" viewBox="1853 774  12 12" xmlns="http://www.w3.org/2000/svg">
  <path d="M 1859 774  C 1862.36 774  1865 776.64  1865 780  C 1865 783.36  1862.36 786  1859 786  C 1855.64 786  1853 783.36  1853 780  C 1853 776.64  1855.64 774  1859 774  Z " fill-rule="nonzero" fill="#ffffff" stroke="none" />
  <path d="M 1859 774.5  C 1862.08 774.5  1864.5 776.92  1864.5 780  C 1864.5 783.08  1862.08 785.5  1859 785.5  C 1855.92 785.5  1853.5 783.08  1853.5 780  C 1853.5 776.92  1855.92 774.5  1859 774.5  Z " stroke-width="1" stroke="#797979" fill="none" />
  <path d="M 1859 783  C 1857.32 783  1856 781.68  1856 780  C 1856 778.32  1857.32 777  1859 777  C 1860.68 777  1862 778.32  1862 780  C 1862 781.68  1860.68 783  1859 783  " fill-rule="nonzero" fill="#797979" stroke="none" />
</svg>