<?xml version="1.0" encoding="utf-8"?>
<svg version="1.1" xmlns:xlink="http://www.w3.org/1999/xlink" width="12px" height="12px" viewBox="2577 774  12 12" xmlns="http://www.w3.org/2000/svg">
  <path d="M 2583 774  C 2586.36 774  2589 776.64  2589 780  C 2589 783.36  2586.36 786  2583 786  C 2579.64 786  2577 783.36  2577 780  C 2577 776.64  2579.64 774  2583 774  Z " fill-rule="nonzero" fill="#ffffff" stroke="none" />
  <path d="M 2583 774.5  C 2586.08 774.5  2588.5 776.92  2588.5 780  C 2588.5 783.08  2586.08 785.5  2583 785.5  C 2579.92 785.5  2577.5 783.08  2577.5 780  C 2577.5 776.92  2579.92 774.5  2583 774.5  Z " stroke-width="1" stroke="#797979" fill="none" />
  <path d="M 2583 783  C 2581.32 783  2580 781.68  2580 780  C 2580 778.32  2581.32 777  2583 777  C 2584.68 777  2586 778.32  2586 780  C 2586 781.68  2584.68 783  2583 783  " fill-rule="nonzero" fill="#797979" stroke="none" />
</svg>