<?xml version="1.0" encoding="utf-8"?>
<svg version="1.1" xmlns:xlink="http://www.w3.org/1999/xlink" width="61px" height="60px" xmlns="http://www.w3.org/2000/svg">
  <defs>
    <mask fill="white" id="clip45">
      <path d="M 876 3233  C 859.35 3233  846 3219.65  846 3203  L 846 3203  C 846 3186.35  859.35 3173  876 3173  L 877 3173  C 893.65 3173  907 3186.35  907 3203  L 907 3203  C 907 3219.65  893.65 3233  877 3233  " fill-rule="evenodd" />
    </mask>
  </defs>
  <g transform="matrix(1 0 0 1 -846 -3173 )">
    <path d="M 846 3173  L 907 3173  L 907 3233  L 846 3233  L 846 3173  " fill-rule="nonzero" fill="#cccccc" stroke="none" mask="url(#clip45)" />
    <path d="M 850 3177  L 903 3177  L 903 3229  L 850 3229  L 850 3177  " fill-rule="nonzero" fill="#ffffff" stroke="none" mask="url(#clip45)" />
    <path d="M 882.22 3191  C 879.7 3191  877.72 3189.02  877.72 3186.5  C 877.72 3183.98  879.7 3182  882.22 3182  C 884.74 3182  886.72 3183.98  886.72 3186.5  C 886.72 3189.02  884.74 3191  882.22 3191  " fill-rule="nonzero" fill="#cccccc" stroke="none" mask="url(#clip45)" />
    <path d="M 852 3228  L 852 3201.05  L 864.5 3188.8  L 882 3199.08196721311  L 892 3196.15  L 902 3199.08196721311  L 902 3228  L 852 3228  " fill-rule="nonzero" fill="#169bd5" stroke="none" mask="url(#clip45)" />
  </g>
</svg>