<?xml version="1.0" encoding="utf-8"?>
<svg version="1.1" xmlns:xlink="http://www.w3.org/1999/xlink" width="10px" height="455px" preserveAspectRatio="xMidYMin meet" viewBox="427 4260  8 455" xmlns="http://www.w3.org/2000/svg">
  <path d="M 413 4710  L 431 4710  L 431 4265  L 450 4265  " stroke-width="2" stroke-dasharray="18,8" stroke="#0000bf" fill="none" />
  <path d="M 410.5 4706.5  A 3.5 3.5 0 0 0 407 4710 A 3.5 3.5 0 0 0 410.5 4713.5 A 3.5 3.5 0 0 0 414 4710 A 3.5 3.5 0 0 0 410.5 4706.5 Z M 410.5 4708.5  A 1.5 1.5 0 0 1 412 4710 A 1.5 1.5 0 0 1 410.5 4711.5 A 1.5 1.5 0 0 1 409 4710 A 1.5 1.5 0 0 1 410.5 4708.5 Z M 449 4272.6  L 456 4265  L 449 4257.4  L 449 4272.6  Z M 451 4267.8  L 451 4262.2  L 453 4265  L 451 4267.8  Z " fill-rule="nonzero" fill="#0000bf" stroke="none" />
</svg>