<?xml version="1.0" encoding="utf-8"?>
<svg version="1.1" xmlns:xlink="http://www.w3.org/1999/xlink" width="30px" height="30px" xmlns="http://www.w3.org/2000/svg">
  <g transform="matrix(1 0 0 1 -482 -3883 )">
    <path d="M 497 3883  C 505.4 3883  512 3889.6  512 3898  C 512 3906.4  505.4 3913  497 3913  C 488.6 3913  482 3906.4  482 3898  C 482 3889.6  488.6 3883  497 3883  Z " fill-rule="nonzero" fill="#ffffff" stroke="none" />
    <path d="M 497 3883.5  C 505.12 3883.5  511.5 3889.88  511.5 3898  C 511.5 3906.12  505.12 3912.5  497 3912.5  C 488.88 3912.5  482.5 3906.12  482.5 3898  C 482.5 3889.88  488.88 3883.5  497 3883.5  Z " stroke-width="1" stroke="#797979" fill="none" />
  </g>
</svg>