<?xml version="1.0" encoding="utf-8"?>
<svg version="1.1" xmlns:xlink="http://www.w3.org/1999/xlink" width="33px" height="34px" xmlns="http://www.w3.org/2000/svg">
  <g transform="matrix(1 0 0 1 -2748 -261 )">
    <path d="M 32.2222222222222 25.4141414141414  C 32.7407407407407 25.9483726150393  33 26.5970819304153  33 27.3602693602694  C 33 28.1234567901235  32.7407407407407 28.7721661054994  32.2222222222222 29.3063973063973  L 28.4444444444444 33.1986531986532  C 27.9259259259259 33.7328843995511  27.2962962962963 34  26.5555555555556 34  C 25.8148148148148 34  25.1851851851852 33.7328843995511  24.6666666666667 33.1986531986532  L 16.5 24.7845117845118  L 8.33333333333333 33.1986531986532  C 7.81481481481482 33.7328843995511  7.18518518518519 34  6.44444444444444 34  C 5.7037037037037 34  5.07407407407407 33.7328843995511  4.55555555555556 33.1986531986532  L 0.777777777777778 29.3063973063973  C 0.25925925925926 28.7721661054994  0 28.1234567901235  0 27.3602693602694  C 0 26.5970819304153  0.25925925925926 25.9483726150393  0.777777777777778 25.4141414141414  L 8.94444444444444 17  L 0.777777777777778 8.58585858585858  C 0.25925925925926 8.05162738496072  0 7.40291806958474  0 6.63973063973064  C 0 5.87654320987654  0.25925925925926 5.22783389450056  0.777777777777778 4.69360269360269  L 4.55555555555556 0.801346801346801  C 5.07407407407407 0.267115600448933  5.7037037037037 0  6.44444444444444 0  C 7.18518518518519 0  7.81481481481482 0.267115600448933  8.33333333333333 0.801346801346801  L 16.5 9.21548821548822  L 24.6666666666667 0.801346801346801  C 25.1851851851852 0.267115600448933  25.8148148148148 0  26.5555555555556 0  C 27.2962962962963 0  27.9259259259259 0.267115600448933  28.4444444444444 0.801346801346801  L 32.2222222222222 4.69360269360269  C 32.7407407407407 5.22783389450056  33 5.87654320987654  33 6.63973063973064  C 33 7.40291806958474  32.7407407407407 8.05162738496072  32.2222222222222 8.58585858585858  L 24.0555555555556 17  L 32.2222222222222 25.4141414141414  Z " fill-rule="nonzero" fill="#000000" stroke="none" transform="matrix(1 0 0 1 2748 261 )" />
  </g>
</svg>