<?xml version="1.0" encoding="utf-8"?>
<svg version="1.1" xmlns:xlink="http://www.w3.org/1999/xlink" width="60px" height="55px" xmlns="http://www.w3.org/2000/svg">
  <g transform="matrix(1 0 0 1 -902 -608 )">
    <path d="M 902 608  L 962 608  L 962 663  L 902 663  L 902 608  " fill-rule="nonzero" fill="#cccccc" stroke="none" />
    <path d="M 906 612  L 958 612  L 958 659  L 906 659  L 906 612  " fill-rule="nonzero" fill="#ffffff" stroke="none" />
    <path d="M 937.325 624.5  C 935.015 624.5  933.2 622.685  933.2 620.375  C 933.2 618.065  935.015 616.25  937.325 616.25  C 939.635 616.25  941.45 618.065  941.45 620.375  C 941.45 622.685  939.635 624.5  937.325 624.5  " fill-rule="nonzero" fill="#cccccc" stroke="none" />
    <path d="M 908 658  L 908 633.8  L 920.25 622.8  L 937.4 633.8  L 947.2 629.4  L 957 633.8  L 957 658  L 908 658  " fill-rule="nonzero" fill="#169bd5" stroke="none" />
  </g>
</svg>