<?xml version="1.0" encoding="utf-8"?>
<svg version="1.1" xmlns:xlink="http://www.w3.org/1999/xlink" width="12px" height="12px" viewBox="668 324  12 12" xmlns="http://www.w3.org/2000/svg">
  <path d="M 674 324  C 677.36 324  680 326.64  680 330  C 680 333.36  677.36 336  674 336  C 670.64 336  668 333.36  668 330  C 668 326.64  670.64 324  674 324  Z " fill-rule="nonzero" fill="#f0f0f0" stroke="none" />
  <path d="M 674 324.5  C 677.08 324.5  679.5 326.92  679.5 330  C 679.5 333.08  677.08 335.5  674 335.5  C 670.92 335.5  668.5 333.08  668.5 330  C 668.5 326.92  670.92 324.5  674 324.5  Z " stroke-width="1" stroke="#797979" fill="none" />
  <path d="M 674 333  C 672.32 333  671 331.68  671 330  C 671 328.32  672.32 327  674 327  C 675.68 327  677 328.32  677 330  C 677 331.68  675.68 333  674 333  " fill-rule="nonzero" fill="#797979" stroke="none" />
</svg>