<?xml version="1.0" encoding="utf-8"?>
<svg version="1.1" xmlns:xlink="http://www.w3.org/1999/xlink" width="12px" height="12px" viewBox="318 320  12 12" xmlns="http://www.w3.org/2000/svg">
  <path d="M 324 320  C 327.36 320  330 322.64  330 326  C 330 329.36  327.36 332  324 332  C 320.64 332  318 329.36  318 326  C 318 322.64  320.64 320  324 320  Z " fill-rule="nonzero" fill="#ffffff" stroke="none" />
  <path d="M 324 320.5  C 327.08 320.5  329.5 322.92  329.5 326  C 329.5 329.08  327.08 331.5  324 331.5  C 320.92 331.5  318.5 329.08  318.5 326  C 318.5 322.92  320.92 320.5  324 320.5  Z " stroke-width="1" stroke="#797979" fill="none" />
  <path d="M 324 329  C 322.32 329  321 327.68  321 326  C 321 324.32  322.32 323  324 323  C 325.68 323  327 324.32  327 326  C 327 327.68  325.68 329  324 329  " fill-rule="nonzero" fill="#797979" stroke="none" />
</svg>