<?xml version="1.0" encoding="utf-8"?>
<svg version="1.1" xmlns:xlink="http://www.w3.org/1999/xlink" width="12px" height="12px" viewBox="783 324  12 12" xmlns="http://www.w3.org/2000/svg">
  <path d="M 789 324  C 792.36 324  795 326.64  795 330  C 795 333.36  792.36 336  789 336  C 785.64 336  783 333.36  783 330  C 783 326.64  785.64 324  789 324  Z " fill-rule="nonzero" fill="#f0f0f0" stroke="none" />
  <path d="M 789 324.5  C 792.08 324.5  794.5 326.92  794.5 330  C 794.5 333.08  792.08 335.5  789 335.5  C 785.92 335.5  783.5 333.08  783.5 330  C 783.5 326.92  785.92 324.5  789 324.5  Z " stroke-width="1" stroke="#797979" fill="none" />
  <path d="M 789 333  C 787.32 333  786 331.68  786 330  C 786 328.32  787.32 327  789 327  C 790.68 327  792 328.32  792 330  C 792 331.68  790.68 333  789 333  " fill-rule="nonzero" fill="#797979" stroke="none" />
</svg>