<?xml version="1.0" encoding="utf-8"?>
<svg version="1.1" xmlns:xlink="http://www.w3.org/1999/xlink" width="20px" height="21px" preserveAspectRatio="xMidYMin meet" viewBox="3192 1421  18 21" xmlns="http://www.w3.org/2000/svg">
  <path d="M 3201 1432  L 3185 1432  " stroke-width="2" stroke-dasharray="6,2" stroke="#70b603" fill="none" />
  <path d="M 3201 1428  A 3.5 3.5 0 0 0 3197.5 1431.5 A 3.5 3.5 0 0 0 3201 1435 A 3.5 3.5 0 0 0 3204.5 1431.5 A 3.5 3.5 0 0 0 3201 1428 Z M 3201 1430  A 1.5 1.5 0 0 1 3202.5 1431.5 A 1.5 1.5 0 0 1 3201 1433 A 1.5 1.5 0 0 1 3199.5 1431.5 A 1.5 1.5 0 0 1 3201 1430 Z M 3186 1424.4  L 3179 1432  L 3186 1439.6  L 3186 1424.4  Z M 3184 1429.2  L 3184 1434.8  L 3182 1432  L 3184 1429.2  Z " fill-rule="nonzero" fill="#70b603" stroke="none" />
</svg>