<?xml version="1.0" encoding="utf-8"?>
<svg version="1.1" xmlns:xlink="http://www.w3.org/1999/xlink" width="60px" height="55px" xmlns="http://www.w3.org/2000/svg">
  <g transform="matrix(1 0 0 1 -875 -381 )">
    <path d="M 875 381  L 935 381  L 935 436  L 875 436  L 875 381  " fill-rule="nonzero" fill="#cccccc" stroke="none" />
    <path d="M 879 385  L 931 385  L 931 432  L 879 432  L 879 385  " fill-rule="nonzero" fill="#ffffff" stroke="none" />
    <path d="M 910.325 397.5  C 908.015 397.5  906.2 395.685  906.2 393.375  C 906.2 391.065  908.015 389.25  910.325 389.25  C 912.635 389.25  914.45 391.065  914.45 393.375  C 914.45 395.685  912.635 397.5  910.325 397.5  " fill-rule="nonzero" fill="#cccccc" stroke="none" />
    <path d="M 881 431  L 881 406.8  L 893.25 395.8  L 910.4 406.8  L 920.2 402.4  L 930 406.8  L 930 431  L 881 431  " fill-rule="nonzero" fill="#169bd5" stroke="none" />
  </g>
</svg>