<?xml version="1.0" encoding="utf-8"?>
<svg version="1.1" xmlns:xlink="http://www.w3.org/1999/xlink" width="26px" height="22px" xmlns="http://www.w3.org/2000/svg">
  <g transform="matrix(1 0 0 1 -901 -254 )">
    <path d="M 25.0719464584495 0  C 25.2652909462725 0  25.4393009853133 0.0450148809523829  25.5939765755717 0.135044642857144  C 25.9129949804796 0.331473214285715  26.0435025097602 0.593377976190476  25.9854991634133 0.920758928571429  L 22.2732849972114 19.7779017857143  C 22.2249488752556 20.0152529761905  22.0702732849972 20.1994047619048  21.8092582264361 20.3303571428571  C 21.67391708496 20.3958333333333  21.5240751068972 20.4285714285714  21.3597322922476 20.4285714285714  C 21.253392823945 20.4285714285714  21.1373861312512 20.4081101190476  21.0117122141662 20.3671875  L 14.4428332403793 18.0959821428571  L 10.9336307863915 21.7176339285714  C 10.7596207473508 21.9058779761905  10.5227737497676 22  10.2230897936419 22  C 10.097415876557 22  9.99107640825432 21.983630952381  9.90407138873397 21.9508928571429  C 9.7203941253021 21.8936011904762  9.57296895333705 21.7974330357143  9.46179587283882 21.6623883928571  C 9.35062279234058 21.52734375  9.29503625209147 21.3779761904762  9.29503625209147 21.2142857142857  L 9.29503625209147 16.9296875  L 21.8237590630229 3.92857142857143  L 6.3223647518126 15.2845982142857  L 0.594534300055772 13.2957589285714  C 0.236846997583194 13.1811755952381  0.0435025097601785 12.9561011904762  0.0145008365867262 12.6205357142857  C -0.00483361219557539 12.2931547619048  0.149841978062837 12.0517113095238  0.478527607361963 11.8962053571429  L 24.6079196876743 0.110491071428571  C 24.7529280535416 0.0368303571428561  24.9076036438 0  25.0719464584495 0  Z " fill-rule="nonzero" fill="#000000" stroke="none" transform="matrix(1 0 0 1 901 254 )" />
  </g>
</svg>