<?xml version="1.0" encoding="utf-8"?>
<svg version="1.1" xmlns:xlink="http://www.w3.org/1999/xlink" width="60px" height="55px" xmlns="http://www.w3.org/2000/svg">
  <g transform="matrix(1 0 0 1 -603 -319 )">
    <path d="M 603 319  L 663 319  L 663 374  L 603 374  L 603 319  " fill-rule="nonzero" fill="#cccccc" stroke="none" />
    <path d="M 607 323  L 659 323  L 659 370  L 607 370  L 607 323  " fill-rule="nonzero" fill="#ffffff" stroke="none" />
    <path d="M 638.325 335.5  C 636.015 335.5  634.2 333.685  634.2 331.375  C 634.2 329.065  636.015 327.25  638.325 327.25  C 640.635 327.25  642.45 329.065  642.45 331.375  C 642.45 333.685  640.635 335.5  638.325 335.5  " fill-rule="nonzero" fill="#cccccc" stroke="none" />
    <path d="M 609 369  L 609 344.8  L 621.25 333.8  L 638.4 344.8  L 648.2 340.4  L 658 344.8  L 658 369  L 609 369  " fill-rule="nonzero" fill="#169bd5" stroke="none" />
  </g>
</svg>