<?xml version="1.0" encoding="utf-8"?>
<svg version="1.1" xmlns:xlink="http://www.w3.org/1999/xlink" width="50px" height="45px" xmlns="http://www.w3.org/2000/svg">
  <g transform="matrix(1 0 0 1 -1031 -1434 )">
    <path d="M 48.8215488215488 33.6363636363636  C 49.6071829405163 34.3434343434343  50 35.2020202020202  50 36.2121212121212  C 50 37.2222222222222  49.6071829405163 38.0808080808081  48.8215488215488 38.7878787878788  L 43.0976430976431 43.9393939393939  C 42.3120089786756 44.6464646464647  41.358024691358 45  40.2356902356902 45  C 39.1133557800225 45  38.1593714927048 44.6464646464647  37.3737373737374 43.9393939393939  L 25 32.8030303030303  L 12.6262626262626 43.9393939393939  C 11.8406285072952 44.6464646464647  10.8866442199776 45  9.76430976430976 45  C 8.64197530864198 45  7.68799102132436 44.6464646464647  6.9023569023569 43.9393939393939  L 1.17845117845118 38.7878787878788  C 0.392817059483727 38.0808080808081  0 37.2222222222222  0 36.2121212121212  C 0 35.2020202020202  0.392817059483727 34.3434343434343  1.17845117845118 33.6363636363636  L 13.5521885521886 22.5  L 1.17845117845118 11.3636363636364  C 0.392817059483727 10.6565656565657  0 9.7979797979798  0 8.78787878787879  C 0 7.77777777777778  0.392817059483727 6.91919191919191  1.17845117845118 6.21212121212121  L 6.9023569023569 1.06060606060606  C 7.68799102132436 0.353535353535352  8.64197530864198 0  9.76430976430976 0  C 10.8866442199776 0  11.8406285072952 0.353535353535352  12.6262626262626 1.06060606060606  L 25 12.1969696969697  L 37.3737373737374 1.06060606060606  C 38.1593714927048 0.353535353535352  39.1133557800225 0  40.2356902356902 0  C 41.358024691358 0  42.3120089786756 0.353535353535352  43.0976430976431 1.06060606060606  L 48.8215488215488 6.21212121212121  C 49.6071829405163 6.91919191919191  50 7.77777777777778  50 8.78787878787879  C 50 9.7979797979798  49.6071829405163 10.6565656565657  48.8215488215488 11.3636363636364  L 36.4478114478114 22.5  L 48.8215488215488 33.6363636363636  Z " fill-rule="nonzero" fill="#000000" stroke="none" transform="matrix(1 0 0 1 1031 1434 )" />
  </g>
</svg>