<?xml version="1.0" encoding="utf-8"?>
<svg version="1.1" xmlns:xlink="http://www.w3.org/1999/xlink" width="12px" height="12px" viewBox="781 1497  12 12" xmlns="http://www.w3.org/2000/svg">
  <path d="M 787 1497  C 790.36 1497  793 1499.64  793 1503  C 793 1506.36  790.36 1509  787 1509  C 783.64 1509  781 1506.36  781 1503  C 781 1499.64  783.64 1497  787 1497  Z " fill-rule="nonzero" fill="#f0f0f0" stroke="none" />
  <path d="M 787 1497.5  C 790.08 1497.5  792.5 1499.92  792.5 1503  C 792.5 1506.08  790.08 1508.5  787 1508.5  C 783.92 1508.5  781.5 1506.08  781.5 1503  C 781.5 1499.92  783.92 1497.5  787 1497.5  Z " stroke-width="1" stroke="#797979" fill="none" />
  <path d="M 787 1506  C 785.32 1506  784 1504.68  784 1503  C 784 1501.32  785.32 1500  787 1500  C 788.68 1500  790 1501.32  790 1503  C 790 1504.68  788.68 1506  787 1506  " fill-rule="nonzero" fill="#797979" stroke="none" />
</svg>