<?xml version="1.0" encoding="utf-8"?>
<svg version="1.1" xmlns:xlink="http://www.w3.org/1999/xlink" width="12px" height="12px" viewBox="665 2524  12 12" xmlns="http://www.w3.org/2000/svg">
  <path d="M 671 2524  C 674.36 2524  677 2526.64  677 2530  C 677 2533.36  674.36 2536  671 2536  C 667.64 2536  665 2533.36  665 2530  C 665 2526.64  667.64 2524  671 2524  Z " fill-rule="nonzero" fill="#ffffff" stroke="none" />
  <path d="M 671 2524.5  C 674.08 2524.5  676.5 2526.92  676.5 2530  C 676.5 2533.08  674.08 2535.5  671 2535.5  C 667.92 2535.5  665.5 2533.08  665.5 2530  C 665.5 2526.92  667.92 2524.5  671 2524.5  Z " stroke-width="1" stroke="#797979" fill="none" />
  <path d="M 671 2533  C 669.32 2533  668 2531.68  668 2530  C 668 2528.32  669.32 2527  671 2527  C 672.68 2527  674 2528.32  674 2530  C 674 2531.68  672.68 2533  671 2533  " fill-rule="nonzero" fill="#797979" stroke="none" />
</svg>