<?xml version="1.0" encoding="utf-8"?>
<svg version="1.1" xmlns:xlink="http://www.w3.org/1999/xlink" width="12px" height="12px" viewBox="118 1087  12 12" xmlns="http://www.w3.org/2000/svg">
  <path d="M 124 1087  C 127.36 1087  130 1089.64  130 1093  C 130 1096.36  127.36 1099  124 1099  C 120.64 1099  118 1096.36  118 1093  C 118 1089.64  120.64 1087  124 1087  Z " fill-rule="nonzero" fill="#f0f0f0" stroke="none" />
  <path d="M 124 1087.5  C 127.08 1087.5  129.5 1089.92  129.5 1093  C 129.5 1096.08  127.08 1098.5  124 1098.5  C 120.92 1098.5  118.5 1096.08  118.5 1093  C 118.5 1089.92  120.92 1087.5  124 1087.5  Z " stroke-width="1" stroke="#797979" fill="none" />
  <path d="M 124 1096  C 122.32 1096  121 1094.68  121 1093  C 121 1091.32  122.32 1090  124 1090  C 125.68 1090  127 1091.32  127 1093  C 127 1094.68  125.68 1096  124 1096  " fill-rule="nonzero" fill="#797979" stroke="none" />
</svg>