<?xml version="1.0" encoding="utf-8"?>
<svg version="1.1" xmlns:xlink="http://www.w3.org/1999/xlink" width="12px" height="12px" viewBox="816 1080  12 12" xmlns="http://www.w3.org/2000/svg">
  <path d="M 822 1080  C 825.36 1080  828 1082.64  828 1086  C 828 1089.36  825.36 1092  822 1092  C 818.64 1092  816 1089.36  816 1086  C 816 1082.64  818.64 1080  822 1080  Z " fill-rule="nonzero" fill="#ffffff" stroke="none" />
  <path d="M 822 1080.5  C 825.08 1080.5  827.5 1082.92  827.5 1086  C 827.5 1089.08  825.08 1091.5  822 1091.5  C 818.92 1091.5  816.5 1089.08  816.5 1086  C 816.5 1082.92  818.92 1080.5  822 1080.5  Z " stroke-width="1" stroke="#797979" fill="none" />
  <path d="M 822 1089  C 820.32 1089  819 1087.68  819 1086  C 819 1084.32  820.32 1083  822 1083  C 823.68 1083  825 1084.32  825 1086  C 825 1087.68  823.68 1089  822 1089  " fill-rule="nonzero" fill="#797979" stroke="none" />
</svg>