<?xml version="1.0" encoding="utf-8"?>
<svg version="1.1" xmlns:xlink="http://www.w3.org/1999/xlink" width="12px" height="12px" viewBox="2387 42  12 12" xmlns="http://www.w3.org/2000/svg">
  <path d="M 2393 42  C 2396.36 42  2399 44.64  2399 48  C 2399 51.36  2396.36 54  2393 54  C 2389.64 54  2387 51.36  2387 48  C 2387 44.64  2389.64 42  2393 42  Z " fill-rule="nonzero" fill="#ffffff" stroke="none" />
  <path d="M 2393 42.5  C 2396.08 42.5  2398.5 44.92  2398.5 48  C 2398.5 51.08  2396.08 53.5  2393 53.5  C 2389.92 53.5  2387.5 51.08  2387.5 48  C 2387.5 44.92  2389.92 42.5  2393 42.5  Z " stroke-width="1" stroke="#797979" fill="none" />
  <path d="M 2393 51  C 2391.32 51  2390 49.68  2390 48  C 2390 46.32  2391.32 45  2393 45  C 2394.68 45  2396 46.32  2396 48  C 2396 49.68  2394.68 51  2393 51  " fill-rule="nonzero" fill="#797979" stroke="none" />
</svg>