<?xml version="1.0" encoding="utf-8"?>
<svg version="1.1" xmlns:xlink="http://www.w3.org/1999/xlink" width="12px" height="12px" viewBox="137 1896  12 12" xmlns="http://www.w3.org/2000/svg">
  <path d="M 143 1896  C 146.36 1896  149 1898.64  149 1902  C 149 1905.36  146.36 1908  143 1908  C 139.64 1908  137 1905.36  137 1902  C 137 1898.64  139.64 1896  143 1896  Z " fill-rule="nonzero" fill="#f0f0f0" stroke="none" />
  <path d="M 143 1896.5  C 146.08 1896.5  148.5 1898.92  148.5 1902  C 148.5 1905.08  146.08 1907.5  143 1907.5  C 139.92 1907.5  137.5 1905.08  137.5 1902  C 137.5 1898.92  139.92 1896.5  143 1896.5  Z " stroke-width="1" stroke="#797979" fill="none" />
  <path d="M 143 1905  C 141.32 1905  140 1903.68  140 1902  C 140 1900.32  141.32 1899  143 1899  C 144.68 1899  146 1900.32  146 1902  C 146 1903.68  144.68 1905  143 1905  " fill-rule="nonzero" fill="#797979" stroke="none" />
</svg>