<?xml version="1.0" encoding="utf-8"?>
<svg version="1.1" xmlns:xlink="http://www.w3.org/1999/xlink" width="12px" height="12px" viewBox="133 1858  12 12" xmlns="http://www.w3.org/2000/svg">
  <path d="M 139 1858  C 142.36 1858  145 1860.64  145 1864  C 145 1867.36  142.36 1870  139 1870  C 135.64 1870  133 1867.36  133 1864  C 133 1860.64  135.64 1858  139 1858  Z " fill-rule="nonzero" fill="#ffffff" stroke="none" />
  <path d="M 139 1858.5  C 142.08 1858.5  144.5 1860.92  144.5 1864  C 144.5 1867.08  142.08 1869.5  139 1869.5  C 135.92 1869.5  133.5 1867.08  133.5 1864  C 133.5 1860.92  135.92 1858.5  139 1858.5  Z " stroke-width="1" stroke="#797979" fill="none" />
  <path d="M 139 1867  C 137.32 1867  136 1865.68  136 1864  C 136 1862.32  137.32 1861  139 1861  C 140.68 1861  142 1862.32  142 1864  C 142 1865.68  140.68 1867  139 1867  " fill-rule="nonzero" fill="#797979" stroke="none" />
</svg>