<?xml version="1.0" encoding="utf-8"?>
<svg version="1.1" xmlns:xlink="http://www.w3.org/1999/xlink" width="12px" height="12px" viewBox="120 1054  12 12" xmlns="http://www.w3.org/2000/svg">
  <path d="M 126 1054  C 129.36 1054  132 1056.64  132 1060  C 132 1063.36  129.36 1066  126 1066  C 122.64 1066  120 1063.36  120 1060  C 120 1056.64  122.64 1054  126 1054  Z " fill-rule="nonzero" fill="#f0f0f0" stroke="none" />
  <path d="M 126 1054.5  C 129.08 1054.5  131.5 1056.92  131.5 1060  C 131.5 1063.08  129.08 1065.5  126 1065.5  C 122.92 1065.5  120.5 1063.08  120.5 1060  C 120.5 1056.92  122.92 1054.5  126 1054.5  Z " stroke-width="1" stroke="#797979" fill="none" />
  <path d="M 126 1063  C 124.32 1063  123 1061.68  123 1060  C 123 1058.32  124.32 1057  126 1057  C 127.68 1057  129 1058.32  129 1060  C 129 1061.68  127.68 1063  126 1063  " fill-rule="nonzero" fill="#797979" stroke="none" />
</svg>