<?xml version="1.0" encoding="utf-8"?>
<svg version="1.1" xmlns:xlink="http://www.w3.org/1999/xlink" width="12px" height="12px" viewBox="957 1915  12 12" xmlns="http://www.w3.org/2000/svg">
  <path d="M 963 1915  C 966.36 1915  969 1917.64  969 1921  C 969 1924.36  966.36 1927  963 1927  C 959.64 1927  957 1924.36  957 1921  C 957 1917.64  959.64 1915  963 1915  Z " fill-rule="nonzero" fill="#ffffff" stroke="none" />
  <path d="M 963 1915.5  C 966.08 1915.5  968.5 1917.92  968.5 1921  C 968.5 1924.08  966.08 1926.5  963 1926.5  C 959.92 1926.5  957.5 1924.08  957.5 1921  C 957.5 1917.92  959.92 1915.5  963 1915.5  Z " stroke-width="1" stroke="#797979" fill="none" />
  <path d="M 963 1924  C 961.32 1924  960 1922.68  960 1921  C 960 1919.32  961.32 1918  963 1918  C 964.68 1918  966 1919.32  966 1921  C 966 1922.68  964.68 1924  963 1924  " fill-rule="nonzero" fill="#797979" stroke="none" />
</svg>