<?xml version="1.0" encoding="utf-8"?>
<svg version="1.1" xmlns:xlink="http://www.w3.org/1999/xlink" width="12px" height="12px" viewBox="240 1738  12 12" xmlns="http://www.w3.org/2000/svg">
  <path d="M 246 1738  C 249.36 1738  252 1740.64  252 1744  C 252 1747.36  249.36 1750  246 1750  C 242.64 1750  240 1747.36  240 1744  C 240 1740.64  242.64 1738  246 1738  Z " fill-rule="nonzero" fill="#f0f0f0" stroke="none" />
  <path d="M 246 1738.5  C 249.08 1738.5  251.5 1740.92  251.5 1744  C 251.5 1747.08  249.08 1749.5  246 1749.5  C 242.92 1749.5  240.5 1747.08  240.5 1744  C 240.5 1740.92  242.92 1738.5  246 1738.5  Z " stroke-width="1" stroke="#797979" fill="none" />
  <path d="M 246 1747  C 244.32 1747  243 1745.68  243 1744  C 243 1742.32  244.32 1741  246 1741  C 247.68 1741  249 1742.32  249 1744  C 249 1745.68  247.68 1747  246 1747  " fill-rule="nonzero" fill="#797979" stroke="none" />
</svg>