<?xml version="1.0" encoding="utf-8"?>
<svg version="1.1" xmlns:xlink="http://www.w3.org/1999/xlink" width="12px" height="12px" viewBox="240 1763  12 12" xmlns="http://www.w3.org/2000/svg">
  <path d="M 246 1763  C 249.36 1763  252 1765.64  252 1769  C 252 1772.36  249.36 1775  246 1775  C 242.64 1775  240 1772.36  240 1769  C 240 1765.64  242.64 1763  246 1763  Z " fill-rule="nonzero" fill="#ffffff" stroke="none" />
  <path d="M 246 1763.5  C 249.08 1763.5  251.5 1765.92  251.5 1769  C 251.5 1772.08  249.08 1774.5  246 1774.5  C 242.92 1774.5  240.5 1772.08  240.5 1769  C 240.5 1765.92  242.92 1763.5  246 1763.5  Z " stroke-width="1" stroke="#797979" fill="none" />
  <path d="M 246 1772  C 244.32 1772  243 1770.68  243 1769  C 243 1767.32  244.32 1766  246 1766  C 247.68 1766  249 1767.32  249 1769  C 249 1770.68  247.68 1772  246 1772  " fill-rule="nonzero" fill="#797979" stroke="none" />
</svg>