<?xml version="1.0" encoding="utf-8"?>
<svg version="1.1" xmlns:xlink="http://www.w3.org/1999/xlink" width="12px" height="12px" viewBox="229 1054  12 12" xmlns="http://www.w3.org/2000/svg">
  <path d="M 235 1054  C 238.36 1054  241 1056.64  241 1060  C 241 1063.36  238.36 1066  235 1066  C 231.64 1066  229 1063.36  229 1060  C 229 1056.64  231.64 1054  235 1054  Z " fill-rule="nonzero" fill="#f0f0f0" stroke="none" />
  <path d="M 235 1054.5  C 238.08 1054.5  240.5 1056.92  240.5 1060  C 240.5 1063.08  238.08 1065.5  235 1065.5  C 231.92 1065.5  229.5 1063.08  229.5 1060  C 229.5 1056.92  231.92 1054.5  235 1054.5  Z " stroke-width="1" stroke="#797979" fill="none" />
  <path d="M 235 1063  C 233.32 1063  232 1061.68  232 1060  C 232 1058.32  233.32 1057  235 1057  C 236.68 1057  238 1058.32  238 1060  C 238 1061.68  236.68 1063  235 1063  " fill-rule="nonzero" fill="#797979" stroke="none" />
</svg>