<?xml version="1.0" encoding="utf-8"?>
<svg version="1.1" xmlns:xlink="http://www.w3.org/1999/xlink" width="12px" height="12px" viewBox="817 1054  12 12" xmlns="http://www.w3.org/2000/svg">
  <path d="M 823 1054  C 826.36 1054  829 1056.64  829 1060  C 829 1063.36  826.36 1066  823 1066  C 819.64 1066  817 1063.36  817 1060  C 817 1056.64  819.64 1054  823 1054  Z " fill-rule="nonzero" fill="#f0f0f0" stroke="none" />
  <path d="M 823 1054.5  C 826.08 1054.5  828.5 1056.92  828.5 1060  C 828.5 1063.08  826.08 1065.5  823 1065.5  C 819.92 1065.5  817.5 1063.08  817.5 1060  C 817.5 1056.92  819.92 1054.5  823 1054.5  Z " stroke-width="1" stroke="#797979" fill="none" />
  <path d="M 823 1063  C 821.32 1063  820 1061.68  820 1060  C 820 1058.32  821.32 1057  823 1057  C 824.68 1057  826 1058.32  826 1060  C 826 1061.68  824.68 1063  823 1063  " fill-rule="nonzero" fill="#797979" stroke="none" />
</svg>