<?xml version="1.0" encoding="utf-8"?>
<svg version="1.1" xmlns:xlink="http://www.w3.org/1999/xlink" width="12px" height="12px" viewBox="927 1054  12 12" xmlns="http://www.w3.org/2000/svg">
  <path d="M 933 1054  C 936.36 1054  939 1056.64  939 1060  C 939 1063.36  936.36 1066  933 1066  C 929.64 1066  927 1063.36  927 1060  C 927 1056.64  929.64 1054  933 1054  Z " fill-rule="nonzero" fill="#f0f0f0" stroke="none" />
  <path d="M 933 1054.5  C 936.08 1054.5  938.5 1056.92  938.5 1060  C 938.5 1063.08  936.08 1065.5  933 1065.5  C 929.92 1065.5  927.5 1063.08  927.5 1060  C 927.5 1056.92  929.92 1054.5  933 1054.5  Z " stroke-width="1" stroke="#797979" fill="none" />
  <path d="M 933 1063  C 931.32 1063  930 1061.68  930 1060  C 930 1058.32  931.32 1057  933 1057  C 934.68 1057  936 1058.32  936 1060  C 936 1061.68  934.68 1063  933 1063  " fill-rule="nonzero" fill="#797979" stroke="none" />
</svg>