<?xml version="1.0" encoding="utf-8"?>
<svg version="1.1" xmlns:xlink="http://www.w3.org/1999/xlink" width="12px" height="12px" viewBox="131 1738  12 12" xmlns="http://www.w3.org/2000/svg">
  <path d="M 137 1738  C 140.36 1738  143 1740.64  143 1744  C 143 1747.36  140.36 1750  137 1750  C 133.64 1750  131 1747.36  131 1744  C 131 1740.64  133.64 1738  137 1738  Z " fill-rule="nonzero" fill="#ffffff" stroke="none" />
  <path d="M 137 1738.5  C 140.08 1738.5  142.5 1740.92  142.5 1744  C 142.5 1747.08  140.08 1749.5  137 1749.5  C 133.92 1749.5  131.5 1747.08  131.5 1744  C 131.5 1740.92  133.92 1738.5  137 1738.5  Z " stroke-width="1" stroke="#797979" fill="none" />
  <path d="M 137 1747  C 135.32 1747  134 1745.68  134 1744  C 134 1742.32  135.32 1741  137 1741  C 138.68 1741  140 1742.32  140 1744  C 140 1745.68  138.68 1747  137 1747  " fill-rule="nonzero" fill="#797979" stroke="none" />
</svg>