<?xml version="1.0" encoding="utf-8"?>
<svg version="1.1" xmlns:xlink="http://www.w3.org/1999/xlink" width="12px" height="12px" viewBox="134 1763  12 12" xmlns="http://www.w3.org/2000/svg">
  <path d="M 140 1763  C 143.36 1763  146 1765.64  146 1769  C 146 1772.36  143.36 1775  140 1775  C 136.64 1775  134 1772.36  134 1769  C 134 1765.64  136.64 1763  140 1763  Z " fill-rule="nonzero" fill="#f0f0f0" stroke="none" />
  <path d="M 140 1763.5  C 143.08 1763.5  145.5 1765.92  145.5 1769  C 145.5 1772.08  143.08 1774.5  140 1774.5  C 136.92 1774.5  134.5 1772.08  134.5 1769  C 134.5 1765.92  136.92 1763.5  140 1763.5  Z " stroke-width="1" stroke="#797979" fill="none" />
  <path d="M 140 1772  C 138.32 1772  137 1770.68  137 1769  C 137 1767.32  138.32 1766  140 1766  C 141.68 1766  143 1767.32  143 1769  C 143 1770.68  141.68 1772  140 1772  " fill-rule="nonzero" fill="#797979" stroke="none" />
</svg>