<?xml version="1.0" encoding="utf-8"?>
<svg version="1.1" xmlns:xlink="http://www.w3.org/1999/xlink" width="12px" height="12px" viewBox="839 1735  12 12" xmlns="http://www.w3.org/2000/svg">
  <path d="M 845 1735  C 848.36 1735  851 1737.64  851 1741  C 851 1744.36  848.36 1747  845 1747  C 841.64 1747  839 1744.36  839 1741  C 839 1737.64  841.64 1735  845 1735  Z " fill-rule="nonzero" fill="#ffffff" stroke="none" />
  <path d="M 845 1735.5  C 848.08 1735.5  850.5 1737.92  850.5 1741  C 850.5 1744.08  848.08 1746.5  845 1746.5  C 841.92 1746.5  839.5 1744.08  839.5 1741  C 839.5 1737.92  841.92 1735.5  845 1735.5  Z " stroke-width="1" stroke="#797979" fill="none" />
  <path d="M 845 1744  C 843.32 1744  842 1742.68  842 1741  C 842 1739.32  843.32 1738  845 1738  C 846.68 1738  848 1739.32  848 1741  C 848 1742.68  846.68 1744  845 1744  " fill-rule="nonzero" fill="#797979" stroke="none" />
</svg>