<?xml version="1.0" encoding="utf-8"?>
<svg version="1.1" xmlns:xlink="http://www.w3.org/1999/xlink" width="12px" height="12px" viewBox="948 1735  12 12" xmlns="http://www.w3.org/2000/svg">
  <path d="M 954 1735  C 957.36 1735  960 1737.64  960 1741  C 960 1744.36  957.36 1747  954 1747  C 950.64 1747  948 1744.36  948 1741  C 948 1737.64  950.64 1735  954 1735  Z " fill-rule="nonzero" fill="#ffffff" stroke="none" />
  <path d="M 954 1735.5  C 957.08 1735.5  959.5 1737.92  959.5 1741  C 959.5 1744.08  957.08 1746.5  954 1746.5  C 950.92 1746.5  948.5 1744.08  948.5 1741  C 948.5 1737.92  950.92 1735.5  954 1735.5  Z " stroke-width="1" stroke="#797979" fill="none" />
  <path d="M 954 1744  C 952.32 1744  951 1742.68  951 1741  C 951 1739.32  952.32 1738  954 1738  C 955.68 1738  957 1739.32  957 1741  C 957 1742.68  955.68 1744  954 1744  " fill-rule="nonzero" fill="#797979" stroke="none" />
</svg>