<?xml version="1.0" encoding="utf-8"?>
<svg version="1.1" xmlns:xlink="http://www.w3.org/1999/xlink" width="12px" height="12px" viewBox="845 1770  12 12" xmlns="http://www.w3.org/2000/svg">
  <path d="M 851 1770  C 854.36 1770  857 1772.64  857 1776  C 857 1779.36  854.36 1782  851 1782  C 847.64 1782  845 1779.36  845 1776  C 845 1772.64  847.64 1770  851 1770  Z " fill-rule="nonzero" fill="#f0f0f0" stroke="none" />
  <path d="M 851 1770.5  C 854.08 1770.5  856.5 1772.92  856.5 1776  C 856.5 1779.08  854.08 1781.5  851 1781.5  C 847.92 1781.5  845.5 1779.08  845.5 1776  C 845.5 1772.92  847.92 1770.5  851 1770.5  Z " stroke-width="1" stroke="#797979" fill="none" />
  <path d="M 851 1779  C 849.32 1779  848 1777.68  848 1776  C 848 1774.32  849.32 1773  851 1773  C 852.68 1773  854 1774.32  854 1776  C 854 1777.68  852.68 1779  851 1779  " fill-rule="nonzero" fill="#797979" stroke="none" />
</svg>