<?xml version="1.0" encoding="utf-8"?>
<svg version="1.1" xmlns:xlink="http://www.w3.org/1999/xlink" width="12px" height="12px" viewBox="956 1770  12 12" xmlns="http://www.w3.org/2000/svg">
  <path d="M 962 1770  C 965.36 1770  968 1772.64  968 1776  C 968 1779.36  965.36 1782  962 1782  C 958.64 1782  956 1779.36  956 1776  C 956 1772.64  958.64 1770  962 1770  Z " fill-rule="nonzero" fill="#f0f0f0" stroke="none" />
  <path d="M 962 1770.5  C 965.08 1770.5  967.5 1772.92  967.5 1776  C 967.5 1779.08  965.08 1781.5  962 1781.5  C 958.92 1781.5  956.5 1779.08  956.5 1776  C 956.5 1772.92  958.92 1770.5  962 1770.5  Z " stroke-width="1" stroke="#797979" fill="none" />
  <path d="M 962 1779  C 960.32 1779  959 1777.68  959 1776  C 959 1774.32  960.32 1773  962 1773  C 963.68 1773  965 1774.32  965 1776  C 965 1777.68  963.68 1779  962 1779  " fill-rule="nonzero" fill="#797979" stroke="none" />
</svg>