<?xml version="1.0" encoding="utf-8"?>
<svg version="1.1" xmlns:xlink="http://www.w3.org/1999/xlink" width="23px" height="24px" xmlns="http://www.w3.org/2000/svg">
  <g transform="matrix(1 0 0 1 -762 -271 )">
    <path d="M 22.4579124579125 17.9393939393939  C 22.8193041526375 18.3164983164983  23 18.7744107744108  23 19.3131313131313  C 23 19.8518518518519  22.8193041526375 20.3097643097643  22.4579124579125 20.6868686868687  L 19.8249158249158 23.4343434343434  C 19.4635241301908 23.8114478114478  19.0246913580247 24  18.5084175084175 24  C 17.9921436588103 24  17.5533108866442 23.8114478114478  17.1919191919192 23.4343434343434  L 11.5 17.4949494949495  L 5.80808080808081 23.4343434343434  C 5.44668911335578 23.8114478114478  5.00785634118968 24  4.49158249158249 24  C 3.97530864197531 24  3.5364758698092 23.8114478114478  3.17508417508418 23.4343434343434  L 0.542087542087542 20.6868686868687  C 0.180695847362514 20.3097643097643  0 19.8518518518519  0 19.3131313131313  C 0 18.7744107744108  0.180695847362514 18.3164983164983  0.542087542087542 17.9393939393939  L 6.23400673400673 12  L 0.542087542087542 6.06060606060606  C 0.180695847362514 5.68350168350168  0 5.22558922558923  0 4.68686868686869  C 0 4.14814814814815  0.180695847362514 3.69023569023569  0.542087542087542 3.31313131313131  L 3.17508417508418 0.565656565656566  C 3.5364758698092 0.188552188552188  3.97530864197531 0  4.49158249158249 0  C 5.00785634118968 0  5.44668911335578 0.188552188552188  5.80808080808081 0.565656565656566  L 11.5 6.50505050505051  L 17.1919191919192 0.565656565656566  C 17.5533108866442 0.188552188552188  17.9921436588103 0  18.5084175084175 0  C 19.0246913580247 0  19.4635241301908 0.188552188552188  19.8249158249158 0.565656565656566  L 22.4579124579125 3.31313131313131  C 22.8193041526375 3.69023569023569  23 4.14814814814815  23 4.68686868686869  C 23 5.22558922558923  22.8193041526375 5.68350168350168  22.4579124579125 6.06060606060606  L 16.7659932659933 12  L 22.4579124579125 17.9393939393939  Z " fill-rule="nonzero" fill="#000000" stroke="none" transform="matrix(1 0 0 1 762 271 )" />
  </g>
</svg>