<?xml version="1.0" encoding="utf-8"?>
<svg version="1.1" xmlns:xlink="http://www.w3.org/1999/xlink" width="20px" height="18px" xmlns="http://www.w3.org/2000/svg">
  <g transform="matrix(1 0 0 1 -777 -307 )">
    <path d="M 19.55078125 10.611328125  C 19.6332465277778 10.685546875  19.6744791666667 10.7734375  19.6744791666667 10.875  C 19.6744791666667 10.9140625  19.6701388888889 10.94140625  19.6614583333333 10.95703125  C 19.1059027777778 13.05078125  17.9427083333333 14.748046875  16.171875 16.048828125  C 14.4010416666667 17.349609375  12.3263888888889 18  9.94791666666667 18  C 8.68055555555556 18  7.45442708333333 17.78515625  6.26953125 17.35546875  C 5.08463541666667 16.92578125  4.02777777777778 16.3125  3.09895833333333 15.515625  L 1.41927083333333 17.02734375  C 1.25434027777778 17.17578125  1.05902777777778 17.25  0.833333333333333 17.25  C 0.607638888888889 17.25  0.412326388888889 17.17578125  0.247395833333333 17.02734375  C 0.0824652777777778 16.87890625  0 16.703125  0 16.5  L 0 11.25  C 0 11.046875  0.0824652777777778 10.87109375  0.247395833333333 10.72265625  C 0.412326388888889 10.57421875  0.607638888888889 10.5  0.833333333333333 10.5  L 6.66666666666667 10.5  C 6.89236111111111 10.5  7.08767361111111 10.57421875  7.25260416666667 10.72265625  C 7.41753472222222 10.87109375  7.5 11.046875  7.5 11.25  C 7.5 11.453125  7.41753472222222 11.62890625  7.25260416666667 11.77734375  L 5.46875 13.3828125  C 6.08506944444445 13.8984375  6.78385416666667 14.296875  7.56510416666667 14.578125  C 8.34635416666667 14.859375  9.15798611111111 15  10 15  C 11.1631944444444 15  12.2482638888889 14.74609375  13.2552083333333 14.23828125  C 14.2621527777778 13.73046875  15.0694444444444 13.03125  15.6770833333333 12.140625  C 15.7725694444444 12.0078125  16.0026041666667 11.55078125  16.3671875 10.76953125  C 16.4366319444444 10.58984375  16.5668402777778 10.5  16.7578125 10.5  L 19.2578125 10.5  C 19.3706597222222 10.5  19.4683159722222 10.537109375  19.55078125 10.611328125  Z M 19.7526041666667 0.972656250000001  C 19.9175347222222 1.12109375  20 1.296875  20 1.5  L 20 6.75  C 20 6.953125  19.9175347222222 7.12890625  19.7526041666667 7.27734375  C 19.5876736111111 7.42578125  19.3923611111111 7.5  19.1666666666667 7.5  L 13.3333333333333 7.5  C 13.1076388888889 7.5  12.9123263888889 7.42578125  12.7473958333333 7.27734375  C 12.5824652777778 7.12890625  12.5 6.953125  12.5 6.75  C 12.5 6.546875  12.5824652777778 6.37109375  12.7473958333333 6.22265625  L 14.5442708333333 4.60546875  C 13.2595486111111 3.53515625  11.7447916666667 3  10 3  C 8.83680555555556 3  7.75173611111111 3.25390625  6.74479166666667 3.76171875  C 5.73784722222222 4.26953125  4.93055555555556 4.96875  4.32291666666667 5.859375  C 4.22743055555556 5.9921875  3.99739583333333 6.44921875  3.6328125 7.23046875  C 3.56336805555556 7.41015625  3.43315972222222 7.5  3.2421875 7.5  L 0.651041666666667 7.5  C 0.538194444444444 7.5  0.440538194444444 7.462890625  0.358072916666667 7.388671875  C 0.275607638888889 7.314453125  0.234375 7.2265625  0.234375 7.125  L 0.234375 7.04296875  C 0.798611111111111 4.94921875  1.97048611111111 3.251953125  3.75 1.951171875  C 5.52951388888889 0.650390625  7.61284722222222 0  10 0  C 11.2673611111111 0  12.5 0.216796875000001  13.6979166666667 0.650390625  C 14.8958333333333 1.083984375  15.9592013888889 1.6953125  16.8880208333333 2.484375  L 18.5807291666667 0.972656250000001  C 18.7456597222222 0.824218749999998  18.9409722222222 0.749999999999999  19.1666666666667 0.749999999999999  C 19.3923611111111 0.749999999999999  19.5876736111111 0.824218749999998  19.7526041666667 0.972656250000001  Z " fill-rule="nonzero" fill="#000000" stroke="none" transform="matrix(1 0 0 1 777 307 )" />
  </g>
</svg>