<?xml version="1.0" encoding="utf-8"?>
<svg version="1.1" xmlns:xlink="http://www.w3.org/1999/xlink" width="69px" height="10px" preserveAspectRatio="xMinYMid meet" viewBox="777 657  69 8" xmlns="http://www.w3.org/2000/svg">
  <path d="M 783 661  L 841 661  L 841 799  " stroke-width="2" stroke-dasharray="18,8" stroke="#70b603" fill="none" />
  <path d="M 780.5 657.5  A 3.5 3.5 0 0 0 777 661 A 3.5 3.5 0 0 0 780.5 664.5 A 3.5 3.5 0 0 0 784 661 A 3.5 3.5 0 0 0 780.5 657.5 Z M 780.5 659.5  A 1.5 1.5 0 0 1 782 661 A 1.5 1.5 0 0 1 780.5 662.5 A 1.5 1.5 0 0 1 779 661 A 1.5 1.5 0 0 1 780.5 659.5 Z M 833.4 798  L 841 805  L 848.6 798  L 833.4 798  Z M 838.2 800  L 843.8 800  L 841 802  L 838.2 800  Z " fill-rule="nonzero" fill="#70b603" stroke="none" />
</svg>