<?xml version="1.0" encoding="utf-8"?>
<svg version="1.1" xmlns:xlink="http://www.w3.org/1999/xlink" width="53px" height="10px" preserveAspectRatio="xMinYMid meet" viewBox="374 374  53 8" xmlns="http://www.w3.org/2000/svg">
  <path d="M 380 378  L 422 378  L 422 484  L 432 484  " stroke-width="2" stroke-dasharray="6,2" stroke="#70b603" fill="none" />
  <path d="M 377.5 374.5  A 3.5 3.5 0 0 0 374 378 A 3.5 3.5 0 0 0 377.5 381.5 A 3.5 3.5 0 0 0 381 378 A 3.5 3.5 0 0 0 377.5 374.5 Z M 377.5 376.5  A 1.5 1.5 0 0 1 379 378 A 1.5 1.5 0 0 1 377.5 379.5 A 1.5 1.5 0 0 1 376 378 A 1.5 1.5 0 0 1 377.5 376.5 Z M 431 491.6  L 438 484  L 431 476.4  L 431 491.6  Z M 433 486.8  L 433 481.2  L 435 484  L 433 486.8  Z " fill-rule="nonzero" fill="#70b603" stroke="none" />
</svg>