<?xml version="1.0" encoding="utf-8"?>
<svg version="1.1" xmlns:xlink="http://www.w3.org/1999/xlink" width="50px" height="50px" xmlns="http://www.w3.org/2000/svg">
  <defs>
    <mask fill="white" id="clip18">
      <path d="M 2909 -2769  C 2897.345 -2769  2888 -2778.345  2888 -2790  L 2888 -2798  C 2888 -2809.655  2897.345 -2819  2909 -2819  L 2917 -2819  C 2928.655 -2819  2938 -2809.655  2938 -2798  L 2938 -2790  C 2938 -2778.345  2928.655 -2769  2917 -2769  " fill-rule="evenodd" />
    </mask>
  </defs>
  <g transform="matrix(1 0 0 1 -2888 2819 )">
    <path d="M 2888 -2819  L 2938 -2819  L 2938 -2769  L 2888 -2769  L 2888 -2819  " fill-rule="nonzero" fill="#cccccc" stroke="none" mask="url(#clip18)" />
    <path d="M 2892 -2815  L 2934 -2815  L 2934 -2773  L 2892 -2773  L 2892 -2815  " fill-rule="nonzero" fill="#ffffff" stroke="none" mask="url(#clip18)" />
    <path d="M 2917.75 -2804  C 2915.65 -2804  2914 -2805.65  2914 -2807.75  C 2914 -2809.85  2915.65 -2811.5  2917.75 -2811.5  C 2919.85 -2811.5  2921.5 -2809.85  2921.5 -2807.75  C 2921.5 -2805.65  2919.85 -2804  2917.75 -2804  " fill-rule="nonzero" fill="#cccccc" stroke="none" mask="url(#clip18)" />
    <path d="M 2894 -2775  L 2894 -2796.45  L 2903.75 -2806.2  L 2917.4 -2798.4  L 2925.2 -2800.35  L 2933 -2798.4  L 2933 -2775  L 2894 -2775  " fill-rule="nonzero" fill="#169bd5" stroke="none" mask="url(#clip18)" />
  </g>
</svg>