<?xml version="1.0" encoding="utf-8"?>
<svg version="1.1" xmlns:xlink="http://www.w3.org/1999/xlink" width="50px" height="50px" xmlns="http://www.w3.org/2000/svg">
  <defs>
    <mask fill="white" id="clip19">
      <path d="M 1055 2720  C 1041.125 2720  1030 2708.875  1030 2695  L 1030 2695  C 1030 2681.125  1041.125 2670  1055 2670  L 1055 2670  C 1068.875 2670  1080 2681.125  1080 2695  L 1080 2695  C 1080 2708.875  1068.875 2720  1055 2720  " fill-rule="evenodd" />
    </mask>
  </defs>
  <g transform="matrix(1 0 0 1 -1030 -2670 )">
    <path d="M 1030 2670  L 1080 2670  L 1080 2720  L 1030 2720  L 1030 2670  " fill-rule="nonzero" fill="#cccccc" stroke="none" mask="url(#clip19)" />
    <path d="M 1034 2674  L 1076 2674  L 1076 2716  L 1034 2716  L 1034 2674  " fill-rule="nonzero" fill="#ffffff" stroke="none" mask="url(#clip19)" />
    <path d="M 1059.75 2685  C 1057.65 2685  1056 2683.35  1056 2681.25  C 1056 2679.15  1057.65 2677.5  1059.75 2677.5  C 1061.85 2677.5  1063.5 2679.15  1063.5 2681.25  C 1063.5 2683.35  1061.85 2685  1059.75 2685  " fill-rule="nonzero" fill="#cccccc" stroke="none" mask="url(#clip19)" />
    <path d="M 1036 2715  L 1036 2693.55  L 1045.75 2683.8  L 1059.4 2691.6  L 1067.2 2689.65  L 1075 2691.6  L 1075 2715  L 1036 2715  " fill-rule="nonzero" fill="#169bd5" stroke="none" mask="url(#clip19)" />
  </g>
</svg>