<?xml version="1.0" encoding="utf-8"?>
<svg version="1.1" xmlns:xlink="http://www.w3.org/1999/xlink" width="50px" height="50px" xmlns="http://www.w3.org/2000/svg">
  <defs>
    <mask fill="white" id="clip19">
      <path d="M 308 2694  C 294.125 2694  283 2682.875  283 2669  L 283 2669  C 283 2655.125  294.125 2644  308 2644  L 308 2644  C 321.875 2644  333 2655.125  333 2669  L 333 2669  C 333 2682.875  321.875 2694  308 2694  " fill-rule="evenodd" />
    </mask>
  </defs>
  <g transform="matrix(1 0 0 1 -283 -2644 )">
    <path d="M 283 2644  L 333 2644  L 333 2694  L 283 2694  L 283 2644  " fill-rule="nonzero" fill="#cccccc" stroke="none" mask="url(#clip19)" />
    <path d="M 287 2648  L 329 2648  L 329 2690  L 287 2690  L 287 2648  " fill-rule="nonzero" fill="#ffffff" stroke="none" mask="url(#clip19)" />
    <path d="M 312.75 2659  C 310.65 2659  309 2657.35  309 2655.25  C 309 2653.15  310.65 2651.5  312.75 2651.5  C 314.85 2651.5  316.5 2653.15  316.5 2655.25  C 316.5 2657.35  314.85 2659  312.75 2659  " fill-rule="nonzero" fill="#cccccc" stroke="none" mask="url(#clip19)" />
    <path d="M 289 2689  L 289 2667.55  L 298.75 2657.8  L 312.4 2665.6  L 320.2 2663.65  L 328 2665.6  L 328 2689  L 289 2689  " fill-rule="nonzero" fill="#169bd5" stroke="none" mask="url(#clip19)" />
  </g>
</svg>