<?xml version="1.0" encoding="utf-8"?>
<svg version="1.1" xmlns:xlink="http://www.w3.org/1999/xlink" width="40px" height="40px" xmlns="http://www.w3.org/2000/svg">
  <g transform="matrix(1 0 0 1 -1014 -3013 )">
    <path d="M 1034 3013  C 1045.2 3013  1054 3021.8  1054 3033  C 1054 3044.2  1045.2 3053  1034 3053  C 1022.8 3053  1014 3044.2  1014 3033  C 1014 3021.8  1022.8 3013  1034 3013  Z " fill-rule="nonzero" fill="#ffffff" stroke="none" />
    <path d="M 1034 3013.5  C 1044.92 3013.5  1053.5 3022.08  1053.5 3033  C 1053.5 3043.92  1044.92 3052.5  1034 3052.5  C 1023.08 3052.5  1014.5 3043.92  1014.5 3033  C 1014.5 3022.08  1023.08 3013.5  1034 3013.5  Z " stroke-width="1" stroke="#797979" fill="none" />
  </g>
</svg>