<?xml version="1.0" encoding="utf-8"?>
<svg version="1.1" xmlns:xlink="http://www.w3.org/1999/xlink" width="40px" height="40px" xmlns="http://www.w3.org/2000/svg">
  <g transform="matrix(1 0 0 1 -267 -2987 )">
    <path d="M 287 2987  C 298.2 2987  307 2995.8  307 3007  C 307 3018.2  298.2 3027  287 3027  C 275.8 3027  267 3018.2  267 3007  C 267 2995.8  275.8 2987  287 2987  Z " fill-rule="nonzero" fill="#ffffff" stroke="none" />
    <path d="M 287 2987.5  C 297.92 2987.5  306.5 2996.08  306.5 3007  C 306.5 3017.92  297.92 3026.5  287 3026.5  C 276.08 3026.5  267.5 3017.92  267.5 3007  C 267.5 2996.08  276.08 2987.5  287 2987.5  Z " stroke-width="1" stroke="#797979" fill="none" />
  </g>
</svg>