<?xml version="1.0" encoding="utf-8"?>
<svg version="1.1" xmlns:xlink="http://www.w3.org/1999/xlink" width="29px" height="28px" xmlns="http://www.w3.org/2000/svg">
  <defs>
    <mask fill="white" id="clip471">
      <path d="M 2620 173  C 2612.23 173  2606 166.77  2606 159  L 2606 159  C 2606 151.23  2612.23 145  2620 145  L 2621 145  C 2628.77 145  2635 151.23  2635 159  L 2635 159  C 2635 166.77  2628.77 173  2621 173  " fill-rule="evenodd" />
    </mask>
  </defs>
  <g transform="matrix(1 0 0 1 -2606 -145 )">
    <path d="M 2606 145  L 2635 145  L 2635 173  L 2606 173  L 2606 145  " fill-rule="nonzero" fill="#cccccc" stroke="none" mask="url(#clip471)" />
    <path d="M 2608 147  L 2633 147  L 2633 171  L 2608 171  L 2608 147  " fill-rule="nonzero" fill="#ffffff" stroke="none" mask="url(#clip471)" />
    <path d="M 2623.18 153.4  C 2622.004 153.4  2621.08 152.476  2621.08 151.3  C 2621.08 150.124  2622.004 149.2  2623.18 149.2  C 2624.356 149.2  2625.28 150.124  2625.28 151.3  C 2625.28 152.476  2624.356 153.4  2623.18 153.4  " fill-rule="nonzero" fill="#cccccc" stroke="none" mask="url(#clip471)" />
    <path d="M 2609 171  L 2609 158.35  L 2615 152.6  L 2623.4 157.675862068966  L 2628.2 156.05  L 2633 157.675862068966  L 2633 171  L 2609 171  " fill-rule="nonzero" fill="#169bd5" stroke="none" mask="url(#clip471)" />
  </g>
</svg>