<?xml version="1.0" encoding="utf-8"?>
<svg version="1.1" xmlns:xlink="http://www.w3.org/1999/xlink" width="17px" height="20px" xmlns="http://www.w3.org/2000/svg">
  <g transform="matrix(1 0 0 1 -3627 -455 )">
    <path d="M 3635.5 455  C 3640.26 455  3644 459.4  3644 465  C 3644 470.6  3640.26 475  3635.5 475  C 3630.74 475  3627 470.6  3627 465  C 3627 459.4  3630.74 455  3635.5 455  Z " fill-rule="nonzero" fill="#d9001b" stroke="none" />
    <path d="M 3635.5 455.5  C 3639.98 455.5  3643.5 459.68  3643.5 465  C 3643.5 470.32  3639.98 474.5  3635.5 474.5  C 3631.02 474.5  3627.5 470.32  3627.5 465  C 3627.5 459.68  3631.02 455.5  3635.5 455.5  Z " stroke-width="1" stroke="#797979" fill="none" />
  </g>
</svg>