<?xml version="1.0" encoding="utf-8"?>
<svg version="1.1" xmlns:xlink="http://www.w3.org/1999/xlink" width="57px" height="50px" xmlns="http://www.w3.org/2000/svg">
  <g transform="matrix(1 0 0 1 -3332 -540 )">
    <path d="M 3332 540  L 3389 540  L 3389 590  L 3332 590  L 3332 540  " fill-rule="nonzero" fill="#cccccc" stroke="none" />
    <path d="M 3336 544  L 3385 544  L 3385 586  L 3336 586  L 3336 544  " fill-rule="nonzero" fill="#ffffff" stroke="none" />
    <path d="M 3365.39 555  C 3363.29 555  3361.64 553.35  3361.64 551.25  C 3361.64 549.15  3363.29 547.5  3365.39 547.5  C 3367.49 547.5  3369.14 549.15  3369.14 551.25  C 3369.14 553.35  3367.49 555  3365.39 555  " fill-rule="nonzero" fill="#cccccc" stroke="none" />
    <path d="M 3338 585  L 3338 563.55  L 3349.5 553.8  L 3365.6 564.473684210526  L 3374.8 559.65  L 3384 564.473684210526  L 3384 585  L 3338 585  " fill-rule="nonzero" fill="#169bd5" stroke="none" />
  </g>
</svg>