<?xml version="1.0" encoding="utf-8"?>
<svg version="1.1" xmlns:xlink="http://www.w3.org/1999/xlink" width="32px" height="30px" xmlns="http://www.w3.org/2000/svg">
  <g transform="matrix(1 0 0 1 -2842 -632 )">
    <path d="M 2858 632  C 2866.96 632  2874 638.6  2874 647  C 2874 655.4  2866.96 662  2858 662  C 2849.04 662  2842 655.4  2842 647  C 2842 638.6  2849.04 632  2858 632  Z " fill-rule="nonzero" fill="#ffffff" stroke="none" />
    <path d="M 2858 632.5  C 2866.68 632.5  2873.5 638.88  2873.5 647  C 2873.5 655.12  2866.68 661.5  2858 661.5  C 2849.32 661.5  2842.5 655.12  2842.5 647  C 2842.5 638.88  2849.32 632.5  2858 632.5  Z " stroke-width="1" stroke="#797979" fill="none" />
  </g>
</svg>