<?xml version="1.0" encoding="utf-8"?>
<svg version="1.1" xmlns:xlink="http://www.w3.org/1999/xlink" width="16px" height="17px" xmlns="http://www.w3.org/2000/svg">
  <defs>
    <mask fill="white" id="clip26">
      <path d="M 3403 655  C 3398.56 655  3395 651.44  3395 647  L 3395 646  C 3395 641.56  3398.56 638  3403 638  L 3403 638  C 3407.44 638  3411 641.56  3411 646  L 3411 647  C 3411 651.44  3407.44 655  3403 655  " fill-rule="evenodd" />
    </mask>
  </defs>
  <g transform="matrix(1 0 0 1 -3395 -638 )">
    <path d="M 3395 638  L 3411 638  L 3411 655  L 3395 655  L 3395 638  " fill-rule="nonzero" fill="#cccccc" stroke="none" mask="url(#clip26)" />
    <path d="M 3396 639  L 3410 639  L 3410 654  L 3396 654  L 3396 639  " fill-rule="nonzero" fill="#ffffff" stroke="none" mask="url(#clip26)" />
    <path d="M 3404.52 642.95  C 3403.848 642.95  3403.32 642.422  3403.32 641.75  C 3403.32 641.078  3403.848 640.55  3404.52 640.55  C 3405.192 640.55  3405.72 641.078  3405.72 641.75  C 3405.72 642.422  3405.192 642.95  3404.52 642.95  " fill-rule="nonzero" fill="#cccccc" stroke="none" mask="url(#clip26)" />
    <path d="M 3397 654  L 3397 646.3  L 3400.25 642.8  L 3404.8 645.6  L 3407.4 644.9  L 3410 645.6  L 3410 654  L 3397 654  " fill-rule="nonzero" fill="#169bd5" stroke="none" mask="url(#clip26)" />
  </g>
</svg>