<?xml version="1.0" encoding="utf-8"?>
<svg version="1.1" xmlns:xlink="http://www.w3.org/1999/xlink" width="50px" height="50px" xmlns="http://www.w3.org/2000/svg">
  <defs>
    <mask fill="white" id="clip294">
      <path d="M 2162 -2795  C 2150.345 -2795  2141 -2804.345  2141 -2816  L 2141 -2824  C 2141 -2835.655  2150.345 -2845  2162 -2845  L 2170 -2845  C 2181.655 -2845  2191 -2835.655  2191 -2824  L 2191 -2816  C 2191 -2804.345  2181.655 -2795  2170 -2795  " fill-rule="evenodd" />
    </mask>
  </defs>
  <g transform="matrix(1 0 0 1 -2141 2845 )">
    <path d="M 2141 -2845  L 2191 -2845  L 2191 -2795  L 2141 -2795  L 2141 -2845  " fill-rule="nonzero" fill="#cccccc" stroke="none" mask="url(#clip294)" />
    <path d="M 2145 -2841  L 2187 -2841  L 2187 -2799  L 2145 -2799  L 2145 -2841  " fill-rule="nonzero" fill="#ffffff" stroke="none" mask="url(#clip294)" />
    <path d="M 2170.75 -2830  C 2168.65 -2830  2167 -2831.65  2167 -2833.75  C 2167 -2835.85  2168.65 -2837.5  2170.75 -2837.5  C 2172.85 -2837.5  2174.5 -2835.85  2174.5 -2833.75  C 2174.5 -2831.65  2172.85 -2830  2170.75 -2830  " fill-rule="nonzero" fill="#cccccc" stroke="none" mask="url(#clip294)" />
    <path d="M 2147 -2801  L 2147 -2822.45  L 2156.75 -2832.2  L 2170.4 -2824.4  L 2178.2 -2826.35  L 2186 -2824.4  L 2186 -2801  L 2147 -2801  " fill-rule="nonzero" fill="#169bd5" stroke="none" mask="url(#clip294)" />
  </g>
</svg>