<?xml version="1.0" encoding="utf-8"?>
<svg version="1.1" xmlns:xlink="http://www.w3.org/1999/xlink" width="57px" height="50px" xmlns="http://www.w3.org/2000/svg">
  <g transform="matrix(1 0 0 1 -2585 -514 )">
    <path d="M 2585 514  L 2642 514  L 2642 564  L 2585 564  L 2585 514  " fill-rule="nonzero" fill="#cccccc" stroke="none" />
    <path d="M 2589 518  L 2638 518  L 2638 560  L 2589 560  L 2589 518  " fill-rule="nonzero" fill="#ffffff" stroke="none" />
    <path d="M 2618.39 529  C 2616.29 529  2614.64 527.35  2614.64 525.25  C 2614.64 523.15  2616.29 521.5  2618.39 521.5  C 2620.49 521.5  2622.14 523.15  2622.14 525.25  C 2622.14 527.35  2620.49 529  2618.39 529  " fill-rule="nonzero" fill="#cccccc" stroke="none" />
    <path d="M 2591 559  L 2591 537.55  L 2602.5 527.8  L 2618.6 538.473684210526  L 2627.8 533.65  L 2637 538.473684210526  L 2637 559  L 2591 559  " fill-rule="nonzero" fill="#169bd5" stroke="none" />
  </g>
</svg>