<?xml version="1.0" encoding="utf-8"?>
<svg version="1.1" xmlns:xlink="http://www.w3.org/1999/xlink" width="16px" height="17px" xmlns="http://www.w3.org/2000/svg">
  <defs>
    <mask fill="white" id="clip645">
      <path d="M 2656 629  C 2651.56 629  2648 625.44  2648 621  L 2648 620  C 2648 615.56  2651.56 612  2656 612  L 2656 612  C 2660.44 612  2664 615.56  2664 620  L 2664 621  C 2664 625.44  2660.44 629  2656 629  " fill-rule="evenodd" />
    </mask>
  </defs>
  <g transform="matrix(1 0 0 1 -2648 -612 )">
    <path d="M 2648 612  L 2664 612  L 2664 629  L 2648 629  L 2648 612  " fill-rule="nonzero" fill="#cccccc" stroke="none" mask="url(#clip645)" />
    <path d="M 2649 613  L 2663 613  L 2663 628  L 2649 628  L 2649 613  " fill-rule="nonzero" fill="#ffffff" stroke="none" mask="url(#clip645)" />
    <path d="M 2657.52 616.95  C 2656.848 616.95  2656.32 616.422  2656.32 615.75  C 2656.32 615.078  2656.848 614.55  2657.52 614.55  C 2658.192 614.55  2658.72 615.078  2658.72 615.75  C 2658.72 616.422  2658.192 616.95  2657.52 616.95  " fill-rule="nonzero" fill="#cccccc" stroke="none" mask="url(#clip645)" />
    <path d="M 2650 628  L 2650 620.3  L 2653.25 616.8  L 2657.8 619.6  L 2660.4 618.9  L 2663 619.6  L 2663 628  L 2650 628  " fill-rule="nonzero" fill="#169bd5" stroke="none" mask="url(#clip645)" />
  </g>
</svg>