<?xml version="1.0" encoding="utf-8"?>
<svg version="1.1" xmlns:xlink="http://www.w3.org/1999/xlink" width="32px" height="30px" xmlns="http://www.w3.org/2000/svg">
  <g transform="matrix(1 0 0 1 -2095 -606 )">
    <path d="M 2111 606  C 2119.96 606  2127 612.6  2127 621  C 2127 629.4  2119.96 636  2111 636  C 2102.04 636  2095 629.4  2095 621  C 2095 612.6  2102.04 606  2111 606  Z " fill-rule="nonzero" fill="#ffffff" stroke="none" />
    <path d="M 2111 606.5  C 2119.68 606.5  2126.5 612.88  2126.5 621  C 2126.5 629.12  2119.68 635.5  2111 635.5  C 2102.32 635.5  2095.5 629.12  2095.5 621  C 2095.5 612.88  2102.32 606.5  2111 606.5  Z " stroke-width="1" stroke="#797979" fill="none" />
  </g>
</svg>