<?xml version="1.0" encoding="utf-8"?>
<svg version="1.1" xmlns:xlink="http://www.w3.org/1999/xlink" width="17px" height="20px" xmlns="http://www.w3.org/2000/svg">
  <g transform="matrix(1 0 0 1 -2880 -429 )">
    <path d="M 2888.5 429  C 2893.26 429  2897 433.4  2897 439  C 2897 444.6  2893.26 449  2888.5 449  C 2883.74 449  2880 444.6  2880 439  C 2880 433.4  2883.74 429  2888.5 429  Z " fill-rule="nonzero" fill="#d9001b" stroke="none" />
    <path d="M 2888.5 429.5  C 2892.98 429.5  2896.5 433.68  2896.5 439  C 2896.5 444.32  2892.98 448.5  2888.5 448.5  C 2884.02 448.5  2880.5 444.32  2880.5 439  C 2880.5 433.68  2884.02 429.5  2888.5 429.5  Z " stroke-width="1" stroke="#797979" fill="none" />
  </g>
</svg>