<?xml version="1.0" encoding="utf-8"?>
<svg version="1.1" xmlns:xlink="http://www.w3.org/1999/xlink" width="22px" height="23px" xmlns="http://www.w3.org/2000/svg">
  <g transform="matrix(1 0 0 1 -1800 -122 )">
    <path d="M 21.3493303571429 10.393125  C 21.7831101190476 11.6772916666667  22 13.2729166666667  22 15.18  C 22 16.7708333333333  21.4802827380952 18.931875  20.4408482142857 21.663125  C 20.4162946428571 21.7302083333333  20.3733258928571 21.8452083333333  20.3119419642857 22.008125  C 20.2505580357143 22.1710416666667  20.1953125 22.3147916666667  20.1462053571429 22.439375  C 20.0970982142857 22.5639583333333  20.0438988095238 22.669375  19.9866071428571 22.755625  C 19.8883928571429 22.9185416666667  19.7738095238095 23  19.6428571428571 23  C 19.5200892857143 23  19.4239211309524 22.9520833333333  19.3543526785714 22.85625  C 19.2847842261905 22.7604166666667  19.25 22.640625  19.25 22.496875  C 19.25 22.410625  19.2602306547619 22.2836458333333  19.2806919642857 22.1159375  C 19.3011532738095 21.9482291666667  19.3113839285714 21.835625  19.3113839285714 21.778125  C 19.352306547619 21.1264583333333  19.3727678571429 20.5370833333333  19.3727678571429 20.01  C 19.3727678571429 19.0420833333333  19.3011532738095 18.1747916666667  19.1579241071429 17.408125  C 19.0146949404762 16.6414583333333  18.8162202380952 15.9778125  18.5625 15.4171875  C 18.3087797619048 14.8565625  17.9813988095238 14.3726041666667  17.5803571428571 13.9653125  C 17.1793154761905 13.5580208333333  16.7475818452381 13.225  16.28515625 12.96625  C 15.8227306547619 12.7075  15.2784598214286 12.5038541666667  14.65234375 12.3553125  C 14.0262276785714 12.2067708333333  13.3960193452381 12.10375  12.76171875 12.04625  C 12.1274181547619 11.98875  11.4092261904762 11.96  10.6071428571429 11.96  L 7.85714285714286 11.96  L 7.85714285714286 15.64  C 7.85714285714286 15.8891666666667  7.77938988095238 16.1047916666667  7.62388392857143 16.286875  C 7.46837797619048 16.4689583333333  7.28422619047619 16.56  7.07142857142857 16.56  C 6.85863095238095 16.56  6.67447916666667 16.4689583333333  6.51897321428571 16.286875  L 0.233258928571429 8.926875  C 0.0777529761904762 8.74479166666666  0 8.52916666666667  0 8.28  C 0 8.03083333333333  0.0777529761904762 7.81520833333333  0.233258928571429 7.633125  L 6.51897321428571 0.273124999999999  C 6.67447916666667 0.0910416666666656  6.85863095238095 0  7.07142857142857 0  C 7.28422619047619 0  7.46837797619048 0.0910416666666656  7.62388392857143 0.273124999999999  C 7.77938988095238 0.45520833333333  7.85714285714286 0.670833333333331  7.85714285714286 0.920000000000001  L 7.85714285714286 4.6  L 10.6071428571429 4.6  C 16.4427083333333 4.6  20.0234375 6.53104166666667  21.3493303571429 10.393125  Z " fill-rule="nonzero" fill="#000000" stroke="none" transform="matrix(1 0 0 1 1800 122 )" />
  </g>
</svg>