<?xml version="1.0" encoding="utf-8"?>
<svg version="1.1" xmlns:xlink="http://www.w3.org/1999/xlink" width="21px" height="21px" xmlns="http://www.w3.org/2000/svg">
  <g transform="matrix(1 0 0 1 -972 -2602 )">
    <path d="M 7.50213068181818 17.376953125  C 7.59161931818182 17.294921875  7.63636363636364 17.1901041666667  7.63636363636364 17.0625  L 7.63636363636364 7.4375  C 7.63636363636364 7.30989583333333  7.59161931818182 7.205078125  7.50213068181818 7.123046875  C 7.41264204545454 7.041015625  7.29829545454546 7  7.15909090909091 7  L 6.20454545454546 7  C 6.06534090909091 7  5.95099431818182 7.041015625  5.86150568181818 7.123046875  C 5.77201704545454 7.205078125  5.72727272727273 7.30989583333333  5.72727272727273 7.4375  L 5.72727272727273 17.0625  C 5.72727272727273 17.1901041666667  5.77201704545454 17.294921875  5.86150568181818 17.376953125  C 5.95099431818182 17.458984375  6.06534090909091 17.5  6.20454545454546 17.5  L 7.15909090909091 17.5  C 7.29829545454546 17.5  7.41264204545454 17.458984375  7.50213068181818 17.376953125  Z M 11.3203125 17.376953125  C 11.4098011363636 17.294921875  11.4545454545455 17.1901041666667  11.4545454545455 17.0625  L 11.4545454545455 7.4375  C 11.4545454545455 7.30989583333333  11.4098011363636 7.205078125  11.3203125 7.123046875  C 11.2308238636364 7.041015625  11.1164772727273 7  10.9772727272727 7  L 10.0227272727273 7  C 9.88352272727273 7  9.76917613636364 7.041015625  9.6796875 7.123046875  C 9.59019886363636 7.205078125  9.54545454545454 7.30989583333333  9.54545454545454 7.4375  L 9.54545454545454 17.0625  C 9.54545454545454 17.1901041666667  9.59019886363636 17.294921875  9.6796875 17.376953125  C 9.76917613636364 17.458984375  9.88352272727273 17.5  10.0227272727273 17.5  L 10.9772727272727 17.5  C 11.1164772727273 17.5  11.2308238636364 17.458984375  11.3203125 17.376953125  Z M 15.1384943181818 17.376953125  C 15.2279829545455 17.294921875  15.2727272727273 17.1901041666667  15.2727272727273 17.0625  L 15.2727272727273 7.4375  C 15.2727272727273 7.30989583333333  15.2279829545455 7.205078125  15.1384943181818 7.123046875  C 15.0490056818182 7.041015625  14.9346590909091 7  14.7954545454545 7  L 13.8409090909091 7  C 13.7017045454545 7  13.5873579545455 7.041015625  13.4978693181818 7.123046875  C 13.4083806818182 7.205078125  13.3636363636364 7.30989583333333  13.3636363636364 7.4375  L 13.3636363636364 17.0625  C 13.3636363636364 17.1901041666667  13.4083806818182 17.294921875  13.4978693181818 17.376953125  C 13.5873579545455 17.458984375  13.7017045454545 17.5  13.8409090909091 17.5  L 14.7954545454545 17.5  C 14.9346590909091 17.5  15.0490056818182 17.458984375  15.1384943181818 17.376953125  Z M 7.88991477272727 1.900390625  L 7.15909090909091 3.5  L 13.8409090909091 3.5  L 13.125 1.900390625  C 13.0553977272727 1.818359375  12.9708806818182 1.76822916666667  12.8714488636364 1.75  L 8.14346590909091 1.75  C 8.04403409090909 1.76822916666667  7.95951704545455 1.818359375  7.88991477272727 1.900390625  Z M 20.8657670454545 3.623046875  C 20.9552556818182 3.705078125  21 3.80989583333333  21 3.9375  L 21 4.8125  C 21 4.94010416666667  20.9552556818182 5.044921875  20.8657670454545 5.126953125  C 20.7762784090909 5.208984375  20.6619318181818 5.25  20.5227272727273 5.25  L 19 5.25  L 19 18.2109375  C 19.0909090909091 18.9674479166667  18.8572443181818 19.6214192708333  18.3899147727273 20.1728515625  C 17.9225852272727 20.7242838541667  17.3607954545455 21  16.7045454545455 21  L 4.29545454545455 21  C 3.63920454545455 21  3.07741477272727 20.7333984375  2.61008522727273 20.2001953125  C 2.14275568181818 19.6669921875  1.90909090909091 19.0221354166667  2 18.265625  L 2 5.25  L 0.477272727272727 5.25  C 0.338068181818182 5.25  0.223721590909091 5.208984375  0.134232954545455 5.126953125  C 0.0447443181818182 5.044921875  0 4.94010416666667  0 4.8125  L 0 3.9375  C 0 3.80989583333333  0.0447443181818182 3.705078125  0.134232954545455 3.623046875  C 0.223721590909091 3.541015625  0.338068181818182 3.5  0.477272727272727 3.5  L 5.0859375 3.5  L 6.12997159090909 1.216796875  C 6.27911931818182 0.879557291666665  6.54758522727273 0.592447916666665  6.93536931818182 0.355468750000001  C 7.32315340909091 0.118489583333332  7.71590909090909 0  8.11363636363636 0  L 12.8863636363636 0  C 13.2840909090909 0  13.6768465909091 0.118489583333332  14.0646306818182 0.355468750000001  C 14.4524147727273 0.592447916666665  14.7208806818182 0.879557291666665  14.8700284090909 1.216796875  L 15.9140625 3.5  L 20.5227272727273 3.5  C 20.6619318181818 3.5  20.7762784090909 3.541015625  20.8657670454545 3.623046875  Z " fill-rule="nonzero" fill="#000000" stroke="none" transform="matrix(1 0 0 1 972 2602 )" />
  </g>
</svg>