<?xml version="1.0" encoding="utf-8"?>
<svg version="1.1" xmlns:xlink="http://www.w3.org/1999/xlink" width="17px" height="18px" xmlns="http://www.w3.org/2000/svg">
  <g transform="matrix(1 0 0 1 -984 -1451 )">
    <path d="M 6.07315340909091 6.85546875  C 6.14559659090909 6.92578125  6.18181818181818 7.015625  6.18181818181818 7.125  L 6.18181818181818 13.875  C 6.18181818181818 13.984375  6.14559659090909 14.07421875  6.07315340909091 14.14453125  C 6.00071022727273 14.21484375  5.90814393939394 14.25  5.79545454545454 14.25  L 5.02272727272727 14.25  C 4.91003787878788 14.25  4.81747159090909 14.21484375  4.74502840909091 14.14453125  C 4.67258522727273 14.07421875  4.63636363636364 13.984375  4.63636363636364 13.875  L 4.63636363636364 7.125  C 4.63636363636364 7.015625  4.67258522727273 6.92578125  4.74502840909091 6.85546875  C 4.81747159090909 6.78515625  4.91003787878788 6.75  5.02272727272727 6.75  L 5.79545454545454 6.75  C 5.90814393939394 6.75  6.00071022727273 6.78515625  6.07315340909091 6.85546875  Z M 9.1640625 6.85546875  C 9.23650568181818 6.92578125  9.27272727272727 7.015625  9.27272727272727 7.125  L 9.27272727272727 13.875  C 9.27272727272727 13.984375  9.23650568181818 14.07421875  9.1640625 14.14453125  C 9.09161931818182 14.21484375  8.99905303030303 14.25  8.88636363636364 14.25  L 8.11363636363636 14.25  C 8.00094696969697 14.25  7.90838068181818 14.21484375  7.8359375 14.14453125  C 7.76349431818182 14.07421875  7.72727272727273 13.984375  7.72727272727273 13.875  L 7.72727272727273 7.125  C 7.72727272727273 7.015625  7.76349431818182 6.92578125  7.8359375 6.85546875  C 7.90838068181818 6.78515625  8.00094696969697 6.75  8.11363636363636 6.75  L 8.88636363636364 6.75  C 8.99905303030303 6.75  9.09161931818182 6.78515625  9.1640625 6.85546875  Z M 12.2549715909091 6.85546875  C 12.3274147727273 6.92578125  12.3636363636364 7.015625  12.3636363636364 7.125  L 12.3636363636364 13.875  C 12.3636363636364 13.984375  12.3274147727273 14.07421875  12.2549715909091 14.14453125  C 12.1825284090909 14.21484375  12.0899621212121 14.25  11.9772727272727 14.25  L 11.2045454545455 14.25  C 11.0918560606061 14.25  10.9992897727273 14.21484375  10.9268465909091 14.14453125  C 10.8544034090909 14.07421875  10.8181818181818 13.984375  10.8181818181818 13.875  L 10.8181818181818 7.125  C 10.8181818181818 7.015625  10.8544034090909 6.92578125  10.9268465909091 6.85546875  C 10.9992897727273 6.78515625  11.0918560606061 6.75  11.2045454545455 6.75  L 11.9772727272727 6.75  C 12.0899621212121 6.75  12.1825284090909 6.78515625  12.2549715909091 6.85546875  Z M 13.8245738636364 16.083984375  C 13.8809185606061 15.939453125  13.9090909090909 15.78125  14 15.609375  L 14 4.5  L 3 4.5  L 3 15.609375  C 3.09090909090909 15.78125  3.11908143939394 15.939453125  3.17542613636364 16.083984375  C 3.23177083333333 16.228515625  3.29012784090909 16.333984375  3.35049715909091 16.400390625  C 3.41086647727273 16.466796875  3.453125 16.5  3.47727272727273 16.5  L 13.5227272727273 16.5  C 13.546875 16.5  13.5891335227273 16.466796875  13.6495028409091 16.400390625  C 13.7098721590909 16.333984375  13.7682291666667 16.228515625  13.8245738636364 16.083984375  Z M 6.38707386363636 1.62890625  L 5.79545454545454 3  L 11.2045454545455 3  L 10.625 1.62890625  C 10.5686553030303 1.55859375  10.5002367424242 1.515625  10.4197443181818 1.5  L 6.59232954545454 1.5  C 6.51183712121212 1.515625  6.44341856060606 1.55859375  6.38707386363636 1.62890625  Z M 16.8913352272727 3.10546875  C 16.9637784090909 3.17578125  17 3.265625  17 3.375  L 17 4.125  C 17 4.234375  16.9637784090909 4.32421875  16.8913352272727 4.39453125  C 16.8188920454545 4.46484375  16.7263257575758 4.5  16.6136363636364 4.5  L 15.4545454545455 4.5  L 15.4545454545455 15.609375  C 15.4545454545455 16.2578125  15.2653882575758 16.818359375  14.8870738636364 17.291015625  C 14.508759469697 17.763671875  14.0539772727273 18  13.5227272727273 18  L 3.47727272727273 18  C 2.94602272727273 18  2.49124053030303 17.771484375  2.11292613636364 17.314453125  C 1.73461174242424 16.857421875  1.54545454545455 16.3046875  1.54545454545455 15.65625  L 1.54545454545455 4.5  L 0.386363636363636 4.5  C 0.273674242424242 4.5  0.181107954545455 4.46484375  0.108664772727273 4.39453125  C 0.0362215909090909 4.32421875  0 4.234375  0 4.125  L 0 3.375  C 0 3.265625  0.0362215909090909 3.17578125  0.108664772727273 3.10546875  C 0.181107954545455 3.03515625  0.273674242424242 3  0.386363636363636 3  L 4.1171875 3  L 4.96235795454546 1.04296875  C 5.08309659090909 0.753906249999998  5.30042613636364 0.507812499999998  5.61434659090909 0.304687500000001  C 5.92826704545455 0.101562499999999  6.24621212121212 0  6.56818181818182 0  L 10.4318181818182 0  C 10.7537878787879 0  11.0717329545455 0.101562499999999  11.3856534090909 0.304687500000001  C 11.6995738636364 0.507812499999998  11.9169034090909 0.753906249999998  12.0376420454545 1.04296875  L 12.8828125 3  L 16.6136363636364 3  C 16.7263257575758 3  16.8188920454545 3.03515625  16.8913352272727 3.10546875  Z " fill-rule="nonzero" fill="#000000" stroke="none" transform="matrix(1 0 0 1 984 1451 )" />
  </g>
</svg>