<?xml version="1.0" encoding="utf-8"?>
<svg version="1.1" xmlns:xlink="http://www.w3.org/1999/xlink" width="100px" height="100px" xmlns="http://www.w3.org/2000/svg">
  <g transform="matrix(1 0 0 1 -901 -1451 )">
    <path d="M 901 1451  L 1001 1451  L 1001 1551  L 901 1551  L 901 1451  " fill-rule="nonzero" fill="#cccccc" stroke="none" />
    <path d="M 908 1458  L 994 1458  L 994 1544  L 908 1544  L 908 1458  " fill-rule="nonzero" fill="#ffffff" stroke="none" />
    <path d="M 960.5 1481  C 956.3 1481  953 1477.7  953 1473.5  C 953 1469.3  956.3 1466  960.5 1466  C 964.7 1466  968 1469.3  968 1473.5  C 968 1477.7  964.7 1481  960.5 1481  " fill-rule="nonzero" fill="#cccccc" stroke="none" />
    <path d="M 911 1542  L 911 1497.45  L 931.25 1477.2  L 959.6 1493.4  L 975.8 1489.35  L 992 1493.4  L 992 1542  L 911 1542  " fill-rule="nonzero" fill="#169bd5" stroke="none" />
  </g>
</svg>