<?xml version="1.0" encoding="utf-8"?>
<svg version="1.1" xmlns:xlink="http://www.w3.org/1999/xlink" width="38px" height="38px" xmlns="http://www.w3.org/2000/svg">
  <g transform="matrix(1 0 0 1 -1298 -1723 )">
    <path d="M 1298 1723  L 1336 1723  L 1336 1761  L 1298 1761  L 1298 1723  " fill-rule="nonzero" fill="#cccccc" stroke="none" />
    <path d="M 1301 1726  L 1333 1726  L 1333 1758  L 1301 1758  L 1301 1726  " fill-rule="nonzero" fill="#ffffff" stroke="none" />
    <path d="M 1320.61 1734.4  C 1319.014 1734.4  1317.76 1733.146  1317.76 1731.55  C 1317.76 1729.954  1319.014 1728.7  1320.61 1728.7  C 1322.206 1728.7  1323.46 1729.954  1323.46 1731.55  C 1323.46 1733.146  1322.206 1734.4  1320.61 1734.4  " fill-rule="nonzero" fill="#cccccc" stroke="none" />
    <path d="M 1302 1757  L 1302 1740.5  L 1309.5 1733  L 1320 1739  L 1326 1737.5  L 1332 1739  L 1332 1757  L 1302 1757  " fill-rule="nonzero" fill="#169bd5" stroke="none" />
  </g>
</svg>