<?xml version="1.0" encoding="utf-8"?>
<svg version="1.1" xmlns:xlink="http://www.w3.org/1999/xlink" width="21px" height="20px" preserveAspectRatio="xMinYMid meet" viewBox="416 1058  21 18" xmlns="http://www.w3.org/2000/svg">
  <path d="M 429 1067  L 447 1067  L 447 622  L 466 622  " stroke-width="2" stroke-dasharray="18,8" stroke="#00ffff" fill="none" />
  <path d="M 426.5 1063.5  A 3.5 3.5 0 0 0 423 1067 A 3.5 3.5 0 0 0 426.5 1070.5 A 3.5 3.5 0 0 0 430 1067 A 3.5 3.5 0 0 0 426.5 1063.5 Z M 426.5 1065.5  A 1.5 1.5 0 0 1 428 1067 A 1.5 1.5 0 0 1 426.5 1068.5 A 1.5 1.5 0 0 1 425 1067 A 1.5 1.5 0 0 1 426.5 1065.5 Z M 465 629.6  L 472 622  L 465 614.4  L 465 629.6  Z M 467 624.8  L 467 619.2  L 469 622  L 467 624.8  Z " fill-rule="nonzero" fill="#00ffff" stroke="none" />
</svg>