<?xml version="1.0" encoding="utf-8"?>
<svg version="1.1" xmlns:xlink="http://www.w3.org/1999/xlink" width="12px" height="12px" viewBox="611 1850  12 12" xmlns="http://www.w3.org/2000/svg">
  <path d="M 617 1850  C 620.36 1850  623 1852.64  623 1856  C 623 1859.36  620.36 1862  617 1862  C 613.64 1862  611 1859.36  611 1856  C 611 1852.64  613.64 1850  617 1850  Z " fill-rule="nonzero" fill="#ffffff" stroke="none" />
  <path d="M 617 1850.5  C 620.08 1850.5  622.5 1852.92  622.5 1856  C 622.5 1859.08  620.08 1861.5  617 1861.5  C 613.92 1861.5  611.5 1859.08  611.5 1856  C 611.5 1852.92  613.92 1850.5  617 1850.5  Z " stroke-width="1" stroke="#797979" fill="none" />
  <path d="M 617 1859  C 615.32 1859  614 1857.68  614 1856  C 614 1854.32  615.32 1853  617 1853  C 618.68 1853  620 1854.32  620 1856  C 620 1857.68  618.68 1859  617 1859  " fill-rule="nonzero" fill="#797979" stroke="none" />
</svg>