<?xml version="1.0" encoding="utf-8"?>
<svg version="1.1" xmlns:xlink="http://www.w3.org/1999/xlink" width="12px" height="12px" viewBox="498 1816  12 12" xmlns="http://www.w3.org/2000/svg">
  <path d="M 504 1816  C 507.36 1816  510 1818.64  510 1822  C 510 1825.36  507.36 1828  504 1828  C 500.64 1828  498 1825.36  498 1822  C 498 1818.64  500.64 1816  504 1816  Z " fill-rule="nonzero" fill="#f0f0f0" stroke="none" />
  <path d="M 504 1816.5  C 507.08 1816.5  509.5 1818.92  509.5 1822  C 509.5 1825.08  507.08 1827.5  504 1827.5  C 500.92 1827.5  498.5 1825.08  498.5 1822  C 498.5 1818.92  500.92 1816.5  504 1816.5  Z " stroke-width="1" stroke="#797979" fill="none" />
  <path d="M 504 1825  C 502.32 1825  501 1823.68  501 1822  C 501 1820.32  502.32 1819  504 1819  C 505.68 1819  507 1820.32  507 1822  C 507 1823.68  505.68 1825  504 1825  " fill-rule="nonzero" fill="#797979" stroke="none" />
</svg>