<?xml version="1.0" encoding="utf-8"?>
<svg version="1.1" xmlns:xlink="http://www.w3.org/1999/xlink" width="12px" height="12px" viewBox="611 1816  12 12" xmlns="http://www.w3.org/2000/svg">
  <path d="M 617 1816  C 620.36 1816  623 1818.64  623 1822  C 623 1825.36  620.36 1828  617 1828  C 613.64 1828  611 1825.36  611 1822  C 611 1818.64  613.64 1816  617 1816  Z " fill-rule="nonzero" fill="#f0f0f0" stroke="none" />
  <path d="M 617 1816.5  C 620.08 1816.5  622.5 1818.92  622.5 1822  C 622.5 1825.08  620.08 1827.5  617 1827.5  C 613.92 1827.5  611.5 1825.08  611.5 1822  C 611.5 1818.92  613.92 1816.5  617 1816.5  Z " stroke-width="1" stroke="#797979" fill="none" />
  <path d="M 617 1825  C 615.32 1825  614 1823.68  614 1822  C 614 1820.32  615.32 1819  617 1819  C 618.68 1819  620 1820.32  620 1822  C 620 1823.68  618.68 1825  617 1825  " fill-rule="nonzero" fill="#797979" stroke="none" />
</svg>