<?xml version="1.0" encoding="utf-8"?>
<svg version="1.1" xmlns:xlink="http://www.w3.org/1999/xlink" width="12px" height="12px" viewBox="498 1850  12 12" xmlns="http://www.w3.org/2000/svg">
  <path d="M 504 1850  C 507.36 1850  510 1852.64  510 1856  C 510 1859.36  507.36 1862  504 1862  C 500.64 1862  498 1859.36  498 1856  C 498 1852.64  500.64 1850  504 1850  Z " fill-rule="nonzero" fill="#f0f0f0" stroke="none" />
  <path d="M 504 1850.5  C 507.08 1850.5  509.5 1852.92  509.5 1856  C 509.5 1859.08  507.08 1861.5  504 1861.5  C 500.92 1861.5  498.5 1859.08  498.5 1856  C 498.5 1852.92  500.92 1850.5  504 1850.5  Z " stroke-width="1" stroke="#797979" fill="none" />
  <path d="M 504 1859  C 502.32 1859  501 1857.68  501 1856  C 501 1854.32  502.32 1853  504 1853  C 505.68 1853  507 1854.32  507 1856  C 507 1857.68  505.68 1859  504 1859  " fill-rule="nonzero" fill="#797979" stroke="none" />
</svg>