<?xml version="1.0" encoding="utf-8"?>
<svg version="1.1" xmlns:xlink="http://www.w3.org/1999/xlink" width="28px" height="27px" xmlns="http://www.w3.org/2000/svg">
  <defs>
    <mask fill="white" id="clip21">
      <path d="M 94.5 101  C 87.0075 101  81 94.9925  81 87.5  L 81 87.5  C 81 80.0075  87.0075 74  94.5 74  L 95.5 74  C 102.9925 74  109 80.0075  109 87.5  L 109 87.5  C 109 94.9925  102.9925 101  95.5 101  " fill-rule="evenodd" />
    </mask>
  </defs>
  <g transform="matrix(1 0 0 1 -81 -74 )">
    <path d="M 81 74  L 109 74  L 109 101  L 81 101  L 81 74  " fill-rule="nonzero" fill="#cccccc" stroke="none" mask="url(#clip21)" />
    <path d="M 83 76  L 107 76  L 107 99  L 83 99  L 83 76  " fill-rule="nonzero" fill="#ffffff" stroke="none" mask="url(#clip21)" />
    <path d="M 97.585 82.1  C 96.451 82.1  95.56 81.209  95.56 80.075  C 95.56 78.941  96.451 78.05  97.585 78.05  C 98.719 78.05  99.61 78.941  99.61 80.075  C 99.61 81.209  98.719 82.1  97.585 82.1  " fill-rule="nonzero" fill="#cccccc" stroke="none" mask="url(#clip21)" />
    <path d="M 84 99  L 84 86.9  L 89.75 81.4  L 97.8 86.2714285714286  L 102.4 84.7  L 107 86.2714285714286  L 107 99  L 84 99  " fill-rule="nonzero" fill="#169bd5" stroke="none" mask="url(#clip21)" />
  </g>
</svg>