<?xml version="1.0" encoding="utf-8"?>
<svg version="1.1" xmlns:xlink="http://www.w3.org/1999/xlink" width="12px" height="12px" viewBox="2446 3690  12 12" xmlns="http://www.w3.org/2000/svg">
  <path d="M 2452 3690  C 2455.36 3690  2458 3692.64  2458 3696  C 2458 3699.36  2455.36 3702  2452 3702  C 2448.64 3702  2446 3699.36  2446 3696  C 2446 3692.64  2448.64 3690  2452 3690  Z " fill-rule="nonzero" fill="#ffffff" stroke="none" />
  <path d="M 2452 3690.5  C 2455.08 3690.5  2457.5 3692.92  2457.5 3696  C 2457.5 3699.08  2455.08 3701.5  2452 3701.5  C 2448.92 3701.5  2446.5 3699.08  2446.5 3696  C 2446.5 3692.92  2448.92 3690.5  2452 3690.5  Z " stroke-width="1" stroke="#797979" fill="none" />
  <path d="M 2452 3699  C 2450.32 3699  2449 3697.68  2449 3696  C 2449 3694.32  2450.32 3693  2452 3693  C 2453.68 3693  2455 3694.32  2455 3696  C 2455 3697.68  2453.68 3699  2452 3699  " fill-rule="nonzero" fill="#797979" stroke="none" />
</svg>