<?xml version="1.0" encoding="utf-8"?>
<svg version="1.1" xmlns:xlink="http://www.w3.org/1999/xlink" width="12px" height="12px" viewBox="2557 3690  12 12" xmlns="http://www.w3.org/2000/svg">
  <path d="M 2563 3690  C 2566.36 3690  2569 3692.64  2569 3696  C 2569 3699.36  2566.36 3702  2563 3702  C 2559.64 3702  2557 3699.36  2557 3696  C 2557 3692.64  2559.64 3690  2563 3690  Z " fill-rule="nonzero" fill="#f0f0f0" stroke="none" />
  <path d="M 2563 3690.5  C 2566.08 3690.5  2568.5 3692.92  2568.5 3696  C 2568.5 3699.08  2566.08 3701.5  2563 3701.5  C 2559.92 3701.5  2557.5 3699.08  2557.5 3696  C 2557.5 3692.92  2559.92 3690.5  2563 3690.5  Z " stroke-width="1" stroke="#797979" fill="none" />
  <path d="M 2563 3699  C 2561.32 3699  2560 3697.68  2560 3696  C 2560 3694.32  2561.32 3693  2563 3693  C 2564.68 3693  2566 3694.32  2566 3696  C 2566 3697.68  2564.68 3699  2563 3699  " fill-rule="nonzero" fill="#797979" stroke="none" />
</svg>