<?xml version="1.0" encoding="utf-8"?>
<svg version="1.1" xmlns:xlink="http://www.w3.org/1999/xlink" width="12px" height="12px" viewBox="2672 3690  12 12" xmlns="http://www.w3.org/2000/svg">
  <path d="M 2678 3690  C 2681.36 3690  2684 3692.64  2684 3696  C 2684 3699.36  2681.36 3702  2678 3702  C 2674.64 3702  2672 3699.36  2672 3696  C 2672 3692.64  2674.64 3690  2678 3690  Z " fill-rule="nonzero" fill="#ffffff" stroke="none" />
  <path d="M 2678 3690.5  C 2681.08 3690.5  2683.5 3692.92  2683.5 3696  C 2683.5 3699.08  2681.08 3701.5  2678 3701.5  C 2674.92 3701.5  2672.5 3699.08  2672.5 3696  C 2672.5 3692.92  2674.92 3690.5  2678 3690.5  Z " stroke-width="1" stroke="#797979" fill="none" />
  <path d="M 2678 3699  C 2676.32 3699  2675 3697.68  2675 3696  C 2675 3694.32  2676.32 3693  2678 3693  C 2679.68 3693  2681 3694.32  2681 3696  C 2681 3697.68  2679.68 3699  2678 3699  " fill-rule="nonzero" fill="#797979" stroke="none" />
</svg>