<?xml version="1.0" encoding="utf-8"?>
<svg version="1.1" xmlns:xlink="http://www.w3.org/1999/xlink" width="12px" height="12px" viewBox="2446 3731  12 12" xmlns="http://www.w3.org/2000/svg">
  <path d="M 2452 3731  C 2455.36 3731  2458 3733.64  2458 3737  C 2458 3740.36  2455.36 3743  2452 3743  C 2448.64 3743  2446 3740.36  2446 3737  C 2446 3733.64  2448.64 3731  2452 3731  Z " fill-rule="nonzero" fill="#f0f0f0" stroke="none" />
  <path d="M 2452 3731.5  C 2455.08 3731.5  2457.5 3733.92  2457.5 3737  C 2457.5 3740.08  2455.08 3742.5  2452 3742.5  C 2448.92 3742.5  2446.5 3740.08  2446.5 3737  C 2446.5 3733.92  2448.92 3731.5  2452 3731.5  Z " stroke-width="1" stroke="#797979" fill="none" />
  <path d="M 2452 3740  C 2450.32 3740  2449 3738.68  2449 3737  C 2449 3735.32  2450.32 3734  2452 3734  C 2453.68 3734  2455 3735.32  2455 3737  C 2455 3738.68  2453.68 3740  2452 3740  " fill-rule="nonzero" fill="#797979" stroke="none" />
</svg>