<?xml version="1.0" encoding="utf-8"?>
<svg version="1.1" xmlns:xlink="http://www.w3.org/1999/xlink" width="12px" height="12px" viewBox="2557 3731  12 12" xmlns="http://www.w3.org/2000/svg">
  <path d="M 2563 3731  C 2566.36 3731  2569 3733.64  2569 3737  C 2569 3740.36  2566.36 3743  2563 3743  C 2559.64 3743  2557 3740.36  2557 3737  C 2557 3733.64  2559.64 3731  2563 3731  Z " fill-rule="nonzero" fill="#ffffff" stroke="none" />
  <path d="M 2563 3731.5  C 2566.08 3731.5  2568.5 3733.92  2568.5 3737  C 2568.5 3740.08  2566.08 3742.5  2563 3742.5  C 2559.92 3742.5  2557.5 3740.08  2557.5 3737  C 2557.5 3733.92  2559.92 3731.5  2563 3731.5  Z " stroke-width="1" stroke="#797979" fill="none" />
  <path d="M 2563 3740  C 2561.32 3740  2560 3738.68  2560 3737  C 2560 3735.32  2561.32 3734  2563 3734  C 2564.68 3734  2566 3735.32  2566 3737  C 2566 3738.68  2564.68 3740  2563 3740  " fill-rule="nonzero" fill="#797979" stroke="none" />
</svg>