<?xml version="1.0" encoding="utf-8"?>
<svg version="1.1" xmlns:xlink="http://www.w3.org/1999/xlink" width="12px" height="12px" viewBox="4020 3690  12 12" xmlns="http://www.w3.org/2000/svg">
  <path d="M 4026 3690  C 4029.36 3690  4032 3692.64  4032 3696  C 4032 3699.36  4029.36 3702  4026 3702  C 4022.64 3702  4020 3699.36  4020 3696  C 4020 3692.64  4022.64 3690  4026 3690  Z " fill-rule="nonzero" fill="#ffffff" stroke="none" />
  <path d="M 4026 3690.5  C 4029.08 3690.5  4031.5 3692.92  4031.5 3696  C 4031.5 3699.08  4029.08 3701.5  4026 3701.5  C 4022.92 3701.5  4020.5 3699.08  4020.5 3696  C 4020.5 3692.92  4022.92 3690.5  4026 3690.5  Z " stroke-width="1" stroke="#797979" fill="none" />
  <path d="M 4026 3699  C 4024.32 3699  4023 3697.68  4023 3696  C 4023 3694.32  4024.32 3693  4026 3693  C 4027.68 3693  4029 3694.32  4029 3696  C 4029 3697.68  4027.68 3699  4026 3699  " fill-rule="nonzero" fill="#797979" stroke="none" />
</svg>