<?xml version="1.0" encoding="utf-8"?>
<svg version="1.1" xmlns:xlink="http://www.w3.org/1999/xlink" width="12px" height="12px" viewBox="3909 3754  12 12" xmlns="http://www.w3.org/2000/svg">
  <path d="M 3915 3754  C 3918.36 3754  3921 3756.64  3921 3760  C 3921 3763.36  3918.36 3766  3915 3766  C 3911.64 3766  3909 3763.36  3909 3760  C 3909 3756.64  3911.64 3754  3915 3754  Z " fill-rule="nonzero" fill="#f0f0f0" stroke="none" />
  <path d="M 3915 3754.5  C 3918.08 3754.5  3920.5 3756.92  3920.5 3760  C 3920.5 3763.08  3918.08 3765.5  3915 3765.5  C 3911.92 3765.5  3909.5 3763.08  3909.5 3760  C 3909.5 3756.92  3911.92 3754.5  3915 3754.5  Z " stroke-width="1" stroke="#797979" fill="none" />
  <path d="M 3915 3763  C 3913.32 3763  3912 3761.68  3912 3760  C 3912 3758.32  3913.32 3757  3915 3757  C 3916.68 3757  3918 3758.32  3918 3760  C 3918 3761.68  3916.68 3763  3915 3763  " fill-rule="nonzero" fill="#797979" stroke="none" />
</svg>