<?xml version="1.0" encoding="utf-8"?>
<svg version="1.1" xmlns:xlink="http://www.w3.org/1999/xlink" width="12px" height="12px" viewBox="5380 3690  12 12" xmlns="http://www.w3.org/2000/svg">
  <path d="M 5386 3690  C 5389.36 3690  5392 3692.64  5392 3696  C 5392 3699.36  5389.36 3702  5386 3702  C 5382.64 3702  5380 3699.36  5380 3696  C 5380 3692.64  5382.64 3690  5386 3690  Z " fill-rule="nonzero" fill="#ffffff" stroke="none" />
  <path d="M 5386 3690.5  C 5389.08 3690.5  5391.5 3692.92  5391.5 3696  C 5391.5 3699.08  5389.08 3701.5  5386 3701.5  C 5382.92 3701.5  5380.5 3699.08  5380.5 3696  C 5380.5 3692.92  5382.92 3690.5  5386 3690.5  Z " stroke-width="1" stroke="#797979" fill="none" />
  <path d="M 5386 3699  C 5384.32 3699  5383 3697.68  5383 3696  C 5383 3694.32  5384.32 3693  5386 3693  C 5387.68 3693  5389 3694.32  5389 3696  C 5389 3697.68  5387.68 3699  5386 3699  " fill-rule="nonzero" fill="#797979" stroke="none" />
</svg>