<?xml version="1.0" encoding="utf-8"?>
<svg version="1.1" xmlns:xlink="http://www.w3.org/1999/xlink" width="12px" height="12px" viewBox="5606 3690  12 12" xmlns="http://www.w3.org/2000/svg">
  <path d="M 5612 3690  C 5615.36 3690  5618 3692.64  5618 3696  C 5618 3699.36  5615.36 3702  5612 3702  C 5608.64 3702  5606 3699.36  5606 3696  C 5606 3692.64  5608.64 3690  5612 3690  Z " fill-rule="nonzero" fill="#f0f0f0" stroke="none" />
  <path d="M 5612 3690.5  C 5615.08 3690.5  5617.5 3692.92  5617.5 3696  C 5617.5 3699.08  5615.08 3701.5  5612 3701.5  C 5608.92 3701.5  5606.5 3699.08  5606.5 3696  C 5606.5 3692.92  5608.92 3690.5  5612 3690.5  Z " stroke-width="1" stroke="#797979" fill="none" />
  <path d="M 5612 3699  C 5610.32 3699  5609 3697.68  5609 3696  C 5609 3694.32  5610.32 3693  5612 3693  C 5613.68 3693  5615 3694.32  5615 3696  C 5615 3697.68  5613.68 3699  5612 3699  " fill-rule="nonzero" fill="#797979" stroke="none" />
</svg>