<?xml version="1.0" encoding="utf-8"?>
<svg version="1.1" xmlns:xlink="http://www.w3.org/1999/xlink" width="12px" height="12px" viewBox="5380 3935  12 12" xmlns="http://www.w3.org/2000/svg">
  <path d="M 5386 3935  C 5389.36 3935  5392 3937.64  5392 3941  C 5392 3944.36  5389.36 3947  5386 3947  C 5382.64 3947  5380 3944.36  5380 3941  C 5380 3937.64  5382.64 3935  5386 3935  Z " fill-rule="nonzero" fill="#f0f0f0" stroke="none" />
  <path d="M 5386 3935.5  C 5389.08 3935.5  5391.5 3937.92  5391.5 3941  C 5391.5 3944.08  5389.08 3946.5  5386 3946.5  C 5382.92 3946.5  5380.5 3944.08  5380.5 3941  C 5380.5 3937.92  5382.92 3935.5  5386 3935.5  Z " stroke-width="1" stroke="#797979" fill="none" />
  <path d="M 5386 3944  C 5384.32 3944  5383 3942.68  5383 3941  C 5383 3939.32  5384.32 3938  5386 3938  C 5387.68 3938  5389 3939.32  5389 3941  C 5389 3942.68  5387.68 3944  5386 3944  " fill-rule="nonzero" fill="#797979" stroke="none" />
</svg>