<?xml version="1.0" encoding="utf-8"?>
<svg version="1.1" xmlns:xlink="http://www.w3.org/1999/xlink" width="12px" height="12px" viewBox="5491 3935  12 12" xmlns="http://www.w3.org/2000/svg">
  <path d="M 5497 3935  C 5500.36 3935  5503 3937.64  5503 3941  C 5503 3944.36  5500.36 3947  5497 3947  C 5493.64 3947  5491 3944.36  5491 3941  C 5491 3937.64  5493.64 3935  5497 3935  Z " fill-rule="nonzero" fill="#f0f0f0" stroke="none" />
  <path d="M 5497 3935.5  C 5500.08 3935.5  5502.5 3937.92  5502.5 3941  C 5502.5 3944.08  5500.08 3946.5  5497 3946.5  C 5493.92 3946.5  5491.5 3944.08  5491.5 3941  C 5491.5 3937.92  5493.92 3935.5  5497 3935.5  Z " stroke-width="1" stroke="#797979" fill="none" />
  <path d="M 5497 3944  C 5495.32 3944  5494 3942.68  5494 3941  C 5494 3939.32  5495.32 3938  5497 3938  C 5498.68 3938  5500 3939.32  5500 3941  C 5500 3942.68  5498.68 3944  5497 3944  " fill-rule="nonzero" fill="#797979" stroke="none" />
</svg>