<?xml version="1.0" encoding="utf-8"?>
<svg version="1.1" xmlns:xlink="http://www.w3.org/1999/xlink" width="375px" height="215px" xmlns="http://www.w3.org/2000/svg">
  <g transform="matrix(1 0 0 1 -1262 -128 )">
    <path d="M 1262 128  L 1637 128  L 1637 343  L 1262 343  L 1262 128  " fill-rule="nonzero" fill="#cccccc" stroke="none" />
    <path d="M 1277 143  L 1622 143  L 1622 328  L 1277 328  L 1277 143  " fill-rule="nonzero" fill="#ffffff" stroke="none" />
    <path d="M 1473.125 192.5  C 1464.095 192.5  1457 185.405  1457 176.375  C 1457 167.345  1464.095 160.25  1473.125 160.25  C 1482.155 160.25  1489.25 167.345  1489.25 176.375  C 1489.25 185.405  1482.155 192.5  1473.125 192.5  " fill-rule="nonzero" fill="#cccccc" stroke="none" />
    <path d="M 1283 323  L 1283 227.3  L 1366.5 183.8  L 1483.4 263.144  L 1550.2 209.9  L 1617 263.144  L 1617 323  L 1283 323  " fill-rule="nonzero" fill="#169bd5" stroke="none" />
  </g>
</svg>