<?xml version="1.0" encoding="utf-8"?>
<svg version="1.1" xmlns:xlink="http://www.w3.org/1999/xlink" width="57px" height="50px" xmlns="http://www.w3.org/2000/svg">
  <g transform="matrix(1 0 0 1 -2098 -236 )">
    <path d="M 2098 236  L 2155 236  L 2155 286  L 2098 286  L 2098 236  " fill-rule="nonzero" fill="#cccccc" stroke="none" />
    <path d="M 2102 240  L 2151 240  L 2151 282  L 2102 282  L 2102 240  " fill-rule="nonzero" fill="#ffffff" stroke="none" />
    <path d="M 2131.39 251  C 2129.29 251  2127.64 249.35  2127.64 247.25  C 2127.64 245.15  2129.29 243.5  2131.39 243.5  C 2133.49 243.5  2135.14 245.15  2135.14 247.25  C 2135.14 249.35  2133.49 251  2131.39 251  " fill-rule="nonzero" fill="#cccccc" stroke="none" />
    <path d="M 2104 281  L 2104 259.55  L 2115.5 249.8  L 2131.6 260.473684210526  L 2140.8 255.65  L 2150 260.473684210526  L 2150 281  L 2104 281  " fill-rule="nonzero" fill="#169bd5" stroke="none" />
  </g>
</svg>