<?xml version="1.0" encoding="utf-8"?>
<svg version="1.1" xmlns:xlink="http://www.w3.org/1999/xlink" width="16px" height="13px" xmlns="http://www.w3.org/2000/svg">
  <defs>
    <mask fill="white" id="clip19">
      <path d="M 2167.5 253  C 2163.8925 253  2161 250.1075  2161 246.5  L 2161 246.5  C 2161 242.8925  2163.8925 240  2167.5 240  L 2170.5 240  C 2174.1075 240  2177 242.8925  2177 246.5  L 2177 246.5  C 2177 250.1075  2174.1075 253  2170.5 253  " fill-rule="evenodd" />
    </mask>
  </defs>
  <g transform="matrix(1 0 0 1 -2161 -240 )">
    <path d="M 2161 240  L 2177 240  L 2177 253  L 2161 253  L 2161 240  " fill-rule="nonzero" fill="#cccccc" stroke="none" mask="url(#clip19)" />
    <path d="M 2162 241  L 2176 241  L 2176 252  L 2162 252  L 2162 241  " fill-rule="nonzero" fill="#ffffff" stroke="none" mask="url(#clip19)" />
    <path d="M 2170.295 243.9  C 2169.749 243.9  2169.32 243.471  2169.32 242.925  C 2169.32 242.379  2169.749 241.95  2170.295 241.95  C 2170.841 241.95  2171.27 242.379  2171.27 242.925  C 2171.27 243.471  2170.841 243.9  2170.295 243.9  " fill-rule="nonzero" fill="#cccccc" stroke="none" mask="url(#clip19)" />
    <path d="M 2163 252  L 2163 246.5  L 2166.25 244  L 2170.8 247.125  L 2173.4 245.5  L 2176 247.125  L 2176 252  L 2163 252  " fill-rule="nonzero" fill="#169bd5" stroke="none" mask="url(#clip19)" />
  </g>
</svg>