<?xml version="1.0" encoding="utf-8"?>
<svg version="1.1" xmlns:xlink="http://www.w3.org/1999/xlink" width="19px" height="18px" xmlns="http://www.w3.org/2000/svg">
  <g transform="matrix(1 0 0 1 -2142 -227 )">
    <path d="M 2151.5 227  C 2156.82 227  2161 230.96  2161 236  C 2161 241.04  2156.82 245  2151.5 245  C 2146.18 245  2142 241.04  2142 236  C 2142 230.96  2146.18 227  2151.5 227  Z " fill-rule="nonzero" fill="#ffffff" stroke="none" />
    <path d="M 2151.5 227.5  C 2156.54 227.5  2160.5 231.24  2160.5 236  C 2160.5 240.76  2156.54 244.5  2151.5 244.5  C 2146.46 244.5  2142.5 240.76  2142.5 236  C 2142.5 231.24  2146.46 227.5  2151.5 227.5  Z " stroke-width="1" stroke="#797979" fill="none" />
  </g>
</svg>