<?xml version="1.0" encoding="utf-8"?>
<svg version="1.1" xmlns:xlink="http://www.w3.org/1999/xlink" width="27px" height="10px" preserveAspectRatio="xMinYMid meet" viewBox="799 323  27 8" xmlns="http://www.w3.org/2000/svg">
  <path d="M 805 327  L 821 327  L 821 381  L 838 381  " stroke-width="2" stroke-dasharray="6,2" stroke="#70b603" fill="none" />
  <path d="M 802.5 323.5  A 3.5 3.5 0 0 0 799 327 A 3.5 3.5 0 0 0 802.5 330.5 A 3.5 3.5 0 0 0 806 327 A 3.5 3.5 0 0 0 802.5 323.5 Z M 802.5 325.5  A 1.5 1.5 0 0 1 804 327 A 1.5 1.5 0 0 1 802.5 328.5 A 1.5 1.5 0 0 1 801 327 A 1.5 1.5 0 0 1 802.5 325.5 Z M 837 388.6  L 844 381  L 837 373.4  L 837 388.6  Z M 839 383.8  L 839 378.2  L 841 381  L 839 383.8  Z " fill-rule="nonzero" fill="#70b603" stroke="none" />
</svg>