<?xml version="1.0" encoding="utf-8"?>
<svg version="1.1" xmlns:xlink="http://www.w3.org/1999/xlink" width="10px" height="8px" xmlns="http://www.w3.org/2000/svg">
  <g transform="matrix(1 0 0 1 -193 -211 )">
    <path d="M 198 211  C 200.8 211  203 212.76  203 215  C 203 217.24  200.8 219  198 219  C 195.2 219  193 217.24  193 215  C 193 212.76  195.2 211  198 211  Z " fill-rule="nonzero" fill="#ffffff" stroke="none" />
    <path d="M 198 211.5  C 200.52 211.5  202.5 213.04  202.5 215  C 202.5 216.96  200.52 218.5  198 218.5  C 195.48 218.5  193.5 216.96  193.5 215  C 193.5 213.04  195.48 211.5  198 211.5  Z " stroke-width="1" stroke="#797979" fill="none" />
  </g>
</svg>