<?xml version="1.0" encoding="utf-8"?>
<svg version="1.1" xmlns:xlink="http://www.w3.org/1999/xlink" width="14px" height="20px" xmlns="http://www.w3.org/2000/svg">
  <g transform="matrix(1 0 0 1 -1203 -229 )">
    <path d="M 13.7594501718213 1.20240480961924  C 13.9198167239404 1.33600534402137  14 1.48964595858383  14 1.66332665330661  C 14 1.83700734802939  13.9198167239404 1.99064796259185  13.7594501718213 2.12424849699399  L 4.30584192439863 10  L 13.7594501718213 17.875751503006  C 13.9198167239404 18.0093520374081  14 18.1629926519706  14 18.3366733466934  C 14 18.5103540414162  13.9198167239404 18.6639946559786  13.7594501718213 18.7975951903808  L 12.5567010309278 19.7995991983968  C 12.3963344788087 19.9331997327989  12.2119129438717 20  12.0034364261168 20  C 11.794959908362 20  11.610538373425 19.9331997327989  11.4501718213058 19.7995991983968  L 0.240549828178694 10.4609218436874  C 0.0801832760595648 10.3273213092852  0 10.1736806947228  0 10  C 0 9.82631930527722  0.0801832760595648 9.67267869071476  0.240549828178694 9.53907815631263  L 11.4501718213058 0.200400801603207  C 11.610538373425 0.0668002672010681  11.794959908362 0  12.0034364261168 0  C 12.2119129438717 0  12.3963344788087 0.0668002672010681  12.5567010309278 0.200400801603207  L 13.7594501718213 1.20240480961924  Z " fill-rule="nonzero" fill="#000000" stroke="none" transform="matrix(1 0 0 1 1203 229 )" />
  </g>
</svg>