<?xml version="1.0" encoding="utf-8"?>
<svg version="1.1" xmlns:xlink="http://www.w3.org/1999/xlink" width="12px" height="12px" viewBox="1713 51  12 12" xmlns="http://www.w3.org/2000/svg">
  <path d="M 1719 51  C 1722.36 51  1725 53.64  1725 57  C 1725 60.36  1722.36 63  1719 63  C 1715.64 63  1713 60.36  1713 57  C 1713 53.64  1715.64 51  1719 51  Z " fill-rule="nonzero" fill="#ffffff" stroke="none" />
  <path d="M 1719 51.5  C 1722.08 51.5  1724.5 53.92  1724.5 57  C 1724.5 60.08  1722.08 62.5  1719 62.5  C 1715.92 62.5  1713.5 60.08  1713.5 57  C 1713.5 53.92  1715.92 51.5  1719 51.5  Z " stroke-width="1" stroke="#797979" fill="none" />
  <path d="M 1719 60  C 1717.32 60  1716 58.68  1716 57  C 1716 55.32  1717.32 54  1719 54  C 1720.68 54  1722 55.32  1722 57  C 1722 58.68  1720.68 60  1719 60  " fill-rule="nonzero" fill="#797979" stroke="none" />
</svg>