<?xml version="1.0" encoding="utf-8"?>
<svg version="1.1" xmlns:xlink="http://www.w3.org/1999/xlink" width="10px" height="267px" preserveAspectRatio="xMidYMin meet" viewBox="451 681  8 267" xmlns="http://www.w3.org/2000/svg">
  <path d="M 455 687  L 455 943  L 356 943  " stroke-width="2" stroke-dasharray="6,2" stroke="#0000bf" fill="none" />
  <path d="M 455 681  A 3.5 3.5 0 0 0 451.5 684.5 A 3.5 3.5 0 0 0 455 688 A 3.5 3.5 0 0 0 458.5 684.5 A 3.5 3.5 0 0 0 455 681 Z M 455 683  A 1.5 1.5 0 0 1 456.5 684.5 A 1.5 1.5 0 0 1 455 686 A 1.5 1.5 0 0 1 453.5 684.5 A 1.5 1.5 0 0 1 455 683 Z M 357 935.4  L 350 943  L 357 950.6  L 357 935.4  Z M 355 940.2  L 355 945.8  L 353 943  L 355 940.2  Z " fill-rule="nonzero" fill="#0000bf" stroke="none" />
</svg>