<?xml version="1.0" encoding="utf-8"?>
<svg version="1.1" xmlns:xlink="http://www.w3.org/1999/xlink" width="10px" height="168px" preserveAspectRatio="xMidYMin meet" viewBox="2736 498  8 168" xmlns="http://www.w3.org/2000/svg">
  <path d="M 2019 661  L 2740 661  L 2740 504  " stroke-width="2" stroke-dasharray="6,2" stroke="#02a7f0" fill="none" />
  <path d="M 2016.5 657.5  A 3.5 3.5 0 0 0 2013 661 A 3.5 3.5 0 0 0 2016.5 664.5 A 3.5 3.5 0 0 0 2020 661 A 3.5 3.5 0 0 0 2016.5 657.5 Z M 2016.5 659.5  A 1.5 1.5 0 0 1 2018 661 A 1.5 1.5 0 0 1 2016.5 662.5 A 1.5 1.5 0 0 1 2015 661 A 1.5 1.5 0 0 1 2016.5 659.5 Z M 2747.6 505  L 2740 498  L 2732.4 505  L 2747.6 505  Z M 2742.8 503  L 2737.2 503  L 2740 501  L 2742.8 503  Z " fill-rule="nonzero" fill="#02a7f0" stroke="none" />
</svg>