<?xml version="1.0" encoding="utf-8"?>
<svg version="1.1" xmlns:xlink="http://www.w3.org/1999/xlink" width="9px" height="8px" xmlns="http://www.w3.org/2000/svg">
  <g transform="matrix(1 0 0 1 -1855 -409 )">
    <path d="M 8.90981963927856 0.824742268041237  C 8.96993987975952 0.916380297823594  9 1.02176403207331  9 1.14089347079038  C 9 1.26002290950744  8.96993987975952 1.36540664375716  8.90981963927856 1.45704467353952  L 4.70741482965932 7.86254295532646  C 4.64729458917836 7.95418098510882  4.57815631262525 8  4.5 8  C 4.42184368737475 8  4.35270541082164 7.95418098510882  4.29258517034068 7.86254295532646  L 0.0901803607214429 1.45704467353952  C 0.030060120240481 1.36540664375716  0 1.26002290950744  0 1.14089347079038  C 0 1.02176403207331  0.030060120240481 0.916380297823594  0.0901803607214429 0.824742268041237  L 0.541082164328657 0.13745704467354  C 0.601202404809619 0.0458190148911788  0.670340681362726 0  0.748496993987976 0  C 0.826653306613227 0  0.895791583166333 0.0458190148911788  0.955911823647295 0.13745704467354  L 4.5 5.53951890034364  L 8.04408817635271 0.13745704467354  C 8.10420841683367 0.0458190148911788  8.17334669338677 0  8.25150300601202 0  C 8.32965931863728 0  8.39879759519038 0.0458190148911788  8.45891783567134 0.13745704467354  L 8.90981963927856 0.824742268041237  Z " fill-rule="nonzero" fill="#000000" stroke="none" transform="matrix(1 0 0 1 1855 409 )" />
  </g>
</svg>