<?xml version="1.0" encoding="utf-8"?>
<svg version="1.1" xmlns:xlink="http://www.w3.org/1999/xlink" width="10px" height="15px" preserveAspectRatio="xMidYMin meet" viewBox="839 681  8 15" xmlns="http://www.w3.org/2000/svg">
  <path d="M 843 687  L 843 691  L 458 691  A 3 3 0 0 0 455 688 A 3 3 0 0 0 452 691 L 16 691  L 16 1782  L 344 1782  " stroke-width="2" stroke-dasharray="6,2" stroke="#02a7f0" fill="none" />
  <path d="M 843 681  A 3.5 3.5 0 0 0 839.5 684.5 A 3.5 3.5 0 0 0 843 688 A 3.5 3.5 0 0 0 846.5 684.5 A 3.5 3.5 0 0 0 843 681 Z M 843 683  A 1.5 1.5 0 0 1 844.5 684.5 A 1.5 1.5 0 0 1 843 686 A 1.5 1.5 0 0 1 841.5 684.5 A 1.5 1.5 0 0 1 843 683 Z M 343 1789.6  L 350 1782  L 343 1774.4  L 343 1789.6  Z M 345 1784.8  L 345 1779.2  L 347 1782  L 345 1784.8  Z " fill-rule="nonzero" fill="#02a7f0" stroke="none" />
</svg>