<?xml version="1.0" encoding="utf-8"?>
<svg version="1.1" xmlns:xlink="http://www.w3.org/1999/xlink" width="23px" height="15px" xmlns="http://www.w3.org/2000/svg">
  <g transform="matrix(1 0 0 1 -2063 -1452 )">
    <path d="M 21.2352120535714 13.8490513392857  C 21.3164992559524 13.7960379464286  21.3571428571429 13.7332589285714  21.3571428571429 13.6607142857143  L 21.3571428571429 4.55357142857143  C 21.3571428571429 4.48102678571428  21.3164992559524 4.41824776785714  21.2352120535714 4.365234375  C 21.1539248511905 4.31222098214286  21.0576636904762 4.28571428571429  20.9464285714286 4.28571428571429  L 6.98214285714286 4.28571428571429  C 6.87090773809524 4.28571428571429  6.77464657738095 4.31222098214286  6.693359375 4.365234375  C 6.61207217261905 4.41824776785714  6.57142857142857 4.48102678571428  6.57142857142857 4.55357142857143  L 6.57142857142857 13.6607142857143  C 6.57142857142857 13.7332589285714  6.61207217261905 13.7960379464286  6.693359375 13.8490513392857  C 6.77464657738095 13.9020647321429  6.87090773809524 13.9285714285714  6.98214285714286 14  L 20.9464285714286 14  C 21.0576636904762 13.9285714285714  21.1539248511905 13.9020647321429  21.2352120535714 13.8490513392857  Z M 22.3967633928571 3.60770089285714  C 22.7989211309524 3.86997767857143  23 4.18526785714286  23 4.55357142857143  L 23 13.6607142857143  C 23 14.0290178571429  22.7989211309524 14.3443080357143  22.3967633928571 14.6065848214286  C 21.9946056547619 14.8688616071429  21.5111607142857 15  20.9464285714286 15  L 6.98214285714286 15  C 6.41741071428571 15  5.93396577380952 14.8688616071429  5.53180803571429 14.6065848214286  C 5.12965029761905 14.3443080357143  4.92857142857143 14.0290178571429  4.92857142857143 13.6607142857143  L 4.92857142857143 4.55357142857143  C 4.92857142857143 4.18526785714286  5.12965029761905 3.86997767857143  5.53180803571429 3.60770089285714  C 5.93396577380952 3.34542410714286  6.41741071428571 3.21428571428571  6.98214285714286 3.21428571428571  L 20.9464285714286 3.21428571428571  C 21.5111607142857 3.21428571428571  21.9946056547619 3.34542410714286  22.3967633928571 3.60770089285714  Z M 17.4681919642857 0.393415178571429  C 17.870349702381 0.655691964285713  18.0714285714286 0.970982142857144  18.0714285714286 1.33928571428571  L 18.0714285714286 2.67857142857143  L 16.4285714285714 2.67857142857143  L 16.4285714285714 1.33928571428571  C 16.4285714285714 1.26674107142857  16.387927827381 1.20396205357143  16.306640625 1.15094866071429  C 16.225353422619 1.09793526785714  16.1290922619048 1.07142857142857  16.0178571428571 1  L 2.05357142857143 1  C 1.94233630952381 1.07142857142857  1.84607514880952 1.09793526785714  1.76478794642857 1.15094866071429  C 1.68350074404762 1.20396205357143  1.64285714285714 1.26674107142857  1.64285714285714 1.33928571428571  L 1.64285714285714 10.4464285714286  C 1.64285714285714 10.5189732142857  1.68350074404762 10.5817522321429  1.76478794642857 10.634765625  C 1.84607514880952 10.6877790178571  1.94233630952381 10.7142857142857  2.05357142857143 10.7142857142857  L 4.10714285714286 10.7142857142857  L 4.10714285714286 11.7857142857143  L 2.05357142857143 11.7857142857143  C 1.48883928571429 11.7857142857143  1.0053943452381 11.6545758928571  0.603236607142857 11.3922991071429  C 0.201078869047619 11.1300223214286  0 10.8147321428571  0 10.4464285714286  L 0 1.33928571428571  C 0 0.970982142857144  0.201078869047619 0.655691964285713  0.603236607142857 0.393415178571429  C 1.0053943452381 0.131138392857143  1.48883928571429 0  2.05357142857143 0  L 16.0178571428571 0  C 16.5825892857143 0  17.0660342261905 0.131138392857143  17.4681919642857 0.393415178571429  Z " fill-rule="nonzero" fill="#000000" stroke="none" transform="matrix(1 0 0 1 2063 1452 )" />
  </g>
</svg>