<?xml version="1.0" encoding="utf-8"?>
<svg version="1.1" xmlns:xlink="http://www.w3.org/1999/xlink" width="217px" height="202px" xmlns="http://www.w3.org/2000/svg">
  <g transform="matrix(1 0 0 1 -1855 -1233 )">
    <path d="M 40 147  L 60 147  L 60 165  L 40 165  L 40 147  Z M 40 37  L 60 37  L 60 55  L 40 55  L 40 37  Z M 157 37  L 177 37  L 177 55  L 157 55  L 157 37  Z M 20 128  L 20 183  L 79 183  L 79 128  L 20 128  Z M 20 19  L 20 74  L 79 74  L 79 19  L 20 19  Z M 138 19  L 138 74  L 197 74  L 197 19  L 138 19  Z M 0 110  L 99 110  L 99 202  L 0 202  L 0 110  Z M 157 183  L 177 183  L 177 202  L 157 202  L 157 183  Z M 197 183  L 217 183  L 217 202  L 197 202  L 197 183  Z M 197 110  L 217 110  L 217 165  L 157 165  L 157 147  L 138 147  L 138 202  L 118 202  L 118 110  L 177 110  L 177 128  L 197 128  L 197 110  Z M 0 0  L 99 0  L 99 92  L 0 92  L 0 0  Z M 118 0  L 217 0  L 217 92  L 118 92  L 118 0  Z " fill-rule="nonzero" fill="#000000" stroke="none" transform="matrix(1 0 0 1 1855 1233 )" />
  </g>
</svg>