<?xml version="1.0" encoding="utf-8"?>
<svg version="1.1" xmlns:xlink="http://www.w3.org/1999/xlink" width="32px" height="30px" xmlns="http://www.w3.org/2000/svg">
  <defs>
    <mask fill="white" id="clip270">
      <path d="M 168 199  C 159.675 199  153 192.325  153 184  L 153 184  C 153 175.675  159.675 169  168 169  L 170 169  C 178.325 169  185 175.675  185 184  L 185 184  C 185 192.325  178.325 199  170 199  " fill-rule="evenodd" />
    </mask>
  </defs>
  <g transform="matrix(1 0 0 1 -153 -169 )">
    <path d="M 153 169  L 185 169  L 185 199  L 153 199  L 153 169  " fill-rule="nonzero" fill="#cccccc" stroke="none" mask="url(#clip270)" />
    <path d="M 155 171  L 183 171  L 183 197  L 155 197  L 155 171  " fill-rule="nonzero" fill="#ffffff" stroke="none" mask="url(#clip270)" />
    <path d="M 171.89 178  C 170.63 178  169.64 177.01  169.64 175.75  C 169.64 174.49  170.63 173.5  171.89 173.5  C 173.15 173.5  174.14 174.49  174.14 175.75  C 174.14 177.01  173.15 178  171.89 178  " fill-rule="nonzero" fill="#cccccc" stroke="none" mask="url(#clip270)" />
    <path d="M 156 196  L 156 182.8  L 162.5 176.8  L 171.6 182.5  L 176.8 180.4  L 182 182.5  L 182 196  L 156 196  " fill-rule="nonzero" fill="#169bd5" stroke="none" mask="url(#clip270)" />
  </g>
</svg>