<?xml version="1.0" encoding="utf-8"?>
<svg version="1.1" xmlns:xlink="http://www.w3.org/1999/xlink" width="10px" height="91px" preserveAspectRatio="xMidYMin meet" viewBox="1282 1381  8 91" xmlns="http://www.w3.org/2000/svg">
  <path d="M 773 1386  L 1286 1386  L 1286 1467  L 1290 1467  " stroke-width="2" stroke-dasharray="18,8" stroke="#70b603" fill="none" />
  <path d="M 770.5 1382.5  A 3.5 3.5 0 0 0 767 1386 A 3.5 3.5 0 0 0 770.5 1389.5 A 3.5 3.5 0 0 0 774 1386 A 3.5 3.5 0 0 0 770.5 1382.5 Z M 770.5 1384.5  A 1.5 1.5 0 0 1 772 1386 A 1.5 1.5 0 0 1 770.5 1387.5 A 1.5 1.5 0 0 1 769 1386 A 1.5 1.5 0 0 1 770.5 1384.5 Z M 1289 1474.6  L 1296 1467  L 1289 1459.4  L 1289 1474.6  Z M 1291 1469.8  L 1291 1464.2  L 1293 1467  L 1291 1469.8  Z " fill-rule="nonzero" fill="#70b603" stroke="none" />
</svg>