<?xml version="1.0" encoding="utf-8"?>
<svg version="1.1" xmlns:xlink="http://www.w3.org/1999/xlink" width="12px" height="12px" viewBox="1233 723  12 12" xmlns="http://www.w3.org/2000/svg">
  <path d="M 1239 723  C 1242.36 723  1245 725.64  1245 729  C 1245 732.36  1242.36 735  1239 735  C 1235.64 735  1233 732.36  1233 729  C 1233 725.64  1235.64 723  1239 723  Z " fill-rule="nonzero" fill="#ffffff" stroke="none" />
  <path d="M 1239 723.5  C 1242.08 723.5  1244.5 725.92  1244.5 729  C 1244.5 732.08  1242.08 734.5  1239 734.5  C 1235.92 734.5  1233.5 732.08  1233.5 729  C 1233.5 725.92  1235.92 723.5  1239 723.5  Z " stroke-width="1" stroke="#797979" fill="none" />
  <path d="M 1239 732  C 1237.32 732  1236 730.68  1236 729  C 1236 727.32  1237.32 726  1239 726  C 1240.68 726  1242 727.32  1242 729  C 1242 730.68  1240.68 732  1239 732  " fill-rule="nonzero" fill="#797979" stroke="none" />
</svg>