<?xml version="1.0" encoding="utf-8"?>
<svg version="1.1" xmlns:xlink="http://www.w3.org/1999/xlink" width="12px" height="12px" viewBox="545 681  12 12" xmlns="http://www.w3.org/2000/svg">
  <path d="M 551 681  C 554.36 681  557 683.64  557 687  C 557 690.36  554.36 693  551 693  C 547.64 693  545 690.36  545 687  C 545 683.64  547.64 681  551 681  Z " fill-rule="nonzero" fill="#f0f0f0" stroke="none" />
  <path d="M 551 681.5  C 554.08 681.5  556.5 683.92  556.5 687  C 556.5 690.08  554.08 692.5  551 692.5  C 547.92 692.5  545.5 690.08  545.5 687  C 545.5 683.92  547.92 681.5  551 681.5  Z " stroke-width="1" stroke="#797979" fill="none" />
  <path d="M 551 690  C 549.32 690  548 688.68  548 687  C 548 685.32  549.32 684  551 684  C 552.68 684  554 685.32  554 687  C 554 688.68  552.68 690  551 690  " fill-rule="nonzero" fill="#797979" stroke="none" />
</svg>