<?xml version="1.0" encoding="utf-8"?>
<svg version="1.1" xmlns:xlink="http://www.w3.org/1999/xlink" width="76px" height="79px" xmlns="http://www.w3.org/2000/svg">
  <g transform="matrix(1 0 0 1 -545 -583 )">
    <path d="M 545 583  L 621 583  L 621 662  L 545 662  L 545 583  " fill-rule="nonzero" fill="#cccccc" stroke="none" />
    <path d="M 550 588  L 616 588  L 616 657  L 550 657  L 550 588  " fill-rule="nonzero" fill="#ffffff" stroke="none" />
    <path d="M 590.22 606.25  C 587.028 606.25  584.52 603.742  584.52 600.55  C 584.52 597.358  587.028 594.85  590.22 594.85  C 593.412 594.85  595.92 597.358  595.92 600.55  C 595.92 603.742  593.412 606.25  590.22 606.25  " fill-rule="nonzero" fill="#cccccc" stroke="none" />
    <path d="M 552 655  L 552 619.25  L 567.5 603  L 589.2 616  L 601.6 612.75  L 614 616  L 614 655  L 552 655  " fill-rule="nonzero" fill="#169bd5" stroke="none" />
  </g>
</svg>