<?xml version="1.0" encoding="utf-8"?>
<svg version="1.1" xmlns:xlink="http://www.w3.org/1999/xlink" width="12px" height="12px" viewBox="1115 723  12 12" xmlns="http://www.w3.org/2000/svg">
  <path d="M 1121 723  C 1124.36 723  1127 725.64  1127 729  C 1127 732.36  1124.36 735  1121 735  C 1117.64 735  1115 732.36  1115 729  C 1115 725.64  1117.64 723  1121 723  Z " fill-rule="nonzero" fill="#ffffff" stroke="none" />
  <path d="M 1121 723.5  C 1124.08 723.5  1126.5 725.92  1126.5 729  C 1126.5 732.08  1124.08 734.5  1121 734.5  C 1117.92 734.5  1115.5 732.08  1115.5 729  C 1115.5 725.92  1117.92 723.5  1121 723.5  Z " stroke-width="1" stroke="#797979" fill="none" />
  <path d="M 1121 732  C 1119.32 732  1118 730.68  1118 729  C 1118 727.32  1119.32 726  1121 726  C 1122.68 726  1124 727.32  1124 729  C 1124 730.68  1122.68 732  1121 732  " fill-rule="nonzero" fill="#797979" stroke="none" />
</svg>