<?xml version="1.0" encoding="utf-8"?>
<svg version="1.1" xmlns:xlink="http://www.w3.org/1999/xlink" width="12px" height="12px" viewBox="1115 685  12 12" xmlns="http://www.w3.org/2000/svg">
  <path d="M 1121 685  C 1124.36 685  1127 687.64  1127 691  C 1127 694.36  1124.36 697  1121 697  C 1117.64 697  1115 694.36  1115 691  C 1115 687.64  1117.64 685  1121 685  Z " fill-rule="nonzero" fill="#f0f0f0" stroke="none" />
  <path d="M 1121 685.5  C 1124.08 685.5  1126.5 687.92  1126.5 691  C 1126.5 694.08  1124.08 696.5  1121 696.5  C 1117.92 696.5  1115.5 694.08  1115.5 691  C 1115.5 687.92  1117.92 685.5  1121 685.5  Z " stroke-width="1" stroke="#797979" fill="none" />
  <path d="M 1121 694  C 1119.32 694  1118 692.68  1118 691  C 1118 689.32  1119.32 688  1121 688  C 1122.68 688  1124 689.32  1124 691  C 1124 692.68  1122.68 694  1121 694  " fill-rule="nonzero" fill="#797979" stroke="none" />
</svg>