<?xml version="1.0" encoding="utf-8"?>
<svg version="1.1" xmlns:xlink="http://www.w3.org/1999/xlink" width="57px" height="53px" xmlns="http://www.w3.org/2000/svg">
  <g transform="matrix(1 0 0 1 -701 -311 )">
    <path d="M 701 311  L 758 311  L 758 364  L 701 364  L 701 311  " fill-rule="nonzero" fill="#cccccc" stroke="none" />
    <path d="M 705 315  L 754 315  L 754 360  L 705 360  L 705 315  " fill-rule="nonzero" fill="#ffffff" stroke="none" />
    <path d="M 734.615 326.9  C 732.389 326.9  730.64 325.151  730.64 322.925  C 730.64 320.699  732.389 318.95  734.615 318.95  C 736.841 318.95  738.59 320.699  738.59 322.925  C 738.59 325.151  736.841 326.9  734.615 326.9  " fill-rule="nonzero" fill="#cccccc" stroke="none" />
    <path d="M 707 359  L 707 335.9  L 718.5 325.4  L 734.6 335.568421052632  L 743.8 331.7  L 753 335.568421052632  L 753 359  L 707 359  " fill-rule="nonzero" fill="#169bd5" stroke="none" />
  </g>
</svg>