<?xml version="1.0" encoding="utf-8"?>
<svg version="1.1" xmlns:xlink="http://www.w3.org/1999/xlink" width="12px" height="12px" viewBox="1233 685  12 12" xmlns="http://www.w3.org/2000/svg">
  <path d="M 1239 685  C 1242.36 685  1245 687.64  1245 691  C 1245 694.36  1242.36 697  1239 697  C 1235.64 697  1233 694.36  1233 691  C 1233 687.64  1235.64 685  1239 685  Z " fill-rule="nonzero" fill="#f0f0f0" stroke="none" />
  <path d="M 1239 685.5  C 1242.08 685.5  1244.5 687.92  1244.5 691  C 1244.5 694.08  1242.08 696.5  1239 696.5  C 1235.92 696.5  1233.5 694.08  1233.5 691  C 1233.5 687.92  1235.92 685.5  1239 685.5  Z " stroke-width="1" stroke="#797979" fill="none" />
  <path d="M 1239 694  C 1237.32 694  1236 692.68  1236 691  C 1236 689.32  1237.32 688  1239 688  C 1240.68 688  1242 689.32  1242 691  C 1242 692.68  1240.68 694  1239 694  " fill-rule="nonzero" fill="#797979" stroke="none" />
</svg>