<?xml version="1.0" encoding="utf-8"?>
<svg version="1.1" xmlns:xlink="http://www.w3.org/1999/xlink" width="10px" height="8px" xmlns="http://www.w3.org/2000/svg">
  <g transform="matrix(1 0 0 1 -182 -211 )">
    <path d="M 187 211  C 189.8 211  192 212.76  192 215  C 192 217.24  189.8 219  187 219  C 184.2 219  182 217.24  182 215  C 182 212.76  184.2 211  187 211  Z " fill-rule="nonzero" fill="#6300bf" stroke="none" />
    <path d="M 187 211.5  C 189.52 211.5  191.5 213.04  191.5 215  C 191.5 216.96  189.52 218.5  187 218.5  C 184.48 218.5  182.5 216.96  182.5 215  C 182.5 213.04  184.48 211.5  187 211.5  Z " stroke-width="1" stroke="#797979" fill="none" />
  </g>
</svg>