<?xml version="1.0" encoding="utf-8"?>
<svg version="1.1" xmlns:xlink="http://www.w3.org/1999/xlink" width="372px" height="140px" xmlns="http://www.w3.org/2000/svg">
  <g transform="matrix(1 0 0 1 -16 -97 )">
    <path d="M 16 97  L 388 97  L 388 237  L 16 237  L 16 97  " fill-rule="nonzero" fill="#cccccc" stroke="none" />
    <path d="M 26 107  L 378 107  L 378 227  L 26 227  L 26 107  " fill-rule="nonzero" fill="#ffffff" stroke="none" />
    <path d="M 219.94 139  C 214.06 139  209.44 134.38  209.44 128.5  C 209.44 122.62  214.06 118  219.94 118  C 225.82 118  230.44 122.62  230.44 128.5  C 230.44 134.38  225.82 139  219.94 139  " fill-rule="nonzero" fill="#cccccc" stroke="none" />
    <path d="M 30 224  L 30 161.85  L 116.25 133.6  L 237 198.483870967742  L 306 150.55  L 375 198.483870967742  L 375 224  L 30 224  " fill-rule="nonzero" fill="#169bd5" stroke="none" />
  </g>
</svg>