<?xml version="1.0" encoding="utf-8"?>
<svg version="1.1" xmlns:xlink="http://www.w3.org/1999/xlink" width="30px" height="31px" xmlns="http://www.w3.org/2000/svg">
  <g transform="matrix(1 0 0 1 -186 -58 )">
    <path d="M 24.74609375 16.408203125  C 24.98046875 16.166015625  25.09765625 15.86328125  25.09765625 15.5  C 25.09765625 15.13671875  24.98046875 14.833984375  24.74609375 14.591796875  L 22.96875 12.7552083333333  L 15.8984375 5.44921875  C 15.6640625 5.20703125  15.37109375 5.0859375  15.01953125 5.0859375  C 14.66796875 5.0859375  14.375 5.20703125  14.140625 5.44921875  L 12.36328125 7.28580729166667  C 12.12890625 7.52799479166667  12.01171875 7.83072916666667  12.01171875 8.19401041666667  C 12.01171875 8.55729166666667  12.12890625 8.86002604166667  12.36328125 9.10221354166667  L 16.0546875 12.9166666666667  L 6.25 12.9166666666667  C 5.91145833333333 12.9166666666667  5.61848958333333 13.0444878472222  5.37109375 13.3001302083333  C 5.12369791666667 13.5557725694444  5 13.8585069444444  5 14.2083333333333  L 5 16.7916666666667  C 5 17.1414930555556  5.12369791666667 17.4442274305556  5.37109375 17.6998697916667  C 5.61848958333333 17.9555121527778  5.91145833333333 18.0833333333333  6.25 18.0833333333333  L 16.0546875 18.0833333333333  L 12.36328125 21.8977864583333  C 12.1158854166667 22.1534288194444  11.9921875 22.4561631944444  11.9921875 22.8059895833333  C 11.9921875 23.1558159722222  12.1158854166667 23.4585503472222  12.36328125 23.7141927083333  L 14.140625 25.55078125  C 14.375 25.79296875  14.66796875 25.9140625  15.01953125 25.9140625  C 15.37109375 25.9140625  15.6640625 25.79296875  15.8984375 25.55078125  L 22.96875 18.2447916666667  L 24.74609375 16.408203125  Z M 27.98828125 7.7197265625  C 29.3294270833333 10.0945095486111  30 12.6879340277778  30 15.5  C 30 18.3120659722222  29.3294270833333 20.9054904513889  27.98828125 23.2802734375  C 26.6471354166667 25.6550564236111  24.8274739583333 27.5353732638889  22.529296875 28.9212239583333  C 20.2311197916667 30.3070746527778  17.7213541666667 31  15 31  C 12.2786458333333 31  9.76888020833333 30.3070746527778  7.470703125 28.9212239583333  C 5.17252604166667 27.5353732638889  3.35286458333333 25.6550564236111  2.01171875 23.2802734375  C 0.670572916666667 20.9054904513889  0 18.3120659722222  0 15.5  C 0 12.6879340277778  0.670572916666667 10.0945095486111  2.01171875 7.7197265625  C 3.35286458333333 5.34494357638889  5.17252604166667 3.46462673611111  7.470703125 2.07877604166667  C 9.76888020833333 0.69292534722222  12.2786458333333 0  15 0  C 17.7213541666667 0  20.2311197916667 0.69292534722222  22.529296875 2.07877604166667  C 24.8274739583333 3.46462673611111  26.6471354166667 5.34494357638889  27.98828125 7.7197265625  Z " fill-rule="nonzero" fill="#000000" stroke="none" transform="matrix(1 0 0 1 186 58 )" />
  </g>
</svg>