<?xml version="1.0" encoding="utf-8"?>
<svg version="1.1" xmlns:xlink="http://www.w3.org/1999/xlink" width="15px" height="22px" xmlns="http://www.w3.org/2000/svg">
  <g transform="matrix(1 0 0 1 -121 -151 )">
    <path d="M 14.8246753246753 5.0162037037037  C 14.9935064935065 5.15200617283951  15.025974025974 5.30054012345679  14.9220779220779 5.46180555555555  C 14.8051948051948 5.62307098765432  14.6168831168831 5.7037037037037  14.3571428571429 5.7037037037037  L 10 5.7037037037037  L 10 21.5925925925926  C 9.99350649350649 21.7114197530864  9.93506493506493 21.8090277777778  9.81818181818182 21.8854166666667  C 9.7012987012987 21.9618055555556  9.55194805194805 22  9.37012987012987 22  L 5.62987012987013 22  C 5.44805194805195 22  5.2987012987013 21.9618055555556  5.18181818181818 21.8854166666667  C 5.06493506493506 21.8090277777778  5.00649350649351 21.7114197530864  5 21.5925925925926  L 5 5.7037037037037  L 0.642857142857143 5.7037037037037  C 0.37012987012987 5.7037037037037  0.181818181818182 5.62307098765432  0.0779220779220779 5.46180555555555  C -0.025974025974026 5.30054012345679  0.00649350649350648 5.15200617283951  0.175324675324675 5.0162037037037  L 6.99350649350649 0.127314814814816  C 7.12337662337662 0.0424382716049378  7.27272727272727 0  7.44155844155844 0  C 7.62337662337662 0  7.77922077922078 0.0424382716049378  7.90909090909091 0.127314814814816  L 14.8246753246753 5.0162037037037  Z " fill-rule="nonzero" fill="#70b603" stroke="none" transform="matrix(1 0 0 1 121 151 )" />
  </g>
</svg>