<?xml version="1.0" encoding="utf-8"?>
<svg version="1.1" xmlns:xlink="http://www.w3.org/1999/xlink" width="10px" height="10px" xmlns="http://www.w3.org/2000/svg">
  <g transform="matrix(1 0 0 1 -484 -340 )">
    <path d="M 489 340  C 491.8 340  494 342.2  494 345  C 494 347.8  491.8 350  489 350  C 486.2 350  484 347.8  484 345  C 484 342.2  486.2 340  489 340  Z " fill-rule="nonzero" fill="#d9001b" stroke="none" />
    <path d="M 489 340.5  C 491.52 340.5  493.5 342.48  493.5 345  C 493.5 347.52  491.52 349.5  489 349.5  C 486.48 349.5  484.5 347.52  484.5 345  C 484.5 342.48  486.48 340.5  489 340.5  Z " stroke-width="1" stroke="#797979" fill="none" />
  </g>
</svg>