<?xml version="1.0" encoding="utf-8"?>
<svg version="1.1" xmlns:xlink="http://www.w3.org/1999/xlink" width="50px" height="50px" xmlns="http://www.w3.org/2000/svg">
  <defs>
    <mask fill="white" id="clip19">
      <path d="M 628 1899  C 614.125 1899  603 1887.875  603 1874  L 603 1874  C 603 1860.125  614.125 1849  628 1849  L 628 1849  C 641.875 1849  653 1860.125  653 1874  L 653 1874  C 653 1887.875  641.875 1899  628 1899  " fill-rule="evenodd" />
    </mask>
  </defs>
  <g transform="matrix(1 0 0 1 -603 -1849 )">
    <path d="M 603 1849  L 653 1849  L 653 1899  L 603 1899  L 603 1849  " fill-rule="nonzero" fill="#cccccc" stroke="none" mask="url(#clip19)" />
    <path d="M 607 1853  L 649 1853  L 649 1895  L 607 1895  L 607 1853  " fill-rule="nonzero" fill="#ffffff" stroke="none" mask="url(#clip19)" />
    <path d="M 632.75 1864  C 630.65 1864  629 1862.35  629 1860.25  C 629 1858.15  630.65 1856.5  632.75 1856.5  C 634.85 1856.5  636.5 1858.15  636.5 1860.25  C 636.5 1862.35  634.85 1864  632.75 1864  " fill-rule="nonzero" fill="#cccccc" stroke="none" mask="url(#clip19)" />
    <path d="M 609 1894  L 609 1872.55  L 618.75 1862.8  L 632.4 1870.6  L 640.2 1868.65  L 648 1870.6  L 648 1894  L 609 1894  " fill-rule="nonzero" fill="#169bd5" stroke="none" mask="url(#clip19)" />
  </g>
</svg>