<?xml version="1.0" encoding="utf-8"?>
<svg version="1.1" xmlns:xlink="http://www.w3.org/1999/xlink" width="50px" height="50px" xmlns="http://www.w3.org/2000/svg">
  <defs>
    <mask fill="white" id="clip472">
      <path d="M 200 2765  C 186.125 2765  175 2753.875  175 2740  L 175 2740  C 175 2726.125  186.125 2715  200 2715  L 200 2715  C 213.875 2715  225 2726.125  225 2740  L 225 2740  C 225 2753.875  213.875 2765  200 2765  " fill-rule="evenodd" />
    </mask>
  </defs>
  <g transform="matrix(1 0 0 1 -175 -2715 )">
    <path d="M 175 2715  L 225 2715  L 225 2765  L 175 2765  L 175 2715  " fill-rule="nonzero" fill="#cccccc" stroke="none" mask="url(#clip472)" />
    <path d="M 179 2719  L 221 2719  L 221 2761  L 179 2761  L 179 2719  " fill-rule="nonzero" fill="#ffffff" stroke="none" mask="url(#clip472)" />
    <path d="M 204.75 2730  C 202.65 2730  201 2728.35  201 2726.25  C 201 2724.15  202.65 2722.5  204.75 2722.5  C 206.85 2722.5  208.5 2724.15  208.5 2726.25  C 208.5 2728.35  206.85 2730  204.75 2730  " fill-rule="nonzero" fill="#cccccc" stroke="none" mask="url(#clip472)" />
    <path d="M 181 2760  L 181 2738.55  L 190.75 2728.8  L 204.4 2736.6  L 212.2 2734.65  L 220 2736.6  L 220 2760  L 181 2760  " fill-rule="nonzero" fill="#169bd5" stroke="none" mask="url(#clip472)" />
  </g>
</svg>