<?xml version="1.0" encoding="utf-8"?>
<svg version="1.1" xmlns:xlink="http://www.w3.org/1999/xlink" width="20px" height="20px" xmlns="http://www.w3.org/2000/svg">
  <g transform="matrix(1 0 0 1 -474 -4246 )">
    <path d="M 12.9947916666667 12.7864583333333  C 13.7934027777778 12.0399305555556  14.7395833333333 11.6666666666667  15.8333333333333 11.6666666666667  C 16.9878472222222 11.6666666666667  17.9709201388889 12.0724826388889  18.7825520833333 12.8841145833333  C 19.5941840277778 13.6957465277778  20 14.6788194444444  20 15.8333333333333  C 20 16.9878472222222  19.5941840277778 17.9709201388889  18.7825520833333 18.7825520833333  C 17.9709201388889 19.5941840277778  16.9878472222222 20  15.8333333333333 20  C 14.6788194444444 20  13.6957465277778 19.5941840277778  12.8841145833333 18.7825520833333  C 12.0724826388889 17.9709201388889  11.6666666666667 16.9878472222222  11.6666666666667 15.8333333333333  C 11.6666666666667 15.7291666666667  11.6753472222222 15.5815972222222  11.6927083333333 15.390625  L 7.00520833333333 13.046875  C 6.20659722222222 13.7934027777778  5.26041666666667 14.1666666666667  4.16666666666667 14.1666666666667  C 3.01215277777778 14.1666666666667  2.02907986111111 13.7608506944444  1.21744791666667 12.94921875  C 0.405815972222222 12.1375868055556  0 11.1545138888889  0 10  C 0 8.84548611111111  0.405815972222222 7.86241319444444  1.21744791666667 7.05078125  C 2.02907986111111 6.23914930555555  3.01215277777778 5.83333333333333  4.16666666666667 5.83333333333333  C 5.26041666666667 5.83333333333333  6.20659722222222 6.20659722222222  7.00520833333333 6.953125  L 11.6927083333333 4.609375  C 11.6753472222222 4.41840277777778  11.6666666666667 4.27083333333333  11.6666666666667 4.16666666666667  C 11.6666666666667 3.01215277777778  12.0724826388889 2.02907986111111  12.8841145833333 1.21744791666667  C 13.6957465277778 0.405815972222221  14.6788194444444 0  15.8333333333333 0  C 16.9878472222222 0  17.9709201388889 0.405815972222221  18.7825520833333 1.21744791666667  C 19.5941840277778 2.02907986111111  20 3.01215277777778  20 4.16666666666667  C 20 5.32118055555555  19.5941840277778 6.30425347222222  18.7825520833333 7.11588541666667  C 17.9709201388889 7.92751736111111  16.9878472222222 8.33333333333333  15.8333333333333 8.33333333333333  C 14.7395833333333 8.33333333333333  13.7934027777778 7.96006944444444  12.9947916666667 7.21354166666667  L 8.30729166666667 9.55729166666667  C 8.32465277777778 9.74826388888889  8.33333333333333 9.89583333333333  8.33333333333333 10  C 8.33333333333333 10.1041666666667  8.32465277777778 10.2517361111111  8.30729166666667 10.4427083333333  L 12.9947916666667 12.7864583333333  Z " fill-rule="nonzero" fill="#000000" stroke="none" transform="matrix(1 0 0 1 474 4246 )" />
  </g>
</svg>