<?xml version="1.0" encoding="utf-8"?>
<svg version="1.1" xmlns:xlink="http://www.w3.org/1999/xlink" width="37px" height="37px" xmlns="http://www.w3.org/2000/svg">
  <g transform="matrix(1 0 0 1 -1519 -187 )">
    <path d="M 36.1279461279461 27.6565656565657  C 36.709315375982 28.2379349046016  37 28.9438832772166  37 29.7744107744108  C 37 30.6049382716049  36.709315375982 31.31088664422  36.1279461279461 31.8922558922559  L 31.8922558922559 36.1279461279461  C 31.31088664422 36.709315375982  30.6049382716049 37  29.7744107744108 37  C 28.9438832772166 37  28.2379349046016 36.709315375982  27.6565656565657 36.1279461279461  L 18.5 26.9713804713805  L 9.34343434343434 36.1279461279461  C 8.76206509539843 36.709315375982  8.05611672278339 37  7.22558922558923 37  C 6.39506172839506 37  5.68911335578002 36.709315375982  5.10774410774411 36.1279461279461  L 0.872053872053872 31.8922558922559  C 0.290684624017958 31.31088664422  0 30.6049382716049  0 29.7744107744108  C 0 28.9438832772166  0.290684624017958 28.2379349046016  0.872053872053872 27.6565656565657  L 10.0286195286195 18.5  L 0.872053872053872 9.34343434343434  C 0.290684624017958 8.76206509539843  0 8.05611672278339  0 7.22558922558923  C 0 6.39506172839506  0.290684624017958 5.68911335578002  0.872053872053872 5.10774410774411  L 5.10774410774411 0.872053872053872  C 5.68911335578002 0.290684624017956  6.39506172839506 0  7.22558922558923 0  C 8.05611672278339 0  8.76206509539843 0.290684624017956  9.34343434343434 0.872053872053872  L 18.5 10.0286195286195  L 27.6565656565657 0.872053872053872  C 28.2379349046016 0.290684624017956  28.9438832772166 0  29.7744107744108 0  C 30.6049382716049 0  31.31088664422 0.290684624017956  31.8922558922559 0.872053872053872  L 36.1279461279461 5.10774410774411  C 36.709315375982 5.68911335578002  37 6.39506172839506  37 7.22558922558923  C 37 8.05611672278339  36.709315375982 8.76206509539843  36.1279461279461 9.34343434343434  L 26.9713804713805 18.5  L 36.1279461279461 27.6565656565657  Z " fill-rule="nonzero" fill="#000000" stroke="none" transform="matrix(1 0 0 1 1519 187 )" />
  </g>
</svg>