<?xml version="1.0" encoding="utf-8"?>
<svg version="1.1" xmlns:xlink="http://www.w3.org/1999/xlink" width="50px" height="50px" xmlns="http://www.w3.org/2000/svg">
  <defs>
    <mask fill="white" id="clip27">
      <path d="M 2054 -2724  C 2042.345 -2724  2033 -2733.345  2033 -2745  L 2033 -2753  C 2033 -2764.655  2042.345 -2774  2054 -2774  L 2062 -2774  C 2073.655 -2774  2083 -2764.655  2083 -2753  L 2083 -2745  C 2083 -2733.345  2073.655 -2724  2062 -2724  " fill-rule="evenodd" />
    </mask>
  </defs>
  <g transform="matrix(1 0 0 1 -2033 2774 )">
    <path d="M 2033 -2774  L 2083 -2774  L 2083 -2724  L 2033 -2724  L 2033 -2774  " fill-rule="nonzero" fill="#cccccc" stroke="none" mask="url(#clip27)" />
    <path d="M 2037 -2770  L 2079 -2770  L 2079 -2728  L 2037 -2728  L 2037 -2770  " fill-rule="nonzero" fill="#ffffff" stroke="none" mask="url(#clip27)" />
    <path d="M 2062.75 -2759  C 2060.65 -2759  2059 -2760.65  2059 -2762.75  C 2059 -2764.85  2060.65 -2766.5  2062.75 -2766.5  C 2064.85 -2766.5  2066.5 -2764.85  2066.5 -2762.75  C 2066.5 -2760.65  2064.85 -2759  2062.75 -2759  " fill-rule="nonzero" fill="#cccccc" stroke="none" mask="url(#clip27)" />
    <path d="M 2039 -2730  L 2039 -2751.45  L 2048.75 -2761.2  L 2062.4 -2753.4  L 2070.2 -2755.35  L 2078 -2753.4  L 2078 -2730  L 2039 -2730  " fill-rule="nonzero" fill="#169bd5" stroke="none" mask="url(#clip27)" />
  </g>
</svg>