<?xml version="1.0" encoding="utf-8"?>
<svg version="1.1" xmlns:xlink="http://www.w3.org/1999/xlink" width="40px" height="40px" xmlns="http://www.w3.org/2000/svg">
  <g transform="matrix(1 0 0 1 -159 -3058 )">
    <path d="M 179 3058  C 190.2 3058  199 3066.8  199 3078  C 199 3089.2  190.2 3098  179 3098  C 167.8 3098  159 3089.2  159 3078  C 159 3066.8  167.8 3058  179 3058  Z " fill-rule="nonzero" fill="#ffffff" stroke="none" />
    <path d="M 179 3058.5  C 189.92 3058.5  198.5 3067.08  198.5 3078  C 198.5 3088.92  189.92 3097.5  179 3097.5  C 168.08 3097.5  159.5 3088.92  159.5 3078  C 159.5 3067.08  168.08 3058.5  179 3058.5  Z " stroke-width="1" stroke="#797979" fill="none" />
  </g>
</svg>