<?xml version="1.0" encoding="utf-8"?>
<svg version="1.1" xmlns:xlink="http://www.w3.org/1999/xlink" width="29px" height="28px" xmlns="http://www.w3.org/2000/svg">
  <defs>
    <mask fill="white" id="clip475">
      <path d="M 1765 218  C 1757.23 218  1751 211.77  1751 204  L 1751 204  C 1751 196.23  1757.23 190  1765 190  L 1766 190  C 1773.77 190  1780 196.23  1780 204  L 1780 204  C 1780 211.77  1773.77 218  1766 218  " fill-rule="evenodd" />
    </mask>
  </defs>
  <g transform="matrix(1 0 0 1 -1751 -190 )">
    <path d="M 1751 190  L 1780 190  L 1780 218  L 1751 218  L 1751 190  " fill-rule="nonzero" fill="#cccccc" stroke="none" mask="url(#clip475)" />
    <path d="M 1753 192  L 1778 192  L 1778 216  L 1753 216  L 1753 192  " fill-rule="nonzero" fill="#ffffff" stroke="none" mask="url(#clip475)" />
    <path d="M 1768.18 198.4  C 1767.004 198.4  1766.08 197.476  1766.08 196.3  C 1766.08 195.124  1767.004 194.2  1768.18 194.2  C 1769.356 194.2  1770.28 195.124  1770.28 196.3  C 1770.28 197.476  1769.356 198.4  1768.18 198.4  " fill-rule="nonzero" fill="#cccccc" stroke="none" mask="url(#clip475)" />
    <path d="M 1754 216  L 1754 203.35  L 1760 197.6  L 1768.4 202.675862068966  L 1773.2 201.05  L 1778 202.675862068966  L 1778 216  L 1754 216  " fill-rule="nonzero" fill="#169bd5" stroke="none" mask="url(#clip475)" />
  </g>
</svg>