<?xml version="1.0" encoding="utf-8"?>
<svg version="1.1" xmlns:xlink="http://www.w3.org/1999/xlink" width="200px" height="200px" xmlns="http://www.w3.org/2000/svg">
  <g transform="matrix(1 0 0 1 -3410 -456 )">
    <path d="M 3510 456  C 3566 456  3610 500  3610 556  C 3610 612  3566 656  3510 656  C 3454 656  3410 612  3410 556  C 3410 500  3454 456  3510 456  Z " fill-rule="nonzero" fill="#ffffff" stroke="none" />
    <path d="M 3510 456.5  C 3565.72 456.5  3609.5 500.28  3609.5 556  C 3609.5 611.72  3565.72 655.5  3510 655.5  C 3454.28 655.5  3410.5 611.72  3410.5 556  C 3410.5 500.28  3454.28 456.5  3510 456.5  Z " stroke-width="1" stroke="#797979" fill="none" />
  </g>
</svg>