<?xml version="1.0" encoding="utf-8"?>
<svg version="1.1" xmlns:xlink="http://www.w3.org/1999/xlink" width="39px" height="41px" xmlns="http://www.w3.org/2000/svg">
  <defs>
    <mask fill="white" id="clip245">
      <path d="M 3394.5 437  C 3383.6775 437  3375 428.3225  3375 417.5  L 3375 415.5  C 3375 404.6775  3383.6775 396  3394.5 396  L 3394.5 396  C 3405.3225 396  3414 404.6775  3414 415.5  L 3414 417.5  C 3414 428.3225  3405.3225 437  3394.5 437  " fill-rule="evenodd" />
    </mask>
  </defs>
  <g transform="matrix(1 0 0 1 -3375 -396 )">
    <path d="M 3375 396  L 3414 396  L 3414 437  L 3375 437  L 3375 396  " fill-rule="nonzero" fill="#cccccc" stroke="none" mask="url(#clip245)" />
    <path d="M 3378 399  L 3411 399  L 3411 434  L 3378 434  L 3378 399  " fill-rule="nonzero" fill="#ffffff" stroke="none" mask="url(#clip245)" />
    <path d="M 3398.205 408  C 3396.567 408  3395.28 406.713  3395.28 405.075  C 3395.28 403.437  3396.567 402.15  3398.205 402.15  C 3399.843 402.15  3401.13 403.437  3401.13 405.075  C 3401.13 406.713  3399.843 408  3398.205 408  " fill-rule="nonzero" fill="#cccccc" stroke="none" mask="url(#clip245)" />
    <path d="M 3379 433  L 3379 414.85  L 3386.75 406.6  L 3397.6 413.2  L 3403.8 411.55  L 3410 413.2  L 3410 433  L 3379 433  " fill-rule="nonzero" fill="#169bd5" stroke="none" mask="url(#clip245)" />
  </g>
</svg>