<?xml version="1.0" encoding="utf-8"?>
<svg version="1.1" xmlns:xlink="http://www.w3.org/1999/xlink" width="32px" height="30px" xmlns="http://www.w3.org/2000/svg">
  <g transform="matrix(1 0 0 1 -1987 -677 )">
    <path d="M 2003 677  C 2011.96 677  2019 683.6  2019 692  C 2019 700.4  2011.96 707  2003 707  C 1994.04 707  1987 700.4  1987 692  C 1987 683.6  1994.04 677  2003 677  Z " fill-rule="nonzero" fill="#ffffff" stroke="none" />
    <path d="M 2003 677.5  C 2011.68 677.5  2018.5 683.88  2018.5 692  C 2018.5 700.12  2011.68 706.5  2003 706.5  C 1994.32 706.5  1987.5 700.12  1987.5 692  C 1987.5 683.88  1994.32 677.5  2003 677.5  Z " stroke-width="1" stroke="#797979" fill="none" />
  </g>
</svg>