<?xml version="1.0" encoding="utf-8"?>
<svg version="1.1" xmlns:xlink="http://www.w3.org/1999/xlink" width="17px" height="20px" xmlns="http://www.w3.org/2000/svg">
  <g transform="matrix(1 0 0 1 -2772 -500 )">
    <path d="M 2780.5 500  C 2785.26 500  2789 504.4  2789 510  C 2789 515.6  2785.26 520  2780.5 520  C 2775.74 520  2772 515.6  2772 510  C 2772 504.4  2775.74 500  2780.5 500  Z " fill-rule="nonzero" fill="#d9001b" stroke="none" />
    <path d="M 2780.5 500.5  C 2784.98 500.5  2788.5 504.68  2788.5 510  C 2788.5 515.32  2784.98 519.5  2780.5 519.5  C 2776.02 519.5  2772.5 515.32  2772.5 510  C 2772.5 504.68  2776.02 500.5  2780.5 500.5  Z " stroke-width="1" stroke="#797979" fill="none" />
  </g>
</svg>