<?xml version="1.0" encoding="utf-8"?>
<svg version="1.1" xmlns:xlink="http://www.w3.org/1999/xlink" width="57px" height="50px" xmlns="http://www.w3.org/2000/svg">
  <g transform="matrix(1 0 0 1 -2477 -585 )">
    <path d="M 2477 585  L 2534 585  L 2534 635  L 2477 635  L 2477 585  " fill-rule="nonzero" fill="#cccccc" stroke="none" />
    <path d="M 2481 589  L 2530 589  L 2530 631  L 2481 631  L 2481 589  " fill-rule="nonzero" fill="#ffffff" stroke="none" />
    <path d="M 2510.39 600  C 2508.29 600  2506.64 598.35  2506.64 596.25  C 2506.64 594.15  2508.29 592.5  2510.39 592.5  C 2512.49 592.5  2514.14 594.15  2514.14 596.25  C 2514.14 598.35  2512.49 600  2510.39 600  " fill-rule="nonzero" fill="#cccccc" stroke="none" />
    <path d="M 2483 630  L 2483 608.55  L 2494.5 598.8  L 2510.6 609.473684210526  L 2519.8 604.65  L 2529 609.473684210526  L 2529 630  L 2483 630  " fill-rule="nonzero" fill="#169bd5" stroke="none" />
  </g>
</svg>