<?xml version="1.0" encoding="utf-8"?>
<svg version="1.1" xmlns:xlink="http://www.w3.org/1999/xlink" width="16px" height="17px" xmlns="http://www.w3.org/2000/svg">
  <defs>
    <mask fill="white" id="clip29">
      <path d="M 2548 700  C 2543.56 700  2540 696.44  2540 692  L 2540 691  C 2540 686.56  2543.56 683  2548 683  L 2548 683  C 2552.44 683  2556 686.56  2556 691  L 2556 692  C 2556 696.44  2552.44 700  2548 700  " fill-rule="evenodd" />
    </mask>
  </defs>
  <g transform="matrix(1 0 0 1 -2540 -683 )">
    <path d="M 2540 683  L 2556 683  L 2556 700  L 2540 700  L 2540 683  " fill-rule="nonzero" fill="#cccccc" stroke="none" mask="url(#clip29)" />
    <path d="M 2541 684  L 2555 684  L 2555 699  L 2541 699  L 2541 684  " fill-rule="nonzero" fill="#ffffff" stroke="none" mask="url(#clip29)" />
    <path d="M 2549.52 687.95  C 2548.848 687.95  2548.32 687.422  2548.32 686.75  C 2548.32 686.078  2548.848 685.55  2549.52 685.55  C 2550.192 685.55  2550.72 686.078  2550.72 686.75  C 2550.72 687.422  2550.192 687.95  2549.52 687.95  " fill-rule="nonzero" fill="#cccccc" stroke="none" mask="url(#clip29)" />
    <path d="M 2542 699  L 2542 691.3  L 2545.25 687.8  L 2549.8 690.6  L 2552.4 689.9  L 2555 690.6  L 2555 699  L 2542 699  " fill-rule="nonzero" fill="#169bd5" stroke="none" mask="url(#clip29)" />
  </g>
</svg>