<?xml version="1.0" encoding="utf-8"?>
<svg version="1.1" xmlns:xlink="http://www.w3.org/1999/xlink" width="12px" height="12px" viewBox="659 1484  12 12" xmlns="http://www.w3.org/2000/svg">
  <path d="M 665 1484  C 668.36 1484  671 1486.64  671 1490  C 671 1493.36  668.36 1496  665 1496  C 661.64 1496  659 1493.36  659 1490  C 659 1486.64  661.64 1484  665 1484  Z " fill-rule="nonzero" fill="#f0f0f0" stroke="none" />
  <path d="M 665 1484.5  C 668.08 1484.5  670.5 1486.92  670.5 1490  C 670.5 1493.08  668.08 1495.5  665 1495.5  C 661.92 1495.5  659.5 1493.08  659.5 1490  C 659.5 1486.92  661.92 1484.5  665 1484.5  Z " stroke-width="1" stroke="#797979" fill="none" />
  <path d="M 665 1493  C 663.32 1493  662 1491.68  662 1490  C 662 1488.32  663.32 1487  665 1487  C 666.68 1487  668 1488.32  668 1490  C 668 1491.68  666.68 1493  665 1493  " fill-rule="nonzero" fill="#797979" stroke="none" />
</svg>