<?xml version="1.0" encoding="utf-8"?>
<svg version="1.1" xmlns:xlink="http://www.w3.org/1999/xlink" width="12px" height="12px" viewBox="775 457  12 12" xmlns="http://www.w3.org/2000/svg">
  <path d="M 781 457  C 784.36 457  787 459.64  787 463  C 787 466.36  784.36 469  781 469  C 777.64 469  775 466.36  775 463  C 775 459.64  777.64 457  781 457  Z " fill-rule="nonzero" fill="#ffffff" stroke="none" />
  <path d="M 781 457.5  C 784.08 457.5  786.5 459.92  786.5 463  C 786.5 466.08  784.08 468.5  781 468.5  C 777.92 468.5  775.5 466.08  775.5 463  C 775.5 459.92  777.92 457.5  781 457.5  Z " stroke-width="1" stroke="#797979" fill="none" />
  <path d="M 781 466  C 779.32 466  778 464.68  778 463  C 778 461.32  779.32 460  781 460  C 782.68 460  784 461.32  784 463  C 784 464.68  782.68 466  781 466  " fill-rule="nonzero" fill="#797979" stroke="none" />
</svg>