<?xml version="1.0" encoding="utf-8"?>
<svg version="1.1" xmlns:xlink="http://www.w3.org/1999/xlink" width="12px" height="12px" viewBox="659 457  12 12" xmlns="http://www.w3.org/2000/svg">
  <path d="M 665 457  C 668.36 457  671 459.64  671 463  C 671 466.36  668.36 469  665 469  C 661.64 469  659 466.36  659 463  C 659 459.64  661.64 457  665 457  Z " fill-rule="nonzero" fill="#ffffff" stroke="none" />
  <path d="M 665 457.5  C 668.08 457.5  670.5 459.92  670.5 463  C 670.5 466.08  668.08 468.5  665 468.5  C 661.92 468.5  659.5 466.08  659.5 463  C 659.5 459.92  661.92 457.5  665 457.5  Z " stroke-width="1" stroke="#797979" fill="none" />
  <path d="M 665 466  C 663.32 466  662 464.68  662 463  C 662 461.32  663.32 460  665 460  C 666.68 460  668 461.32  668 463  C 668 464.68  666.68 466  665 466  " fill-rule="nonzero" fill="#797979" stroke="none" />
</svg>